%TF.GenerationSoftware,KiCad,Pcbnew,10.0.5*%
%TF.CreationDate,2026-08-23T18:13:50+08:00*%
%TF.ProjectId,BLDC_MC_V1.0,424c4443-5f4d-4435-9f56-312e302e6b69,V1.0*%
%TF.SameCoordinates,Original*%
%TF.FileFunction,Soldermask,Bot*%
%TF.FilePolarity,Negative*%
%FSLAX46Y46*%
G04 Gerber Fmt 4.6, Leading zero omitted, Abs format (unit mm)*
G04 Created by KiCad (PCBNEW 10.0.5) date 2026-08-23 18:13:50*
%MOMM*%
%LPD*%
G01*
G04 APERTURE LIST*
G04 Aperture macros list*
%AMRoundRect*
0 Rectangle with rounded corners*
0 $1 Rounding radius*
0 $2 $3 $4 $5 $6 $7 $8 $9 X,Y pos of 4 corners*
0 Add a 4 corners polygon primitive as box body*
4,1,4,$2,$3,$4,$5,$6,$7,$8,$9,$2,$3,0*
0 Add four circle primitives for the rounded corners*
1,1,$1+$1,$2,$3*
1,1,$1+$1,$4,$5*
1,1,$1+$1,$6,$7*
1,1,$1+$1,$8,$9*
0 Add four rect primitives between the rounded corners*
20,1,$1+$1,$2,$3,$4,$5,0*
20,1,$1+$1,$4,$5,$6,$7,0*
20,1,$1+$1,$6,$7,$8,$9,0*
20,1,$1+$1,$8,$9,$2,$3,0*%
%AMFreePoly0*
4,1,13,0.252200,0.527500,0.672800,0.527500,0.672800,0.272500,0.252200,0.272500,0.252200,-0.275000,0.672800,-0.275000,0.672800,-0.525000,0.252200,-0.525000,0.252200,-0.622300,-0.252200,-0.622300,-0.252200,0.622300,0.252200,0.622300,0.252200,0.527500,0.252200,0.527500,$1*%
G04 Aperture macros list end*
%ADD10RoundRect,0.102000X0.600000X-0.600000X0.600000X0.600000X-0.600000X0.600000X-0.600000X-0.600000X0*%
%ADD11C,1.404000*%
%ADD12C,1.270000*%
%ADD13C,0.700000*%
%ADD14C,4.400000*%
%ADD15C,0.650000*%
%ADD16O,2.100000X1.000000*%
%ADD17O,1.800000X1.000000*%
%ADD18R,1.700000X1.700000*%
%ADD19C,1.700000*%
%ADD20RoundRect,0.200000X-0.275000X0.200000X-0.275000X-0.200000X0.275000X-0.200000X0.275000X0.200000X0*%
%ADD21RoundRect,0.225000X0.225000X0.250000X-0.225000X0.250000X-0.225000X-0.250000X0.225000X-0.250000X0*%
%ADD22RoundRect,0.200000X0.200000X0.275000X-0.200000X0.275000X-0.200000X-0.275000X0.200000X-0.275000X0*%
%ADD23R,0.803900X0.406400*%
%ADD24RoundRect,0.200000X-0.200000X-0.275000X0.200000X-0.275000X0.200000X0.275000X-0.200000X0.275000X0*%
%ADD25RoundRect,0.249500X0.457500X0.147500X-0.457500X0.147500X-0.457500X-0.147500X0.457500X-0.147500X0*%
%ADD26RoundRect,0.250001X-0.899999X-1.449999X0.899999X-1.449999X0.899999X1.449999X-0.899999X1.449999X0*%
%ADD27RoundRect,0.250000X-0.625000X0.312500X-0.625000X-0.312500X0.625000X-0.312500X0.625000X0.312500X0*%
%ADD28RoundRect,0.250000X-0.250000X-0.475000X0.250000X-0.475000X0.250000X0.475000X-0.250000X0.475000X0*%
%ADD29RoundRect,0.218750X0.256250X-0.218750X0.256250X0.218750X-0.256250X0.218750X-0.256250X-0.218750X0*%
%ADD30RoundRect,0.250000X-0.475000X0.250000X-0.475000X-0.250000X0.475000X-0.250000X0.475000X0.250000X0*%
%ADD31RoundRect,0.250000X0.250000X0.475000X-0.250000X0.475000X-0.250000X-0.475000X0.250000X-0.475000X0*%
%ADD32RoundRect,0.250000X0.325000X0.650000X-0.325000X0.650000X-0.325000X-0.650000X0.325000X-0.650000X0*%
%ADD33RoundRect,0.250000X0.475000X-0.250000X0.475000X0.250000X-0.475000X0.250000X-0.475000X-0.250000X0*%
%ADD34RoundRect,0.250000X-0.650000X0.325000X-0.650000X-0.325000X0.650000X-0.325000X0.650000X0.325000X0*%
%ADD35RoundRect,0.250000X-1.950000X-1.000000X1.950000X-1.000000X1.950000X1.000000X-1.950000X1.000000X0*%
%ADD36RoundRect,0.225000X-0.225000X-0.250000X0.225000X-0.250000X0.225000X0.250000X-0.225000X0.250000X0*%
%ADD37RoundRect,0.250000X1.950000X1.000000X-1.950000X1.000000X-1.950000X-1.000000X1.950000X-1.000000X0*%
%ADD38R,3.200400X2.184400*%
%ADD39RoundRect,0.200000X0.275000X-0.200000X0.275000X0.200000X-0.275000X0.200000X-0.275000X-0.200000X0*%
%ADD40R,0.939800X2.489200*%
%ADD41R,6.781800X6.934200*%
%ADD42RoundRect,0.218250X0.873750X0.348750X-0.873750X0.348750X-0.873750X-0.348750X0.873750X-0.348750X0*%
%ADD43RoundRect,0.349500X0.742500X1.367500X-0.742500X1.367500X-0.742500X-1.367500X0.742500X-1.367500X0*%
%ADD44R,0.660400X0.254000*%
%ADD45FreePoly0,0.000000*%
%ADD46RoundRect,0.133250X0.343750X0.093750X-0.343750X0.093750X-0.343750X-0.093750X0.343750X-0.093750X0*%
%ADD47RoundRect,0.133250X0.093750X0.268750X-0.093750X0.268750X-0.093750X-0.268750X0.093750X-0.268750X0*%
%ADD48RoundRect,0.102000X0.900000X2.250000X-0.900000X2.250000X-0.900000X-2.250000X0.900000X-2.250000X0*%
%ADD49RoundRect,0.250000X-0.325000X-0.650000X0.325000X-0.650000X0.325000X0.650000X-0.325000X0.650000X0*%
%ADD50RoundRect,0.177000X-0.910000X-0.225000X0.910000X-0.225000X0.910000X0.225000X-0.910000X0.225000X0*%
G04 APERTURE END LIST*
D10*
%TO.C,J5*%
X150033275Y-43736508D03*
D11*
X150033275Y-41736508D03*
X150033275Y-39736508D03*
X150033275Y-37736508D03*
X150033275Y-35736508D03*
X150033275Y-33736508D03*
%TD*%
D12*
%TO.C,J8*%
X45919175Y-52282508D03*
X45919175Y-54282507D03*
X45919175Y-56282508D03*
X45919175Y-58282509D03*
X45919175Y-60282507D03*
X43919174Y-52282508D03*
X43919174Y-54282507D03*
X43919174Y-56282508D03*
X43919174Y-58282509D03*
X43919174Y-60282507D03*
%TD*%
D13*
%TO.C,H4*%
X154350000Y-27000000D03*
X154833274Y-25833274D03*
X154833274Y-28166726D03*
X156000000Y-25350000D03*
D14*
X156000000Y-27000000D03*
D13*
X156000000Y-28650000D03*
X157166726Y-25833274D03*
X157166726Y-28166726D03*
X157650000Y-27000000D03*
%TD*%
%TO.C,H2*%
X36850000Y-27000000D03*
X37333274Y-25833274D03*
X37333274Y-28166726D03*
X38500000Y-25350000D03*
D14*
X38500000Y-27000000D03*
D13*
X38500000Y-28650000D03*
X39666726Y-25833274D03*
X39666726Y-28166726D03*
X40150000Y-27000000D03*
%TD*%
%TO.C,H3*%
X154350000Y-79000000D03*
X154833274Y-77833274D03*
X154833274Y-80166726D03*
X156000000Y-77350000D03*
D14*
X156000000Y-79000000D03*
D13*
X156000000Y-80650000D03*
X157166726Y-77833274D03*
X157166726Y-80166726D03*
X157650000Y-79000000D03*
%TD*%
D15*
%TO.C,J3*%
X44458275Y-65838508D03*
X44458275Y-71618508D03*
D16*
X44958275Y-64408508D03*
D17*
X40778275Y-64408508D03*
D16*
X44958275Y-73048508D03*
D17*
X40778275Y-73048508D03*
%TD*%
D13*
%TO.C,H1*%
X36850000Y-79000000D03*
X37333274Y-77833274D03*
X37333274Y-80166726D03*
X38500000Y-77350000D03*
D14*
X38500000Y-79000000D03*
D13*
X38500000Y-80650000D03*
X39666726Y-77833274D03*
X39666726Y-80166726D03*
X40150000Y-79000000D03*
%TD*%
D18*
%TO.C,J4*%
X93451275Y-71390508D03*
D19*
X93451275Y-73930508D03*
X90911275Y-71390508D03*
X90911275Y-73930508D03*
X88371275Y-71390508D03*
X88371275Y-73930508D03*
%TD*%
D20*
%TO.C,R34*%
X81470942Y-72348508D03*
X81470942Y-73998508D03*
%TD*%
D21*
%TO.C,C60*%
X92702275Y-33803508D03*
X91152275Y-33803508D03*
%TD*%
D22*
%TO.C,R17*%
X69788275Y-31270508D03*
X68138275Y-31270508D03*
%TD*%
%TO.C,R50*%
X92752275Y-30755508D03*
X91102275Y-30755508D03*
%TD*%
D23*
%TO.C,CR9*%
X42303925Y-58314508D03*
X39696625Y-58314508D03*
%TD*%
D20*
%TO.C,R35*%
X86466275Y-72348508D03*
X86466275Y-73998508D03*
%TD*%
D24*
%TO.C,R20*%
X68138275Y-32921508D03*
X69788275Y-32921508D03*
%TD*%
D25*
%TO.C,U13*%
X106136275Y-54824508D03*
X106136275Y-55774508D03*
X106136275Y-56724508D03*
X103626275Y-56724508D03*
X103626275Y-54824508D03*
%TD*%
D26*
%TO.C,L1*%
X73633275Y-61986508D03*
X79333275Y-61986508D03*
%TD*%
D24*
%TO.C,R1*%
X73558275Y-71486508D03*
X75208275Y-71486508D03*
%TD*%
D27*
%TO.C,R61*%
X109333275Y-31224008D03*
X109333275Y-34149008D03*
%TD*%
D28*
%TO.C,C3*%
X81983275Y-55186508D03*
X83883275Y-55186508D03*
%TD*%
D29*
%TO.C,D2*%
X81470942Y-77313008D03*
X81470942Y-75738008D03*
%TD*%
D30*
%TO.C,C70*%
X104158275Y-46823508D03*
X104158275Y-48723508D03*
%TD*%
D31*
%TO.C,C86*%
X89790275Y-58144508D03*
X87890275Y-58144508D03*
%TD*%
D32*
%TO.C,C6*%
X85008275Y-62486508D03*
X82058275Y-62486508D03*
%TD*%
D22*
%TO.C,R46*%
X92514775Y-49170508D03*
X90864775Y-49170508D03*
%TD*%
D25*
%TO.C,U3*%
X88499775Y-49998508D03*
X88499775Y-50948508D03*
X88499775Y-51898508D03*
X85989775Y-51898508D03*
X85989775Y-49998508D03*
%TD*%
D33*
%TO.C,C64*%
X152633275Y-35586508D03*
X152633275Y-33686508D03*
%TD*%
D34*
%TO.C,C67*%
X96333275Y-62511508D03*
X96333275Y-65461508D03*
%TD*%
D25*
%TO.C,U10*%
X88748011Y-41447508D03*
X88748011Y-42397508D03*
X88748011Y-43347508D03*
X86238011Y-43347508D03*
X86238011Y-41447508D03*
%TD*%
D23*
%TO.C,CR8*%
X42303925Y-56282508D03*
X39696625Y-56282508D03*
%TD*%
D27*
%TO.C,R55*%
X109333275Y-54824008D03*
X109333275Y-57749008D03*
%TD*%
D33*
%TO.C,C7*%
X64943275Y-66646508D03*
X64943275Y-64746508D03*
%TD*%
D32*
%TO.C,C26*%
X85008275Y-65186508D03*
X82058275Y-65186508D03*
%TD*%
D35*
%TO.C,C48*%
X117572275Y-57948508D03*
X125972275Y-57948508D03*
%TD*%
D33*
%TO.C,C8*%
X62933275Y-66646508D03*
X62933275Y-64746508D03*
%TD*%
D36*
%TO.C,C33*%
X73608275Y-72986508D03*
X75158275Y-72986508D03*
%TD*%
D24*
%TO.C,R60*%
X100158275Y-45233508D03*
X101808275Y-45233508D03*
%TD*%
D22*
%TO.C,R15*%
X92514775Y-52218508D03*
X90864775Y-52218508D03*
%TD*%
D24*
%TO.C,R56*%
X108043275Y-60219508D03*
X109693275Y-60219508D03*
%TD*%
D25*
%TO.C,U12*%
X94302775Y-58464508D03*
X94302775Y-59414508D03*
X94302775Y-60364508D03*
X91792775Y-60364508D03*
X91792775Y-58464508D03*
%TD*%
D28*
%TO.C,C17*%
X86300539Y-47881508D03*
X88200539Y-47881508D03*
%TD*%
%TO.C,C65*%
X152083275Y-43686508D03*
X153983275Y-43686508D03*
%TD*%
D35*
%TO.C,C49*%
X117572275Y-45898508D03*
X125972275Y-45898508D03*
%TD*%
D37*
%TO.C,C30*%
X59678275Y-69998508D03*
X51278275Y-69998508D03*
%TD*%
D28*
%TO.C,C61*%
X79755275Y-34318508D03*
X81655275Y-34318508D03*
%TD*%
D34*
%TO.C,C55*%
X108633275Y-68511508D03*
X108633275Y-71461508D03*
%TD*%
D24*
%TO.C,R65*%
X100158275Y-56790508D03*
X101808275Y-56790508D03*
%TD*%
D37*
%TO.C,C29*%
X59678275Y-57948508D03*
X51278275Y-57948508D03*
%TD*%
D24*
%TO.C,R6*%
X73558275Y-69986508D03*
X75208275Y-69986508D03*
%TD*%
D31*
%TO.C,C32*%
X75583275Y-66686508D03*
X73683275Y-66686508D03*
%TD*%
D21*
%TO.C,C59*%
X92696511Y-42331508D03*
X91146511Y-42331508D03*
%TD*%
D28*
%TO.C,C85*%
X104058275Y-29612508D03*
X105958275Y-29612508D03*
%TD*%
%TO.C,C84*%
X104058275Y-41042508D03*
X105958275Y-41042508D03*
%TD*%
D24*
%TO.C,R66*%
X100285275Y-33803508D03*
X101935275Y-33803508D03*
%TD*%
D37*
%TO.C,C10*%
X59678275Y-45898508D03*
X51278275Y-45898508D03*
%TD*%
D31*
%TO.C,C88*%
X41823275Y-51964508D03*
X39923275Y-51964508D03*
%TD*%
D24*
%TO.C,R62*%
X108170275Y-36470508D03*
X109820275Y-36470508D03*
%TD*%
D29*
%TO.C,D4*%
X83968608Y-77313008D03*
X83968608Y-75738008D03*
%TD*%
D22*
%TO.C,R49*%
X92746511Y-43855508D03*
X91096511Y-43855508D03*
%TD*%
D33*
%TO.C,C36*%
X77703275Y-51263508D03*
X77703275Y-49363508D03*
%TD*%
D35*
%TO.C,C47*%
X117572275Y-69998508D03*
X125972275Y-69998508D03*
%TD*%
D20*
%TO.C,R57*%
X106134775Y-58378508D03*
X106134775Y-60028508D03*
%TD*%
D28*
%TO.C,C35*%
X71083275Y-42786508D03*
X72983275Y-42786508D03*
%TD*%
D29*
%TO.C,D3*%
X86466275Y-77313008D03*
X86466275Y-75738008D03*
%TD*%
D35*
%TO.C,C50*%
X117572275Y-33848508D03*
X125972275Y-33848508D03*
%TD*%
D22*
%TO.C,R45*%
X92514775Y-47646508D03*
X90864775Y-47646508D03*
%TD*%
D23*
%TO.C,CR7*%
X42303925Y-54123508D03*
X39696625Y-54123508D03*
%TD*%
D21*
%TO.C,C28*%
X74208275Y-74586508D03*
X72658275Y-74586508D03*
%TD*%
D30*
%TO.C,C69*%
X104334275Y-35393508D03*
X104334275Y-37293508D03*
%TD*%
D22*
%TO.C,R51*%
X92752275Y-32279508D03*
X91102275Y-32279508D03*
%TD*%
D20*
%TO.C,R37*%
X78973275Y-72348508D03*
X78973275Y-73998508D03*
%TD*%
D21*
%TO.C,C58*%
X92464775Y-50694508D03*
X90914775Y-50694508D03*
%TD*%
D38*
%TO.C,CR10*%
X43413275Y-37410308D03*
X43413275Y-43658708D03*
%TD*%
D22*
%TO.C,R48*%
X92746511Y-40807508D03*
X91096511Y-40807508D03*
%TD*%
D20*
%TO.C,R53*%
X90872275Y-62526508D03*
X90872275Y-64176508D03*
%TD*%
D22*
%TO.C,R2*%
X74258275Y-76186508D03*
X72608275Y-76186508D03*
%TD*%
D39*
%TO.C,R3*%
X64876275Y-70569508D03*
X64876275Y-68919508D03*
%TD*%
D40*
%TO.C,U7*%
X101043274Y-67868508D03*
D41*
X103333275Y-74282008D03*
D40*
X105623276Y-67868508D03*
%TD*%
D24*
%TO.C,R18*%
X80233775Y-32434508D03*
X81883775Y-32434508D03*
%TD*%
D32*
%TO.C,C27*%
X85008275Y-67886508D03*
X82058275Y-67886508D03*
%TD*%
D25*
%TO.C,U11*%
X88737275Y-32726508D03*
X88737275Y-33676508D03*
X88737275Y-34626508D03*
X86227275Y-34626508D03*
X86227275Y-32726508D03*
%TD*%
D42*
%TO.C,U5*%
X74948275Y-47686508D03*
X74948275Y-49986508D03*
X74948275Y-52286508D03*
D43*
X68918275Y-49986508D03*
%TD*%
D20*
%TO.C,R63*%
X106366275Y-35391508D03*
X106366275Y-37041508D03*
%TD*%
D28*
%TO.C,C63*%
X86536275Y-30736508D03*
X88436275Y-30736508D03*
%TD*%
D37*
%TO.C,C9*%
X59678275Y-33848508D03*
X51278275Y-33848508D03*
%TD*%
D30*
%TO.C,C71*%
X96714275Y-58591508D03*
X96714275Y-60491508D03*
%TD*%
D24*
%TO.C,R59*%
X108043275Y-48662508D03*
X109693275Y-48662508D03*
%TD*%
D39*
%TO.C,R54*%
X92396275Y-64176508D03*
X92396275Y-62526508D03*
%TD*%
D22*
%TO.C,R47*%
X92746511Y-39283508D03*
X91096511Y-39283508D03*
%TD*%
D28*
%TO.C,C83*%
X103804275Y-52726508D03*
X105704275Y-52726508D03*
%TD*%
D29*
%TO.C,D1*%
X78973275Y-77313008D03*
X78973275Y-75738008D03*
%TD*%
D30*
%TO.C,C54*%
X96033275Y-68936508D03*
X96033275Y-70836508D03*
%TD*%
D22*
%TO.C,R52*%
X92752275Y-35327508D03*
X91102275Y-35327508D03*
%TD*%
D20*
%TO.C,R36*%
X83968608Y-72348508D03*
X83968608Y-73998508D03*
%TD*%
D28*
%TO.C,C62*%
X86532275Y-39391508D03*
X88432275Y-39391508D03*
%TD*%
D20*
%TO.C,R64*%
X106190275Y-46694508D03*
X106190275Y-48344508D03*
%TD*%
%TO.C,R5*%
X66908275Y-71840508D03*
X66908275Y-73490508D03*
%TD*%
D36*
%TO.C,C34*%
X73608275Y-68486508D03*
X75158275Y-68486508D03*
%TD*%
D30*
%TO.C,C68*%
X104102775Y-58507508D03*
X104102775Y-60407508D03*
%TD*%
D22*
%TO.C,R4*%
X71058275Y-74586508D03*
X69408275Y-74586508D03*
%TD*%
D27*
%TO.C,R58*%
X109333275Y-43224008D03*
X109333275Y-46149008D03*
%TD*%
D22*
%TO.C,R19*%
X69788275Y-34572508D03*
X68138275Y-34572508D03*
%TD*%
D32*
%TO.C,C5*%
X85008275Y-59836508D03*
X82058275Y-59836508D03*
%TD*%
D25*
%TO.C,U15*%
X106263275Y-31710508D03*
X106263275Y-32660508D03*
X106263275Y-33610508D03*
X103753275Y-33610508D03*
X103753275Y-31710508D03*
%TD*%
D44*
%TO.C,CR1*%
X47661775Y-55586507D03*
X47661775Y-54786509D03*
D45*
X48460475Y-55186508D03*
%TD*%
D30*
%TO.C,C53*%
X98133275Y-68936508D03*
X98133275Y-70836508D03*
%TD*%
D25*
%TO.C,U14*%
X106175275Y-43140508D03*
X106175275Y-44090508D03*
X106175275Y-45040508D03*
X103665275Y-45040508D03*
X103665275Y-43140508D03*
%TD*%
D46*
%TO.C,U1*%
X70558275Y-64986508D03*
X70558275Y-65486508D03*
X70558275Y-65986508D03*
X70558275Y-66486508D03*
X70558275Y-66986508D03*
X70558275Y-67486508D03*
X70558275Y-67986508D03*
X70558275Y-68486508D03*
X70558275Y-68986508D03*
X70558275Y-69486508D03*
X70558275Y-69986508D03*
D47*
X69483275Y-70386508D03*
X68983275Y-70386508D03*
X68483275Y-70386508D03*
X67983275Y-70386508D03*
D46*
X66908275Y-69986508D03*
X66908275Y-69486508D03*
X66908275Y-68986508D03*
X66908275Y-68486508D03*
X66908275Y-67986508D03*
X66908275Y-67486508D03*
X66908275Y-66986508D03*
X66908275Y-66486508D03*
X66908275Y-65986508D03*
X66908275Y-65486508D03*
X66908275Y-64986508D03*
D47*
X67983275Y-64586508D03*
X68483275Y-64586508D03*
X68983275Y-64586508D03*
X69483275Y-64586508D03*
D48*
X68733275Y-67486508D03*
%TD*%
D49*
%TO.C,C37*%
X70558275Y-45086508D03*
X73508275Y-45086508D03*
%TD*%
D34*
%TO.C,C56*%
X111033275Y-68511508D03*
X111033275Y-71461508D03*
%TD*%
D28*
%TO.C,C4*%
X81983275Y-57386508D03*
X83883275Y-57386508D03*
%TD*%
D50*
%TO.C,U8*%
X72463275Y-34191508D03*
X72463275Y-32921508D03*
X72463275Y-31651508D03*
X72463275Y-30381508D03*
X77403275Y-30381508D03*
X77403275Y-31651508D03*
X77403275Y-32921508D03*
X77403275Y-34191508D03*
%TD*%
D30*
%TO.C,C66*%
X94174275Y-62528508D03*
X94174275Y-64428508D03*
%TD*%
G36*
X36811980Y-31102383D02*
G01*
X36871480Y-31114218D01*
X36916179Y-31132732D01*
X36956268Y-31159518D01*
X36990481Y-31193731D01*
X37017267Y-31233820D01*
X37035781Y-31278517D01*
X37047617Y-31338017D01*
X37050000Y-31362210D01*
X37050000Y-31999032D01*
X37030315Y-32066071D01*
X36977511Y-32111826D01*
X36965775Y-32115616D01*
X36956799Y-32119334D01*
X36874395Y-32174395D01*
X36819335Y-32256798D01*
X36819333Y-32256802D01*
X36800000Y-32353995D01*
X36800000Y-73750461D01*
X36819333Y-73847654D01*
X36819335Y-73847658D01*
X36874395Y-73930061D01*
X36956799Y-73985122D01*
X36968084Y-73989797D01*
X36966936Y-73992567D01*
X37012097Y-74016187D01*
X37046675Y-74076901D01*
X37050000Y-74105425D01*
X37050000Y-74687789D01*
X37047617Y-74711982D01*
X37035781Y-74771482D01*
X37017267Y-74816179D01*
X36990481Y-74856268D01*
X36956268Y-74890481D01*
X36916179Y-74917267D01*
X36871482Y-74935781D01*
X36811982Y-74947617D01*
X36787789Y-74950000D01*
X35674000Y-74950000D01*
X35606961Y-74930315D01*
X35561206Y-74877511D01*
X35550000Y-74826000D01*
X35550000Y-31224000D01*
X35569685Y-31156961D01*
X35622489Y-31111206D01*
X35674000Y-31100000D01*
X36787789Y-31100000D01*
X36811980Y-31102383D01*
G37*
G36*
X158943039Y-31469685D02*
G01*
X158988794Y-31522489D01*
X159000000Y-31574000D01*
X159000000Y-74826000D01*
X158980315Y-74893039D01*
X158927511Y-74938794D01*
X158876000Y-74950000D01*
X157762211Y-74950000D01*
X157738019Y-74947617D01*
X157678518Y-74935781D01*
X157633820Y-74917267D01*
X157593731Y-74890481D01*
X157559518Y-74856268D01*
X157532732Y-74816179D01*
X157514218Y-74771480D01*
X157502383Y-74711980D01*
X157500000Y-74687789D01*
X157500000Y-74105425D01*
X157519685Y-74038386D01*
X157572489Y-73992631D01*
X157584218Y-73988843D01*
X157593200Y-73985122D01*
X157675604Y-73930061D01*
X157730664Y-73847658D01*
X157730666Y-73847654D01*
X157749999Y-73750461D01*
X157750000Y-73750459D01*
X157750000Y-32353997D01*
X157749999Y-32353995D01*
X157730666Y-32256802D01*
X157730664Y-32256798D01*
X157675604Y-32174395D01*
X157593200Y-32119334D01*
X157581920Y-32114662D01*
X157583066Y-32111892D01*
X157537891Y-32088257D01*
X157503321Y-32027539D01*
X157500000Y-31999032D01*
X157500000Y-31712210D01*
X157502383Y-31688019D01*
X157514218Y-31628519D01*
X157532732Y-31583820D01*
X157559518Y-31543731D01*
X157593731Y-31509518D01*
X157633820Y-31482732D01*
X157678520Y-31464217D01*
X157738021Y-31452382D01*
X157762211Y-31450000D01*
X158876000Y-31450000D01*
X158943039Y-31469685D01*
G37*
G36*
X37466071Y-79769685D02*
G01*
X37511826Y-79822489D01*
X37515613Y-79834218D01*
X37519334Y-79843200D01*
X37574395Y-79925604D01*
X37656798Y-79980664D01*
X37656802Y-79980666D01*
X37753995Y-79999999D01*
X37753998Y-80000000D01*
X156796002Y-80000000D01*
X156796004Y-79999999D01*
X156893197Y-79980666D01*
X156893201Y-79980664D01*
X156975604Y-79925604D01*
X157030665Y-79843200D01*
X157035340Y-79831916D01*
X157038110Y-79833063D01*
X157061730Y-79787903D01*
X157122444Y-79753325D01*
X157150968Y-79750000D01*
X158738661Y-79750000D01*
X158805700Y-79769685D01*
X158851455Y-79822489D01*
X158861399Y-79891647D01*
X158855702Y-79914955D01*
X158779108Y-80133846D01*
X158777915Y-80137109D01*
X158774692Y-80145553D01*
X158772030Y-80151981D01*
X158768351Y-80160203D01*
X158766885Y-80163359D01*
X158634678Y-80437888D01*
X158633129Y-80440993D01*
X158628990Y-80449006D01*
X158625624Y-80455097D01*
X158621038Y-80462872D01*
X158619227Y-80465846D01*
X158457114Y-80723846D01*
X158455226Y-80726759D01*
X158450228Y-80734240D01*
X158446194Y-80739925D01*
X158440737Y-80747175D01*
X158438613Y-80749917D01*
X158248692Y-80988073D01*
X158246483Y-80990764D01*
X158240625Y-80997701D01*
X158235988Y-81002889D01*
X158229795Y-81009439D01*
X158227374Y-81011929D01*
X158011929Y-81227374D01*
X158009439Y-81229795D01*
X158002889Y-81235988D01*
X157997701Y-81240625D01*
X157990764Y-81246483D01*
X157988073Y-81248692D01*
X157749917Y-81438613D01*
X157747175Y-81440737D01*
X157739925Y-81446194D01*
X157734240Y-81450228D01*
X157726759Y-81455226D01*
X157723846Y-81457114D01*
X157465846Y-81619227D01*
X157462872Y-81621038D01*
X157455097Y-81625624D01*
X157449006Y-81628990D01*
X157440993Y-81633129D01*
X157437888Y-81634678D01*
X157163359Y-81766885D01*
X157160203Y-81768351D01*
X157151981Y-81772030D01*
X157145553Y-81774692D01*
X157137109Y-81777915D01*
X157133846Y-81779108D01*
X156846282Y-81879732D01*
X156842968Y-81880840D01*
X156834352Y-81883585D01*
X156827689Y-81885504D01*
X156818941Y-81887761D01*
X156815556Y-81888584D01*
X156518505Y-81956384D01*
X156515103Y-81957110D01*
X156506265Y-81958868D01*
X156499412Y-81960033D01*
X156490461Y-81961297D01*
X156487007Y-81961735D01*
X156182258Y-81996072D01*
X156179219Y-81996377D01*
X156171360Y-81997067D01*
X156165304Y-81997449D01*
X156157387Y-81997755D01*
X156154336Y-81997836D01*
X156001953Y-81999972D01*
X156001525Y-81999977D01*
X156000389Y-81999989D01*
X155999585Y-81999995D01*
X155998605Y-81999999D01*
X155998099Y-82000000D01*
X38501901Y-82000000D01*
X38501395Y-81999999D01*
X38500414Y-81999995D01*
X38499610Y-81999989D01*
X38498474Y-81999977D01*
X38498046Y-81999972D01*
X38345663Y-81997836D01*
X38342612Y-81997755D01*
X38334695Y-81997449D01*
X38328639Y-81997067D01*
X38320780Y-81996377D01*
X38317741Y-81996072D01*
X38012992Y-81961735D01*
X38009538Y-81961297D01*
X38000587Y-81960033D01*
X37993734Y-81958868D01*
X37984896Y-81957110D01*
X37981494Y-81956384D01*
X37684443Y-81888584D01*
X37681058Y-81887761D01*
X37672310Y-81885504D01*
X37665647Y-81883585D01*
X37657031Y-81880840D01*
X37653717Y-81879732D01*
X37366153Y-81779108D01*
X37362890Y-81777915D01*
X37354446Y-81774692D01*
X37348018Y-81772030D01*
X37339796Y-81768351D01*
X37336640Y-81766885D01*
X37062111Y-81634678D01*
X37059006Y-81633129D01*
X37050993Y-81628990D01*
X37044902Y-81625624D01*
X37037127Y-81621038D01*
X37034153Y-81619227D01*
X36776153Y-81457114D01*
X36773240Y-81455226D01*
X36765759Y-81450228D01*
X36760074Y-81446194D01*
X36752824Y-81440737D01*
X36750082Y-81438613D01*
X36511926Y-81248692D01*
X36509235Y-81246483D01*
X36502298Y-81240625D01*
X36497110Y-81235988D01*
X36490560Y-81229795D01*
X36488070Y-81227374D01*
X36272625Y-81011929D01*
X36270204Y-81009439D01*
X36264011Y-81002889D01*
X36259374Y-80997701D01*
X36253516Y-80990764D01*
X36251307Y-80988072D01*
X36210327Y-80936683D01*
X36183919Y-80871996D01*
X36183275Y-80859372D01*
X36183275Y-80012210D01*
X36185658Y-79988019D01*
X36197493Y-79928519D01*
X36216007Y-79883820D01*
X36242793Y-79843731D01*
X36277006Y-79809518D01*
X36317095Y-79782732D01*
X36361795Y-79764217D01*
X36421296Y-79752382D01*
X36445486Y-79750000D01*
X37399032Y-79750000D01*
X37466071Y-79769685D01*
G37*
G36*
X36766071Y-73774142D02*
G01*
X36811826Y-73826946D01*
X36815613Y-73838675D01*
X36819334Y-73847657D01*
X36874395Y-73930061D01*
X36956798Y-73985121D01*
X36956802Y-73985123D01*
X37053995Y-74004456D01*
X37053998Y-74004457D01*
X37233788Y-74004457D01*
X37257980Y-74006840D01*
X37319011Y-74018980D01*
X37363708Y-74037494D01*
X37405095Y-74065147D01*
X37439309Y-74099361D01*
X37466962Y-74140748D01*
X37485476Y-74185444D01*
X37497617Y-74246476D01*
X37500000Y-74270669D01*
X37500000Y-79746004D01*
X37519333Y-79843197D01*
X37519335Y-79843201D01*
X37574395Y-79925604D01*
X37656799Y-79980665D01*
X37668084Y-79985340D01*
X37666936Y-79988110D01*
X37712097Y-80011730D01*
X37746675Y-80072444D01*
X37750000Y-80100968D01*
X37750000Y-81738661D01*
X37730315Y-81805700D01*
X37677511Y-81851455D01*
X37608353Y-81861399D01*
X37585045Y-81855702D01*
X37366153Y-81779108D01*
X37362890Y-81777915D01*
X37354446Y-81774692D01*
X37348018Y-81772030D01*
X37339796Y-81768351D01*
X37336640Y-81766885D01*
X37062111Y-81634678D01*
X37059006Y-81633129D01*
X37050993Y-81628990D01*
X37044902Y-81625624D01*
X37037127Y-81621038D01*
X37034153Y-81619227D01*
X36776153Y-81457114D01*
X36773240Y-81455226D01*
X36765759Y-81450228D01*
X36760074Y-81446194D01*
X36752824Y-81440737D01*
X36750082Y-81438613D01*
X36511926Y-81248692D01*
X36509235Y-81246483D01*
X36502298Y-81240625D01*
X36497110Y-81235988D01*
X36490560Y-81229795D01*
X36488070Y-81227374D01*
X36272625Y-81011929D01*
X36270204Y-81009439D01*
X36264011Y-81002889D01*
X36259374Y-80997701D01*
X36253516Y-80990764D01*
X36251307Y-80988073D01*
X36061386Y-80749917D01*
X36059262Y-80747175D01*
X36053805Y-80739925D01*
X36049771Y-80734240D01*
X36044773Y-80726759D01*
X36042885Y-80723846D01*
X35880772Y-80465846D01*
X35878961Y-80462872D01*
X35874375Y-80455097D01*
X35871009Y-80449006D01*
X35866870Y-80440993D01*
X35865321Y-80437888D01*
X35733114Y-80163359D01*
X35731648Y-80160203D01*
X35727969Y-80151981D01*
X35725307Y-80145553D01*
X35722084Y-80137109D01*
X35720891Y-80133846D01*
X35620267Y-79846282D01*
X35619159Y-79842968D01*
X35616414Y-79834352D01*
X35614495Y-79827689D01*
X35612238Y-79818941D01*
X35611415Y-79815556D01*
X35557141Y-79577768D01*
X35555784Y-79570945D01*
X35552763Y-79553164D01*
X35551206Y-79539342D01*
X35550195Y-79521327D01*
X35550000Y-79514379D01*
X35550000Y-73878457D01*
X35569685Y-73811418D01*
X35622489Y-73765663D01*
X35674000Y-73754457D01*
X36699032Y-73754457D01*
X36766071Y-73774142D01*
G37*
G36*
X158943039Y-73774142D02*
G01*
X158988794Y-73826946D01*
X159000000Y-73878457D01*
X159000000Y-78998220D01*
X158999999Y-78998797D01*
X158999995Y-78999656D01*
X158999989Y-79000389D01*
X158999977Y-79001525D01*
X158999972Y-79001953D01*
X158997836Y-79154336D01*
X158997755Y-79157387D01*
X158997449Y-79165304D01*
X158997067Y-79171360D01*
X158996377Y-79179219D01*
X158996072Y-79182258D01*
X158961735Y-79487007D01*
X158961297Y-79490461D01*
X158960033Y-79499412D01*
X158958868Y-79506265D01*
X158957110Y-79515103D01*
X158956384Y-79518505D01*
X158888584Y-79815556D01*
X158887761Y-79818941D01*
X158885504Y-79827689D01*
X158883585Y-79834352D01*
X158880840Y-79842968D01*
X158879732Y-79846282D01*
X158779108Y-80133846D01*
X158777915Y-80137109D01*
X158774692Y-80145553D01*
X158772030Y-80151981D01*
X158768351Y-80160203D01*
X158766885Y-80163359D01*
X158634678Y-80437888D01*
X158633129Y-80440993D01*
X158628990Y-80449006D01*
X158625624Y-80455097D01*
X158621038Y-80462872D01*
X158619227Y-80465846D01*
X158457114Y-80723846D01*
X158455226Y-80726759D01*
X158450228Y-80734240D01*
X158446194Y-80739925D01*
X158440737Y-80747175D01*
X158438613Y-80749917D01*
X158248692Y-80988073D01*
X158246483Y-80990764D01*
X158240625Y-80997701D01*
X158235988Y-81002889D01*
X158229795Y-81009439D01*
X158227374Y-81011929D01*
X158011929Y-81227374D01*
X158009439Y-81229795D01*
X158002889Y-81235988D01*
X157997701Y-81240625D01*
X157990764Y-81246483D01*
X157988073Y-81248692D01*
X157749917Y-81438613D01*
X157747175Y-81440737D01*
X157739925Y-81446194D01*
X157734240Y-81450228D01*
X157726759Y-81455226D01*
X157723846Y-81457114D01*
X157465846Y-81619227D01*
X157462872Y-81621038D01*
X157455097Y-81625624D01*
X157449006Y-81628990D01*
X157440993Y-81633129D01*
X157437888Y-81634678D01*
X157163359Y-81766885D01*
X157160203Y-81768351D01*
X157151981Y-81772030D01*
X157145553Y-81774692D01*
X157137109Y-81777915D01*
X157133846Y-81779108D01*
X156964955Y-81838206D01*
X156895176Y-81841768D01*
X156834549Y-81807040D01*
X156802321Y-81745046D01*
X156800000Y-81721165D01*
X156800000Y-80100968D01*
X156819685Y-80033929D01*
X156872489Y-79988174D01*
X156884218Y-79984386D01*
X156893200Y-79980665D01*
X156975604Y-79925604D01*
X157030664Y-79843201D01*
X157030666Y-79843197D01*
X157049999Y-79746004D01*
X157050000Y-79746002D01*
X157050000Y-74270669D01*
X157052383Y-74246478D01*
X157064523Y-74185446D01*
X157083037Y-74140748D01*
X157110690Y-74099361D01*
X157144904Y-74065147D01*
X157186291Y-74037494D01*
X157230989Y-74018980D01*
X157292021Y-74006840D01*
X157316212Y-74004457D01*
X157496002Y-74004457D01*
X157496004Y-74004456D01*
X157593197Y-73985123D01*
X157593201Y-73985121D01*
X157675604Y-73930061D01*
X157730665Y-73847657D01*
X157735340Y-73836373D01*
X157738110Y-73837520D01*
X157761730Y-73792360D01*
X157822444Y-73757782D01*
X157850968Y-73754457D01*
X158876000Y-73754457D01*
X158943039Y-73774142D01*
G37*
G36*
X155998479Y-24000001D02*
G01*
X155999459Y-24000004D01*
X156000389Y-24000010D01*
X156001525Y-24000022D01*
X156001953Y-24000027D01*
X156154336Y-24002163D01*
X156157387Y-24002244D01*
X156165304Y-24002550D01*
X156171360Y-24002932D01*
X156179219Y-24003622D01*
X156182258Y-24003927D01*
X156487007Y-24038264D01*
X156490461Y-24038702D01*
X156499412Y-24039966D01*
X156506265Y-24041131D01*
X156515103Y-24042889D01*
X156518505Y-24043615D01*
X156815556Y-24111415D01*
X156818941Y-24112238D01*
X156827689Y-24114495D01*
X156834352Y-24116414D01*
X156842968Y-24119159D01*
X156846282Y-24120267D01*
X157133846Y-24220891D01*
X157137109Y-24222084D01*
X157145553Y-24225307D01*
X157151981Y-24227969D01*
X157160203Y-24231648D01*
X157163359Y-24233114D01*
X157437888Y-24365321D01*
X157440993Y-24366870D01*
X157449006Y-24371009D01*
X157455097Y-24374375D01*
X157462872Y-24378961D01*
X157465846Y-24380772D01*
X157723846Y-24542885D01*
X157726759Y-24544773D01*
X157734240Y-24549771D01*
X157739925Y-24553805D01*
X157747175Y-24559262D01*
X157749917Y-24561386D01*
X157988073Y-24751307D01*
X157990764Y-24753516D01*
X157997701Y-24759374D01*
X158002889Y-24764011D01*
X158009439Y-24770204D01*
X158011929Y-24772625D01*
X158227374Y-24988070D01*
X158229795Y-24990560D01*
X158235988Y-24997110D01*
X158240625Y-25002298D01*
X158246483Y-25009235D01*
X158248692Y-25011926D01*
X158438613Y-25250082D01*
X158440737Y-25252824D01*
X158446194Y-25260074D01*
X158450228Y-25265759D01*
X158455226Y-25273240D01*
X158457114Y-25276153D01*
X158619227Y-25534153D01*
X158621038Y-25537127D01*
X158625624Y-25544902D01*
X158628990Y-25550993D01*
X158633129Y-25559006D01*
X158634678Y-25562111D01*
X158766885Y-25836640D01*
X158768351Y-25839796D01*
X158772030Y-25848018D01*
X158774692Y-25854446D01*
X158777915Y-25862890D01*
X158779109Y-25866153D01*
X158838207Y-26035045D01*
X158841768Y-26104824D01*
X158807039Y-26165452D01*
X158745046Y-26197679D01*
X158721165Y-26200000D01*
X157150968Y-26200000D01*
X157083929Y-26180315D01*
X157038174Y-26127511D01*
X157034386Y-26115781D01*
X157030665Y-26106799D01*
X156975604Y-26024395D01*
X156893201Y-25969335D01*
X156893197Y-25969333D01*
X156796003Y-25950000D01*
X37753997Y-25950000D01*
X37656802Y-25969333D01*
X37656798Y-25969335D01*
X37574395Y-26024395D01*
X37519334Y-26106799D01*
X37514660Y-26118084D01*
X37511889Y-26116936D01*
X37488270Y-26162097D01*
X37427556Y-26196675D01*
X37399032Y-26200000D01*
X35778835Y-26200000D01*
X35711796Y-26180315D01*
X35666041Y-26127511D01*
X35656097Y-26058353D01*
X35661793Y-26035046D01*
X35720890Y-25866154D01*
X35722084Y-25862890D01*
X35725307Y-25854446D01*
X35727969Y-25848018D01*
X35731648Y-25839796D01*
X35733114Y-25836640D01*
X35865321Y-25562111D01*
X35866870Y-25559006D01*
X35871009Y-25550993D01*
X35874375Y-25544902D01*
X35878961Y-25537127D01*
X35880772Y-25534153D01*
X36042885Y-25276153D01*
X36044773Y-25273240D01*
X36049771Y-25265759D01*
X36053805Y-25260074D01*
X36059262Y-25252824D01*
X36061386Y-25250082D01*
X36251307Y-25011926D01*
X36253516Y-25009235D01*
X36259374Y-25002298D01*
X36264011Y-24997110D01*
X36270204Y-24990560D01*
X36272625Y-24988070D01*
X36488070Y-24772625D01*
X36490560Y-24770204D01*
X36497110Y-24764011D01*
X36502298Y-24759374D01*
X36509235Y-24753516D01*
X36511926Y-24751307D01*
X36750082Y-24561386D01*
X36752824Y-24559262D01*
X36760074Y-24553805D01*
X36765759Y-24549771D01*
X36773240Y-24544773D01*
X36776153Y-24542885D01*
X37034153Y-24380772D01*
X37037127Y-24378961D01*
X37044902Y-24374375D01*
X37050993Y-24371009D01*
X37059006Y-24366870D01*
X37062111Y-24365321D01*
X37336640Y-24233114D01*
X37339796Y-24231648D01*
X37348018Y-24227969D01*
X37354446Y-24225307D01*
X37362890Y-24222084D01*
X37366153Y-24220891D01*
X37653717Y-24120267D01*
X37657031Y-24119159D01*
X37665647Y-24116414D01*
X37672310Y-24114495D01*
X37681058Y-24112238D01*
X37684443Y-24111415D01*
X37981494Y-24043615D01*
X37984896Y-24042889D01*
X37993734Y-24041131D01*
X38000587Y-24039966D01*
X38009538Y-24038702D01*
X38012992Y-24038264D01*
X38317741Y-24003927D01*
X38320780Y-24003622D01*
X38328639Y-24002932D01*
X38334695Y-24002550D01*
X38342612Y-24002244D01*
X38345663Y-24002163D01*
X38498046Y-24000027D01*
X38498474Y-24000022D01*
X38499610Y-24000010D01*
X38500541Y-24000004D01*
X38501522Y-24000001D01*
X38501901Y-24000000D01*
X155998099Y-24000000D01*
X155998479Y-24000001D01*
G37*
G36*
X37715451Y-24175463D02*
G01*
X37747679Y-24237457D01*
X37750000Y-24261338D01*
X37750000Y-25849032D01*
X37730315Y-25916071D01*
X37677511Y-25961826D01*
X37665775Y-25965616D01*
X37656799Y-25969334D01*
X37574395Y-26024395D01*
X37519335Y-26106798D01*
X37519333Y-26106802D01*
X37500000Y-26203995D01*
X37500000Y-31833787D01*
X37497617Y-31857980D01*
X37485476Y-31919012D01*
X37466962Y-31963708D01*
X37439309Y-32005095D01*
X37405095Y-32039309D01*
X37363708Y-32066962D01*
X37319012Y-32085476D01*
X37257981Y-32097617D01*
X37233788Y-32100000D01*
X37053997Y-32100000D01*
X36956802Y-32119333D01*
X36956798Y-32119335D01*
X36874395Y-32174395D01*
X36819334Y-32256799D01*
X36814660Y-32268084D01*
X36811889Y-32266936D01*
X36788270Y-32312097D01*
X36727556Y-32346675D01*
X36699032Y-32350000D01*
X35674000Y-32350000D01*
X35606961Y-32330315D01*
X35561206Y-32277511D01*
X35550000Y-32226000D01*
X35550000Y-26485619D01*
X35550195Y-26478671D01*
X35551206Y-26460656D01*
X35552763Y-26446834D01*
X35555784Y-26429053D01*
X35557141Y-26422230D01*
X35611415Y-26184443D01*
X35612238Y-26181058D01*
X35614495Y-26172310D01*
X35616414Y-26165647D01*
X35619159Y-26157031D01*
X35620267Y-26153717D01*
X35720891Y-25866153D01*
X35722084Y-25862890D01*
X35725307Y-25854446D01*
X35727969Y-25848018D01*
X35731648Y-25839796D01*
X35733114Y-25836640D01*
X35865321Y-25562111D01*
X35866870Y-25559006D01*
X35871009Y-25550993D01*
X35874375Y-25544902D01*
X35878961Y-25537127D01*
X35880772Y-25534153D01*
X36042885Y-25276153D01*
X36044773Y-25273240D01*
X36049771Y-25265759D01*
X36053805Y-25260074D01*
X36059262Y-25252824D01*
X36061386Y-25250082D01*
X36251307Y-25011926D01*
X36253516Y-25009235D01*
X36259374Y-25002298D01*
X36264011Y-24997110D01*
X36270204Y-24990560D01*
X36272625Y-24988070D01*
X36488070Y-24772625D01*
X36490560Y-24770204D01*
X36497110Y-24764011D01*
X36502298Y-24759374D01*
X36509235Y-24753516D01*
X36511926Y-24751307D01*
X36750082Y-24561386D01*
X36752824Y-24559262D01*
X36760074Y-24553805D01*
X36765759Y-24549771D01*
X36773240Y-24544773D01*
X36776153Y-24542885D01*
X37034153Y-24380772D01*
X37037127Y-24378961D01*
X37044902Y-24374375D01*
X37050993Y-24371009D01*
X37059006Y-24366870D01*
X37062111Y-24365321D01*
X37336640Y-24233114D01*
X37339796Y-24231648D01*
X37348018Y-24227969D01*
X37354446Y-24225307D01*
X37362890Y-24222084D01*
X37366153Y-24220891D01*
X37585045Y-24144297D01*
X37654824Y-24140735D01*
X37715451Y-24175463D01*
G37*
G36*
X156964955Y-24161793D02*
G01*
X157133846Y-24220891D01*
X157137109Y-24222084D01*
X157145553Y-24225307D01*
X157151981Y-24227969D01*
X157160203Y-24231648D01*
X157163359Y-24233114D01*
X157437888Y-24365321D01*
X157440993Y-24366870D01*
X157449006Y-24371009D01*
X157455097Y-24374375D01*
X157462872Y-24378961D01*
X157465846Y-24380772D01*
X157723846Y-24542885D01*
X157726759Y-24544773D01*
X157734240Y-24549771D01*
X157739925Y-24553805D01*
X157747175Y-24559262D01*
X157749917Y-24561386D01*
X157988073Y-24751307D01*
X157990764Y-24753516D01*
X157997701Y-24759374D01*
X158002889Y-24764011D01*
X158009439Y-24770204D01*
X158011929Y-24772625D01*
X158227374Y-24988070D01*
X158229795Y-24990560D01*
X158235988Y-24997110D01*
X158240625Y-25002298D01*
X158246483Y-25009235D01*
X158248692Y-25011926D01*
X158438613Y-25250082D01*
X158440737Y-25252824D01*
X158446194Y-25260074D01*
X158450228Y-25265759D01*
X158455226Y-25273240D01*
X158457114Y-25276153D01*
X158619227Y-25534153D01*
X158621038Y-25537127D01*
X158625624Y-25544902D01*
X158628990Y-25550993D01*
X158633129Y-25559006D01*
X158634678Y-25562111D01*
X158766885Y-25836640D01*
X158768351Y-25839796D01*
X158772030Y-25848018D01*
X158774692Y-25854446D01*
X158777915Y-25862890D01*
X158779108Y-25866153D01*
X158879732Y-26153717D01*
X158880840Y-26157031D01*
X158883585Y-26165647D01*
X158885504Y-26172310D01*
X158887761Y-26181058D01*
X158888584Y-26184443D01*
X158956384Y-26481494D01*
X158957110Y-26484896D01*
X158958868Y-26493734D01*
X158960033Y-26500587D01*
X158961297Y-26509538D01*
X158961735Y-26512992D01*
X158996072Y-26817741D01*
X158996377Y-26820780D01*
X158997067Y-26828639D01*
X158997449Y-26834695D01*
X158997755Y-26842612D01*
X158997836Y-26845663D01*
X158999972Y-26998046D01*
X158999977Y-26998474D01*
X158999989Y-26999610D01*
X158999995Y-27000343D01*
X158999999Y-27001203D01*
X159000000Y-27001780D01*
X159000000Y-32226000D01*
X158980315Y-32293039D01*
X158927511Y-32338794D01*
X158876000Y-32350000D01*
X157850968Y-32350000D01*
X157783929Y-32330315D01*
X157738174Y-32277511D01*
X157734386Y-32265781D01*
X157730665Y-32256799D01*
X157675604Y-32174395D01*
X157593201Y-32119335D01*
X157593197Y-32119333D01*
X157496003Y-32100000D01*
X157316212Y-32100000D01*
X157292019Y-32097617D01*
X157230987Y-32085476D01*
X157186291Y-32066962D01*
X157144904Y-32039309D01*
X157110690Y-32005095D01*
X157083037Y-31963708D01*
X157064523Y-31919010D01*
X157052383Y-31857978D01*
X157050000Y-31833787D01*
X157050000Y-26203997D01*
X157049999Y-26203995D01*
X157030666Y-26106802D01*
X157030664Y-26106798D01*
X156975604Y-26024395D01*
X156893200Y-25969334D01*
X156881920Y-25964662D01*
X156883066Y-25961892D01*
X156837891Y-25938257D01*
X156803321Y-25877539D01*
X156800000Y-25849032D01*
X156800000Y-24278834D01*
X156819685Y-24211795D01*
X156872489Y-24166040D01*
X156941647Y-24156096D01*
X156964955Y-24161793D01*
G37*
M02*
