%TF.GenerationSoftware,KiCad,Pcbnew,10.0.5*%
%TF.CreationDate,2026-08-23T18:13:50+08:00*%
%TF.ProjectId,BLDC_MC_V1.0,424c4443-5f4d-4435-9f56-312e302e6b69,V1.0*%
%TF.SameCoordinates,Original*%
%TF.FileFunction,Other,User*%
%FSLAX46Y46*%
G04 Gerber Fmt 4.6, Leading zero omitted, Abs format (unit mm)*
G04 Created by KiCad (PCBNEW 10.0.5) date 2026-08-23 18:13:50*
%MOMM*%
%LPD*%
G01*
G04 APERTURE LIST*
%ADD10C,0.050000*%
%ADD11C,0.152400*%
G04 APERTURE END LIST*
%TO.C,J5*%
D10*
X148433275Y-31536508D02*
X148433275Y-45936508D01*
X148433275Y-45936508D02*
X156533275Y-45936508D01*
X156533275Y-31536508D02*
X148433275Y-31536508D01*
X156533275Y-45936508D02*
X156533275Y-31536508D01*
%TO.C,R44*%
X74052275Y-42950508D02*
X75512275Y-42950508D01*
X75512275Y-45910508D01*
X74052275Y-45910508D01*
X74052275Y-42950508D01*
%TO.C,CR3*%
D11*
X81077675Y-70176308D02*
X81881575Y-70176308D01*
X81077675Y-71090708D02*
X81077675Y-70176308D01*
X81077675Y-71090708D02*
X81881575Y-71090708D01*
X81881575Y-69706408D02*
X84192975Y-69706408D01*
X81881575Y-70176308D02*
X81881575Y-69706408D01*
X81881575Y-71560608D02*
X81881575Y-71090708D01*
X84192975Y-69706408D02*
X84192975Y-70176308D01*
X84192975Y-71090708D02*
X84192975Y-71560608D01*
X84192975Y-71560608D02*
X81881575Y-71560608D01*
X84996875Y-70176308D02*
X84192975Y-70176308D01*
X84996875Y-70176308D02*
X84996875Y-71090708D01*
X84996875Y-71090708D02*
X84192975Y-71090708D01*
%TO.C,C16*%
D10*
X71853275Y-34920508D02*
X74813275Y-34920508D01*
X74813275Y-36380508D01*
X71853275Y-36380508D01*
X71853275Y-34920508D01*
%TO.C,C41*%
X93802981Y-52713178D02*
X91709945Y-54806214D01*
X90677569Y-53773838D01*
X92770605Y-51680802D01*
X93802981Y-52713178D01*
%TO.C,R14*%
X71803275Y-28606508D02*
X73263275Y-28606508D01*
X73263275Y-31566508D01*
X71803275Y-31566508D01*
X71803275Y-28606508D01*
%TO.C,Q3*%
D11*
X108390850Y-29599808D02*
X108707700Y-29599808D01*
X108390850Y-34451208D02*
X108390850Y-29599808D01*
X108390850Y-34451208D02*
X108707700Y-34451208D01*
X108707700Y-29269608D02*
X115210100Y-29269608D01*
X108707700Y-29599808D02*
X108707700Y-29269608D01*
X108707700Y-34781408D02*
X108707700Y-34451208D01*
X115210100Y-29269608D02*
X115210100Y-29599808D01*
X115210100Y-34451208D02*
X115210100Y-34781408D01*
X115210100Y-34781408D02*
X108707700Y-34781408D01*
X115526950Y-29599808D02*
X115210100Y-29599808D01*
X115526950Y-29599808D02*
X115526950Y-34451208D01*
X115526950Y-34451208D02*
X115210100Y-34451208D01*
%TO.C,C11*%
D10*
X88757275Y-32384508D02*
X92157275Y-32384508D01*
X92157275Y-34344508D01*
X88757275Y-34344508D01*
X88757275Y-32384508D01*
%TO.C,J8*%
D11*
X36665575Y-50072208D02*
X36665575Y-62492808D01*
X36665575Y-62492808D02*
X46808175Y-62492808D01*
X46808175Y-50072208D02*
X36665575Y-50072208D01*
X46808175Y-62492808D02*
X46808175Y-50072208D01*
%TO.C,FB1*%
D10*
X59339275Y-44415508D02*
X62299275Y-44415508D01*
X62299275Y-45875508D01*
X59339275Y-45875508D01*
X59339275Y-44415508D01*
%TO.C,Q2*%
D11*
X108390850Y-46490808D02*
X108707700Y-46490808D01*
X108390850Y-51342208D02*
X108390850Y-46490808D01*
X108390850Y-51342208D02*
X108707700Y-51342208D01*
X108707700Y-46160608D02*
X115210100Y-46160608D01*
X108707700Y-46490808D02*
X108707700Y-46160608D01*
X108707700Y-51672408D02*
X108707700Y-51342208D01*
X115210100Y-46160608D02*
X115210100Y-46490808D01*
X115210100Y-51342208D02*
X115210100Y-51672408D01*
X115210100Y-51672408D02*
X108707700Y-51672408D01*
X115526950Y-46490808D02*
X115210100Y-46490808D01*
X115526950Y-46490808D02*
X115526950Y-51342208D01*
X115526950Y-51342208D02*
X115210100Y-51342208D01*
%TO.C,R76*%
D10*
X132669275Y-33086508D02*
X136529275Y-33086508D01*
X136529275Y-41086508D01*
X132669275Y-41086508D01*
X132669275Y-33086508D01*
%TO.C,R26*%
X82515275Y-46916508D02*
X85475275Y-46916508D01*
X85475275Y-48376508D01*
X82515275Y-48376508D01*
X82515275Y-46916508D01*
%TO.C,Q7*%
D11*
X53346475Y-28160808D02*
X53663325Y-28160808D01*
X53346475Y-33012208D02*
X53346475Y-28160808D01*
X53346475Y-33012208D02*
X53663325Y-33012208D01*
X53663325Y-27830608D02*
X60165725Y-27830608D01*
X53663325Y-28160808D02*
X53663325Y-27830608D01*
X53663325Y-33342408D02*
X53663325Y-33012208D01*
X60165725Y-27830608D02*
X60165725Y-28160808D01*
X60165725Y-33012208D02*
X60165725Y-33342408D01*
X60165725Y-33342408D02*
X53663325Y-33342408D01*
X60482575Y-28160808D02*
X60165725Y-28160808D01*
X60482575Y-28160808D02*
X60482575Y-33012208D01*
X60482575Y-33012208D02*
X60165725Y-33012208D01*
%TO.C,R78*%
D10*
X58005275Y-54864508D02*
X60965275Y-54864508D01*
X60965275Y-56324508D01*
X58005275Y-56324508D01*
X58005275Y-54864508D01*
%TO.C,R81*%
X69579276Y-42934508D02*
X71039276Y-42934508D01*
X71039276Y-45894508D01*
X69579276Y-45894508D01*
X69579276Y-42934508D01*
%TO.C,R11*%
X73205274Y-62706508D02*
X74665274Y-62706508D01*
X74665274Y-65666508D01*
X73205274Y-65666508D01*
X73205274Y-62706508D01*
%TO.C,C82*%
X126276275Y-38964508D02*
X130876275Y-38964508D01*
X130876275Y-41264508D01*
X126276275Y-41264508D01*
X126276275Y-38964508D01*
%TO.C,R25*%
X90525308Y-39479802D02*
X92618344Y-41572838D01*
X91585968Y-42605214D01*
X89492932Y-40512178D01*
X90525308Y-39479802D01*
%TO.C,R27*%
X87840981Y-46316838D02*
X86808605Y-47349214D01*
X84715569Y-45256178D01*
X85747945Y-44223802D01*
X87840981Y-46316838D01*
%TO.C,C25*%
X74810274Y-62695508D02*
X79410274Y-62695508D01*
X79410274Y-64995508D01*
X74810274Y-64995508D01*
X74810274Y-62695508D01*
%TO.C,C73*%
X66908275Y-41356508D02*
X69208275Y-41356508D01*
X69208275Y-45956508D01*
X66908275Y-45956508D01*
X66908275Y-41356508D01*
%TO.C,C12*%
X88782275Y-30028508D02*
X93402275Y-30028508D01*
X93402275Y-32128508D01*
X88782275Y-32128508D01*
X88782275Y-30028508D01*
%TO.C,Y1*%
X81502275Y-54402508D02*
X85602275Y-54402508D01*
X81502275Y-57802508D02*
X81502275Y-54402508D01*
X85602275Y-54402508D02*
X85602275Y-57802508D01*
X85602275Y-57802508D02*
X81502275Y-57802508D01*
%TO.C,R79*%
X58005275Y-56388508D02*
X60965275Y-56388508D01*
X60965275Y-57848508D01*
X58005275Y-57848508D01*
X58005275Y-56388508D01*
%TO.C,R40*%
X66277276Y-62817508D02*
X67737276Y-62817508D01*
X67737276Y-65777508D01*
X66277276Y-65777508D01*
X66277276Y-62817508D01*
%TO.C,C1*%
X79858275Y-54534508D02*
X81318275Y-54534508D01*
X81318275Y-57494508D01*
X79858275Y-57494508D01*
X79858275Y-54534508D01*
%TO.C,CR4*%
D11*
X81077675Y-74494308D02*
X81881575Y-74494308D01*
X81077675Y-75408708D02*
X81077675Y-74494308D01*
X81077675Y-75408708D02*
X81881575Y-75408708D01*
X81881575Y-74024408D02*
X84192975Y-74024408D01*
X81881575Y-74494308D02*
X81881575Y-74024408D01*
X81881575Y-75878608D02*
X81881575Y-75408708D01*
X84192975Y-74024408D02*
X84192975Y-74494308D01*
X84192975Y-75408708D02*
X84192975Y-75878608D01*
X84192975Y-75878608D02*
X81881575Y-75878608D01*
X84996875Y-74494308D02*
X84192975Y-74494308D01*
X84996875Y-74494308D02*
X84996875Y-75408708D01*
X84996875Y-75408708D02*
X84192975Y-75408708D01*
D10*
%TO.C,C44*%
X91371229Y-37993391D02*
X92757158Y-36607462D01*
X95161321Y-39011625D01*
X93775392Y-40397554D01*
X91371229Y-37993391D01*
%TO.C,C51*%
X84958276Y-61083508D02*
X87918276Y-61083508D01*
X87918276Y-62543508D01*
X84958276Y-62543508D01*
X84958276Y-61083508D01*
%TO.C,FB2*%
X87520569Y-54706178D02*
X88552945Y-53673802D01*
X90645981Y-55766838D01*
X89613605Y-56799214D01*
X87520569Y-54706178D01*
%TO.C,R33*%
X79962276Y-52724508D02*
X82922276Y-52724508D01*
X82922276Y-54184508D01*
X79962276Y-54184508D01*
X79962276Y-52724508D01*
%TO.C,U2*%
X80528275Y-34289008D02*
X80528275Y-28884008D01*
X87938275Y-28884008D02*
X80528275Y-28884008D01*
X87938275Y-34289008D02*
X80528275Y-34289008D01*
X87938275Y-34289008D02*
X87938275Y-28884008D01*
%TO.C,C76*%
X72782275Y-71947508D02*
X74242275Y-71947508D01*
X74242275Y-74907508D01*
X72782275Y-74907508D01*
X72782275Y-71947508D01*
%TO.C,H4*%
X158450000Y-27000000D02*
G75*
G02*
X153550000Y-27000000I-2450000J0D01*
G01*
X153550000Y-27000000D02*
G75*
G02*
X158450000Y-27000000I2450000J0D01*
G01*
%TO.C,R24*%
X88589605Y-47607802D02*
X89621981Y-48640178D01*
X87528945Y-50733214D01*
X86496569Y-49700838D01*
X88589605Y-47607802D01*
%TO.C,C24*%
X76603275Y-47290508D02*
X78563275Y-47290508D01*
X78563275Y-50690508D01*
X76603275Y-50690508D01*
X76603275Y-47290508D01*
%TO.C,U16*%
D11*
X56024875Y-34921108D02*
X57485375Y-34921108D01*
X56024875Y-39797908D02*
X56024875Y-34921108D01*
X56024875Y-39797908D02*
X57485375Y-39797908D01*
X57485375Y-34603608D02*
X61981175Y-34603608D01*
X57485375Y-34921108D02*
X57485375Y-34603608D01*
X57485375Y-40115408D02*
X57485375Y-39797908D01*
X61981175Y-34603608D02*
X61981175Y-34921108D01*
X61981175Y-39797908D02*
X61981175Y-40115408D01*
X61981175Y-40115408D02*
X57485375Y-40115408D01*
X63441675Y-34921108D02*
X61981175Y-34921108D01*
X63441675Y-34921108D02*
X63441675Y-39797908D01*
X63441675Y-39797908D02*
X61981175Y-39797908D01*
%TO.C,H2*%
D10*
X40950000Y-27000000D02*
G75*
G02*
X36050000Y-27000000I-2450000J0D01*
G01*
X36050000Y-27000000D02*
G75*
G02*
X40950000Y-27000000I2450000J0D01*
G01*
%TO.C,C90*%
X48190275Y-27997508D02*
X51590275Y-27997508D01*
X51590275Y-29957508D01*
X48190275Y-29957508D01*
X48190275Y-27997508D01*
%TO.C,H3*%
X158450000Y-79000000D02*
G75*
G02*
X153550000Y-79000000I-2450000J0D01*
G01*
X153550000Y-79000000D02*
G75*
G02*
X158450000Y-79000000I2450000J0D01*
G01*
%TO.C,CR2*%
D11*
X81077675Y-72335308D02*
X81881575Y-72335308D01*
X81077675Y-73249708D02*
X81077675Y-72335308D01*
X81077675Y-73249708D02*
X81881575Y-73249708D01*
X81881575Y-71865408D02*
X84192975Y-71865408D01*
X81881575Y-72335308D02*
X81881575Y-71865408D01*
X81881575Y-73719608D02*
X81881575Y-73249708D01*
X84192975Y-71865408D02*
X84192975Y-72335308D01*
X84192975Y-73249708D02*
X84192975Y-73719608D01*
X84192975Y-73719608D02*
X81881575Y-73719608D01*
X84996875Y-72335308D02*
X84192975Y-72335308D01*
X84996875Y-72335308D02*
X84996875Y-73249708D01*
X84996875Y-73249708D02*
X84192975Y-73249708D01*
%TO.C,R71*%
D10*
X133133650Y-45665508D02*
X140793650Y-45665508D01*
X140793650Y-49525508D01*
X133133650Y-49525508D01*
X133133650Y-45665508D01*
%TO.C,C14*%
X41200000Y-75400000D02*
X43500000Y-75400000D01*
X43500000Y-80000000D01*
X41200000Y-80000000D01*
X41200000Y-75400000D01*
%TO.C,C22*%
X64157275Y-60498508D02*
X66117275Y-60498508D01*
X66117275Y-63898508D01*
X64157275Y-63898508D01*
X64157275Y-60498508D01*
%TO.C,C87*%
X47259275Y-49586508D02*
X49219275Y-49586508D01*
X49219275Y-52986508D01*
X47259275Y-52986508D01*
X47259275Y-49586508D01*
%TO.C,R32*%
X90560569Y-39369178D02*
X91592945Y-38336802D01*
X93685981Y-40429838D01*
X92653605Y-41462214D01*
X90560569Y-39369178D01*
%TO.C,C57*%
X58562275Y-72616508D02*
X60522275Y-72616508D01*
X60522275Y-76016508D01*
X58562275Y-76016508D01*
X58562275Y-72616508D01*
%TO.C,R29*%
X89040981Y-45116838D02*
X88008605Y-46149214D01*
X85915569Y-44056178D01*
X86947945Y-43023802D01*
X89040981Y-45116838D01*
%TO.C,J3*%
X37673275Y-63408508D02*
X46613275Y-63408508D01*
X46613275Y-74048508D01*
X37673275Y-74048508D01*
X37673275Y-63408508D01*
%TO.C,C80*%
X126733275Y-56200508D02*
X131333275Y-56200508D01*
X131333275Y-58500508D01*
X126733275Y-58500508D01*
X126733275Y-56200508D01*
%TO.C,R13*%
X71803275Y-31630508D02*
X73263275Y-31630508D01*
X73263275Y-34590508D01*
X71803275Y-34590508D01*
X71803275Y-31630508D01*
%TO.C,CR5*%
D11*
X96190675Y-73478308D02*
X96994575Y-73478308D01*
X96190675Y-74392708D02*
X96190675Y-73478308D01*
X96190675Y-74392708D02*
X96994575Y-74392708D01*
X96994575Y-73008408D02*
X99305975Y-73008408D01*
X96994575Y-73478308D02*
X96994575Y-73008408D01*
X96994575Y-74862608D02*
X96994575Y-74392708D01*
X99305975Y-73008408D02*
X99305975Y-73478308D01*
X99305975Y-74392708D02*
X99305975Y-74862608D01*
X99305975Y-74862608D02*
X96994575Y-74862608D01*
X100109875Y-73478308D02*
X99305975Y-73478308D01*
X100109875Y-73478308D02*
X100109875Y-74392708D01*
X100109875Y-74392708D02*
X99305975Y-74392708D01*
%TO.C,C81*%
D10*
X110943636Y-39958508D02*
X115543636Y-39958508D01*
X115543636Y-42258508D01*
X110943636Y-42258508D01*
X110943636Y-39958508D01*
%TO.C,C74*%
X57172275Y-42556508D02*
X59132275Y-42556508D01*
X59132275Y-45956508D01*
X57172275Y-45956508D01*
X57172275Y-42556508D01*
%TO.C,C72*%
X62506275Y-42556508D02*
X64466275Y-42556508D01*
X64466275Y-45956508D01*
X62506275Y-45956508D01*
X62506275Y-42556508D01*
%TO.C,R21*%
X72570274Y-42950508D02*
X74030274Y-42950508D01*
X74030274Y-45910508D01*
X72570274Y-45910508D01*
X72570274Y-42950508D01*
%TO.C,C52*%
X84958276Y-58543508D02*
X87918276Y-58543508D01*
X87918276Y-60003508D01*
X84958276Y-60003508D01*
X84958276Y-58543508D01*
%TO.C,R41*%
X67928276Y-62817508D02*
X69388276Y-62817508D01*
X69388276Y-65777508D01*
X67928276Y-65777508D01*
X67928276Y-62817508D01*
%TO.C,U9*%
X48729275Y-65958508D02*
X49729275Y-65958508D01*
X48729275Y-68958508D02*
X48729275Y-65958508D01*
X49729275Y-65758508D02*
X51829275Y-65758508D01*
X49729275Y-65958508D02*
X49729275Y-65758508D01*
X49729275Y-68958508D02*
X48729275Y-68958508D01*
X49729275Y-69158508D02*
X49729275Y-68958508D01*
X51829275Y-65758508D02*
X51829275Y-65958508D01*
X51829275Y-65958508D02*
X52829275Y-65958508D01*
X51829275Y-68958508D02*
X51829275Y-69158508D01*
X51829275Y-69158508D02*
X49729275Y-69158508D01*
X52829275Y-65958508D02*
X52829275Y-68958508D01*
X52829275Y-68958508D02*
X51829275Y-68958508D01*
%TO.C,C40*%
X103083981Y-53256838D02*
X102051605Y-54289214D01*
X99958569Y-52196178D01*
X100990945Y-51163802D01*
X103083981Y-53256838D01*
%TO.C,R74*%
X133133650Y-28862508D02*
X140793650Y-28862508D01*
X140793650Y-32722508D01*
X133133650Y-32722508D01*
X133133650Y-28862508D01*
%TO.C,Q1*%
D11*
X108390850Y-63381808D02*
X108707700Y-63381808D01*
X108390850Y-68233208D02*
X108390850Y-63381808D01*
X108390850Y-68233208D02*
X108707700Y-68233208D01*
X108707700Y-63051608D02*
X115210100Y-63051608D01*
X108707700Y-63381808D02*
X108707700Y-63051608D01*
X108707700Y-68563408D02*
X108707700Y-68233208D01*
X115210100Y-63051608D02*
X115210100Y-63381808D01*
X115210100Y-68233208D02*
X115210100Y-68563408D01*
X115210100Y-68563408D02*
X108707700Y-68563408D01*
X115526950Y-63381808D02*
X115210100Y-63381808D01*
X115526950Y-63381808D02*
X115526950Y-68233208D01*
X115526950Y-68233208D02*
X115210100Y-68233208D01*
%TO.C,R72*%
D10*
X116569636Y-51086508D02*
X120429636Y-51086508D01*
X120429636Y-59086508D01*
X116569636Y-59086508D01*
X116569636Y-51086508D01*
%TO.C,R67*%
X55771275Y-51765508D02*
X57231275Y-51765508D01*
X57231275Y-54725508D01*
X55771275Y-54725508D01*
X55771275Y-51765508D01*
%TO.C,SW1*%
X60931275Y-70177508D02*
X72631275Y-70177508D01*
X72631275Y-76677508D01*
X60931275Y-76677508D01*
X60931275Y-70177508D01*
%TO.C,R22*%
X132803275Y-67386508D02*
X136663275Y-67386508D01*
X136663275Y-75386508D01*
X132803275Y-75386508D01*
X132803275Y-67386508D01*
%TO.C,R23*%
X89732605Y-48750802D02*
X90764981Y-49783178D01*
X88671945Y-51876214D01*
X87639569Y-50843838D01*
X89732605Y-48750802D01*
%TO.C,C79*%
X110933275Y-57036508D02*
X115533275Y-57036508D01*
X115533275Y-59336508D01*
X110933275Y-59336508D01*
X110933275Y-57036508D01*
%TO.C,Q4*%
D11*
X123865225Y-29560808D02*
X124182075Y-29560808D01*
X123865225Y-34412208D02*
X123865225Y-29560808D01*
X123865225Y-34412208D02*
X124182075Y-34412208D01*
X124182075Y-29230608D02*
X130684475Y-29230608D01*
X124182075Y-29560808D02*
X124182075Y-29230608D01*
X124182075Y-34742408D02*
X124182075Y-34412208D01*
X130684475Y-29230608D02*
X130684475Y-29560808D01*
X130684475Y-34412208D02*
X130684475Y-34742408D01*
X130684475Y-34742408D02*
X124182075Y-34742408D01*
X131001325Y-29560808D02*
X130684475Y-29560808D01*
X131001325Y-29560808D02*
X131001325Y-34412208D01*
X131001325Y-34412208D02*
X130684475Y-34412208D01*
%TO.C,R42*%
D10*
X70157274Y-62690508D02*
X71617274Y-62690508D01*
X71617274Y-65650508D01*
X70157274Y-65650508D01*
X70157274Y-62690508D01*
%TO.C,H1*%
X40950000Y-79000000D02*
G75*
G02*
X36050000Y-79000000I-2450000J0D01*
G01*
X36050000Y-79000000D02*
G75*
G02*
X40950000Y-79000000I2450000J0D01*
G01*
%TO.C,C77*%
X110833275Y-73736508D02*
X115433275Y-73736508D01*
X115433275Y-76036508D01*
X110833275Y-76036508D01*
X110833275Y-73736508D01*
%TO.C,C21*%
X62125275Y-46274508D02*
X64085275Y-46274508D01*
X64085275Y-49674508D01*
X62125275Y-49674508D01*
X62125275Y-46274508D01*
%TO.C,R43*%
X57034275Y-72836508D02*
X58494275Y-72836508D01*
X58494275Y-75796508D01*
X57034275Y-75796508D01*
X57034275Y-72836508D01*
%TO.C,R73*%
X132669275Y-50186508D02*
X136529275Y-50186508D01*
X136529275Y-58186508D01*
X132669275Y-58186508D01*
X132669275Y-50186508D01*
%TO.C,R77*%
X58005275Y-53340508D02*
X60965275Y-53340508D01*
X60965275Y-54800508D01*
X58005275Y-54800508D01*
X58005275Y-53340508D01*
%TO.C,Q6*%
D11*
X123665225Y-63360808D02*
X123982075Y-63360808D01*
X123665225Y-68212208D02*
X123665225Y-63360808D01*
X123665225Y-68212208D02*
X123982075Y-68212208D01*
X123982075Y-63030608D02*
X130484475Y-63030608D01*
X123982075Y-63360808D02*
X123982075Y-63030608D01*
X123982075Y-68542408D02*
X123982075Y-68212208D01*
X130484475Y-63030608D02*
X130484475Y-63360808D01*
X130484475Y-68212208D02*
X130484475Y-68542408D01*
X130484475Y-68542408D02*
X123982075Y-68542408D01*
X130801325Y-63360808D02*
X130484475Y-63360808D01*
X130801325Y-63360808D02*
X130801325Y-68212208D01*
X130801325Y-68212208D02*
X130484475Y-68212208D01*
%TO.C,C46*%
D10*
X102927275Y-63684508D02*
X106327275Y-63684508D01*
X106327275Y-65644508D01*
X102927275Y-65644508D01*
X102927275Y-63684508D01*
%TO.C,C78*%
X126633275Y-73436508D02*
X131233275Y-73436508D01*
X131233275Y-75736508D01*
X126633275Y-75736508D01*
X126633275Y-73436508D01*
%TO.C,C75*%
X64665275Y-42556508D02*
X66625275Y-42556508D01*
X66625275Y-45956508D01*
X64665275Y-45956508D01*
X64665275Y-42556508D01*
%TO.C,R70*%
X58005275Y-51816508D02*
X60965275Y-51816508D01*
X60965275Y-53276508D01*
X58005275Y-53276508D01*
X58005275Y-51816508D01*
%TO.C,R80*%
X71103276Y-42934508D02*
X72563276Y-42934508D01*
X72563276Y-45894508D01*
X71103276Y-45894508D01*
X71103276Y-42934508D01*
%TO.C,FL1*%
X74821275Y-30086508D02*
X79421275Y-30086508D01*
X74821275Y-33086508D02*
X74821275Y-30086508D01*
X79421275Y-33086508D02*
X74821275Y-33086508D01*
X79421275Y-33086508D02*
X79421275Y-30086508D01*
%TO.C,R68*%
X55771275Y-48463508D02*
X57231275Y-48463508D01*
X57231275Y-51423508D01*
X55771275Y-51423508D01*
X55771275Y-48463508D01*
%TO.C,C45*%
X102927275Y-66694508D02*
X106327275Y-66694508D01*
X106327275Y-68654508D01*
X102927275Y-68654508D01*
X102927275Y-66694508D01*
%TO.C,C2*%
X85954275Y-54407508D02*
X87414275Y-54407508D01*
X87414275Y-57367508D01*
X85954275Y-57367508D01*
X85954275Y-54407508D01*
%TO.C,R75*%
X116774636Y-34187508D02*
X120634636Y-34187508D01*
X120634636Y-42187508D01*
X116774636Y-42187508D01*
X116774636Y-34187508D01*
%TO.C,C43*%
X91820569Y-54916838D02*
X93913605Y-52823802D01*
X94945981Y-53856178D01*
X92852945Y-55949214D01*
X91820569Y-54916838D01*
%TO.C,Q5*%
D11*
X123793725Y-46460808D02*
X124110575Y-46460808D01*
X123793725Y-51312208D02*
X123793725Y-46460808D01*
X123793725Y-51312208D02*
X124110575Y-51312208D01*
X124110575Y-46130608D02*
X130612975Y-46130608D01*
X124110575Y-46460808D02*
X124110575Y-46130608D01*
X124110575Y-51642408D02*
X124110575Y-51312208D01*
X130612975Y-46130608D02*
X130612975Y-46460808D01*
X130612975Y-51312208D02*
X130612975Y-51642408D01*
X130612975Y-51642408D02*
X124110575Y-51642408D01*
X130929825Y-46460808D02*
X130612975Y-46460808D01*
X130929825Y-46460808D02*
X130929825Y-51312208D01*
X130929825Y-51312208D02*
X130612975Y-51312208D01*
%TO.C,Y2*%
D10*
X82063276Y-58493508D02*
X82063276Y-62593508D01*
X82063276Y-62593508D02*
X84463276Y-62593508D01*
X84463276Y-58493508D02*
X82063276Y-58493508D01*
X84463276Y-62593508D02*
X84463276Y-58493508D01*
%TO.C,R12*%
X88850275Y-28316508D02*
X91810275Y-28316508D01*
X91810275Y-29776508D01*
X88850275Y-29776508D01*
X88850275Y-28316508D01*
%TO.C,R28*%
X82515275Y-48440508D02*
X85475275Y-48440508D01*
X85475275Y-49900508D01*
X82515275Y-49900508D01*
X82515275Y-48440508D01*
%TO.C,R39*%
X46747275Y-64708508D02*
X48207275Y-64708508D01*
X48207275Y-67668508D01*
X46747275Y-67668508D01*
X46747275Y-64708508D01*
%TO.C,R31*%
X89382308Y-40622802D02*
X91475344Y-42715838D01*
X90442968Y-43748214D01*
X88349932Y-41655178D01*
X89382308Y-40622802D01*
%TO.C,CR6*%
D11*
X47930675Y-57984308D02*
X48734575Y-57984308D01*
X47930675Y-58898708D02*
X47930675Y-57984308D01*
X47930675Y-58898708D02*
X48734575Y-58898708D01*
X48734575Y-57514408D02*
X51045975Y-57514408D01*
X48734575Y-57984308D02*
X48734575Y-57514408D01*
X48734575Y-59368608D02*
X48734575Y-58898708D01*
X51045975Y-57514408D02*
X51045975Y-57984308D01*
X51045975Y-58898708D02*
X51045975Y-59368608D01*
X51045975Y-59368608D02*
X48734575Y-59368608D01*
X51849875Y-57984308D02*
X51045975Y-57984308D01*
X51849875Y-57984308D02*
X51849875Y-58898708D01*
X51849875Y-58898708D02*
X51045975Y-58898708D01*
%TO.C,R82*%
D10*
X78243275Y-59501508D02*
X79703275Y-59501508D01*
X79703275Y-62461508D01*
X78243275Y-62461508D01*
X78243275Y-59501508D01*
%TO.C,C13*%
X71681274Y-62706508D02*
X73141274Y-62706508D01*
X73141274Y-65666508D01*
X71681274Y-65666508D01*
X71681274Y-62706508D01*
%TO.C,J4*%
X86601275Y-69620508D02*
X95221275Y-69620508D01*
X95221275Y-75710508D01*
X86601275Y-75710508D01*
X86601275Y-69620508D01*
%TO.C,R30*%
X88239308Y-41765802D02*
X90332344Y-43858838D01*
X89299968Y-44891214D01*
X87206932Y-42798178D01*
X88239308Y-41765802D01*
%TO.C,R8*%
X116503275Y-67886508D02*
X120363275Y-67886508D01*
X120363275Y-75886508D01*
X116503275Y-75886508D01*
X116503275Y-67886508D01*
%TO.C,C20*%
X61998275Y-60498508D02*
X63958275Y-60498508D01*
X63958275Y-63898508D01*
X61998275Y-63898508D01*
X61998275Y-60498508D01*
%TO.C,R69*%
X58005275Y-50292508D02*
X60965275Y-50292508D01*
X60965275Y-51752508D01*
X58005275Y-51752508D01*
X58005275Y-50292508D01*
%TO.C,C38*%
X99236392Y-57796554D02*
X96832229Y-55392391D01*
X98218158Y-54006462D01*
X100622321Y-56410625D01*
X99236392Y-57796554D01*
%TO.C,R9*%
X44550000Y-75440000D02*
X46810000Y-75440000D01*
X46810000Y-80000000D01*
X44550000Y-80000000D01*
X44550000Y-75440000D01*
%TO.C,R16*%
X75576275Y-42950508D02*
X77036275Y-42950508D01*
X77036275Y-45910508D01*
X75576275Y-45910508D01*
X75576275Y-42950508D01*
%TO.C,C18*%
X74902274Y-65405508D02*
X78302274Y-65405508D01*
X78302274Y-67365508D01*
X74902274Y-67365508D01*
X74902274Y-65405508D01*
%TO.C,C23*%
X78635275Y-47290508D02*
X80595275Y-47290508D01*
X80595275Y-50690508D01*
X78635275Y-50690508D01*
X78635275Y-47290508D01*
%TO.C,R38*%
X46747275Y-69788508D02*
X48207275Y-69788508D01*
X48207275Y-72748508D01*
X46747275Y-72748508D01*
X46747275Y-69788508D01*
%TO.C,R7*%
X133133650Y-62789508D02*
X140793650Y-62789508D01*
X140793650Y-66649508D01*
X133133650Y-66649508D01*
X133133650Y-62789508D01*
%TO.C,C89*%
X63753275Y-35159508D02*
X65713275Y-35159508D01*
X65713275Y-38559508D01*
X63753275Y-38559508D01*
X63753275Y-35159508D01*
%TO.C,C39*%
X99946102Y-52318990D02*
X103198793Y-55571681D01*
X101572448Y-57198026D01*
X98319757Y-53945335D01*
X99946102Y-52318990D01*
%TO.C,C19*%
X64284275Y-46274508D02*
X66244275Y-46274508D01*
X66244275Y-49674508D01*
X64284275Y-49674508D01*
X64284275Y-46274508D01*
%TO.C,U4*%
D11*
X64378375Y-50828508D02*
X65975475Y-50828508D01*
X64378375Y-59344508D02*
X64378375Y-50828508D01*
X65975475Y-49828708D02*
X66975275Y-49828708D01*
X65975475Y-50828508D02*
X65975475Y-49828708D01*
X65975475Y-59344508D02*
X64378375Y-59344508D01*
X65975475Y-60344308D02*
X65975475Y-59344508D01*
X66975275Y-48231608D02*
X75491275Y-48231608D01*
X66975275Y-49828708D02*
X66975275Y-48231608D01*
X66975275Y-60344308D02*
X65975475Y-60344308D01*
X66975275Y-61941408D02*
X66975275Y-60344308D01*
X75491275Y-48231608D02*
X75491275Y-49828708D01*
X75491275Y-49828708D02*
X76491075Y-49828708D01*
X75491275Y-60344308D02*
X75491275Y-61941408D01*
X75491275Y-61941408D02*
X66975275Y-61941408D01*
X76491075Y-49828708D02*
X76491075Y-50828508D01*
X76491075Y-50828508D02*
X78088175Y-50828508D01*
X76491075Y-59344508D02*
X76491075Y-60344308D01*
X76491075Y-60344308D02*
X75491275Y-60344308D01*
X78088175Y-50828508D02*
X78088175Y-59344508D01*
X78088175Y-59344508D02*
X76491075Y-59344508D01*
D10*
%TO.C,C42*%
X98765981Y-52704178D02*
X96672945Y-54797214D01*
X95640569Y-53764838D01*
X97733605Y-51671802D01*
X98765981Y-52704178D01*
%TO.C,C31*%
X73133275Y-69706508D02*
X76533275Y-69706508D01*
X76533275Y-71666508D01*
X73133275Y-71666508D01*
X73133275Y-69706508D01*
%TD*%
M02*
