M48
; DRILL file KiCad 10.0.5 date 2026-08-23T18:13:54
; FORMAT={-:-/ absolute / metric / decimal}
; #@! TF.CreationDate,2026-08-23T18:13:54+08:00
; #@! TF.GenerationSoftware,Kicad,Pcbnew,10.0.5
; #@! TF.FileFunction,Plated,1,8,PTH
FMAT,2
METRIC
; #@! TA.AperFunction,Plated,PTH,ViaDrill
T1C0.305
; #@! TA.AperFunction,Plated,PTH,ComponentDrill
T2C0.400
; #@! TA.AperFunction,Plated,PTH,ComponentDrill
T3C0.600
; #@! TA.AperFunction,Plated,PTH,ComponentDrill
T4C0.762
; #@! TA.AperFunction,Plated,PTH,ComponentDrill
T5C0.800
; #@! TA.AperFunction,Plated,PTH,ComponentDrill
T6C1.000
; #@! TA.AperFunction,Plated,PTH,ComponentDrill
T7C2.200
%
G90
G05
T1
X36.85Y-30.25
X36.85Y-35.687
X36.85Y-40.687
X36.85Y-45.687
X36.85Y-50.687
X36.85Y-55.687
X36.85Y-60.687
X36.85Y-65.687
X36.85Y-70.687
X36.85Y-75.687
X41.142Y-33.887
X41.142Y-35.963
X41.142Y-38.187
X41.349Y-42.387
X41.381Y-44.345
X41.381Y-46.387
X43.103Y-33.887
X43.103Y-35.963
X43.103Y-38.187
X43.311Y-42.387
X43.343Y-44.345
X43.343Y-46.387
X44.733Y-28.087
X44.733Y-30.037
X44.733Y-31.987
X44.765Y-38.254
X45.064Y-33.887
X45.064Y-35.963
X45.233Y-80.6
X45.272Y-42.387
X45.304Y-44.345
X45.304Y-46.387
X45.383Y-25.3
X46.715Y-30.079
X46.733Y-28.087
X46.733Y-31.987
X47.026Y-33.887
X47.026Y-35.963
X47.026Y-38.187
X47.233Y-42.387
X47.265Y-44.345
X47.265Y-46.387
X47.477Y-64.157
X48.433Y-53.737
X48.747Y-72.285
X48.874Y-30.502
X48.902Y-38.187
X49.141Y-42.567
X50.233Y-31.087
X50.233Y-80.6
X50.383Y-25.3
X50.633Y-42.087
X50.633Y-47.087
X51.233Y-37.087
X51.233Y-39.087
X51.733Y-60.387
X52.233Y-30.087
X52.833Y-67.487
X53.233Y-37.087
X53.233Y-39.087
X54.733Y-33.587
X54.733Y-35.087
X55.033Y-54.587
X55.233Y-37.087
X55.233Y-47.087
X55.233Y-80.6
X55.383Y-25.3
X56.433Y-73.492
X56.733Y-33.587
X56.733Y-56.087
X56.733Y-56.887
X56.733Y-58.987
X56.733Y-59.88
X57.533Y-53.337
X57.533Y-54.187
X58.152Y-49.168
X58.399Y-39.265
X60.233Y-80.6
X60.383Y-25.3
X61.033Y-64.587
X61.933Y-27.887
X61.933Y-30.387
X63.133Y-68.687
X63.833Y-51.437
X64.133Y-32.487
X64.433Y-27.887
X64.433Y-30.387
X64.833Y-34.287
X64.933Y-39.287
X65.233Y-80.6
X65.383Y-25.3
X66.133Y-41.787
X66.433Y-48.925
X66.533Y-27.887
X66.533Y-30.387
X66.533Y-32.887
X66.683Y-59.228
X66.833Y-40.537
X66.874Y-50.963
X66.908Y-51.762
X67.033Y-46.787
X67.033Y-58.287
X67.133Y-55.287
X67.183Y-47.737
X67.333Y-36.837
X67.333Y-37.887
X67.333Y-43.987
X67.358Y-38.812
X68.283Y-52.98
X68.433Y-40.737
X68.483Y-72.287
X68.633Y-62.487
X68.733Y-59.087
X68.733Y-66.087
X68.733Y-67.487
X68.733Y-69.087
X69.133Y-52.887
X69.433Y-55.287
X69.783Y-35.837
X69.815Y-39.537
X69.883Y-37.687
X69.983Y-41.687
X70.033Y-52.887
X70.233Y-80.6
X70.383Y-25.3
X70.433Y-51.487
X70.633Y-30.187
X71.083Y-52.894
X71.133Y-58.687
X71.333Y-29.287
X71.383Y-35.687
X71.433Y-66.9
X71.833Y-41.637
X71.833Y-51.987
X72.233Y-37.637
X72.233Y-39.487
X72.483Y-55.787
X72.533Y-46.337
X72.533Y-47.137
X72.533Y-69.587
X72.583Y-50.741
X72.8Y-65.81
X73.458Y-52.216
X73.814Y-50.935
X74.162Y-57.004
X74.358Y-54.769
X74.436Y-59.428
X74.661Y-50.952
X74.783Y-28.637
X74.833Y-39.787
X74.933Y-41.887
X75.033Y-33.687
X75.071Y-56.894
X75.233Y-80.6
X75.333Y-59.487
X75.383Y-25.3
X75.683Y-39.937
X75.72Y-42.237
X75.887Y-57.412
X76.133Y-36.687
X76.133Y-68.287
X76.183Y-71.837
X76.368Y-60.73
X77.033Y-60.287
X77.983Y-43.087
X78.003Y-45.306
X78.133Y-71.487
X78.263Y-54.193
X78.333Y-68.237
X78.492Y-65.446
X78.928Y-51.145
X78.933Y-37.037
X79.016Y-51.94
X79.233Y-29.687
X79.247Y-52.801
X79.283Y-56.25
X79.533Y-42.187
X79.983Y-71.637
X80.233Y-80.6
X80.383Y-25.3
X80.583Y-65.187
X80.733Y-35.987
X81.033Y-48.137
X81.048Y-52.165
X82.633Y-35.987
X83.383Y-40.837
X83.683Y-35.887
X83.733Y-29.787
X83.973Y-71.336
X84.233Y-52.187
X84.63Y-32.689
X84.683Y-33.487
X84.833Y-44.287
X84.862Y-54.115
X85.083Y-37.537
X85.233Y-39.387
X85.233Y-80.6
X85.383Y-25.3
X85.683Y-36.537
X85.787Y-50.29
X86.433Y-71.337
X86.901Y-53.962
X87.395Y-51.724
X87.613Y-37.347
X87.833Y-77.387
X88.033Y-56.487
X88.083Y-59.487
X88.333Y-61.814
X88.883Y-45.987
X89.482Y-38.971
X89.783Y-54.487
X89.833Y-59.587
X89.968Y-52.564
X90.233Y-80.6
X90.383Y-25.3
X90.403Y-45.742
X91.033Y-37.787
X91.233Y-65.387
X91.433Y-55.437
X92.133Y-65.387
X92.933Y-28.887
X93.633Y-51.037
X93.647Y-41.15
X93.674Y-43.596
X93.783Y-28.887
X93.883Y-29.987
X93.959Y-32.153
X94.033Y-68.587
X94.26Y-42.731
X94.3Y-52.889
X94.433Y-35.992
X94.531Y-55.885
X94.833Y-38.437
X95.143Y-40.993
X95.233Y-80.6
X95.383Y-25.3
X95.904Y-47.237
X96.783Y-41.787
X96.784Y-40.093
X96.866Y-38.22
X97.933Y-60.487
X98.333Y-57.387
X99.083Y-33.737
X99.383Y-38.937
X99.477Y-28.07
X99.548Y-28.869
X99.648Y-51.772
X99.981Y-39.468
X100.233Y-80.6
X100.383Y-25.3
X100.783Y-44.373
X100.833Y-54.687
X100.833Y-58.287
X101.483Y-63.337
X101.683Y-42.637
X102.633Y-46.612
X102.633Y-47.461
X102.683Y-35.737
X102.783Y-44.393
X103.433Y-69.487
X104.433Y-39.487
X104.433Y-51.187
X105.233Y-80.6
X105.333Y-39.487
X105.333Y-51.287
X105.383Y-25.3
X105.514Y-65.889
X105.533Y-63.087
X105.887Y-30.916
X107.233Y-66.687
X110.233Y-80.6
X110.383Y-25.3
X112.133Y-28.887
X112.214Y-36.71
X112.233Y-39.087
X112.233Y-43.087
X112.233Y-45.087
X112.233Y-52.087
X112.233Y-54.087
X112.233Y-56.537
X112.733Y-69.087
X112.733Y-72.087
X112.733Y-74.837
X112.733Y-77.337
X115.233Y-37.087
X115.233Y-52.087
X115.233Y-54.587
X115.233Y-62.087
X115.233Y-72.087
X115.233Y-80.6
X115.383Y-25.3
X115.783Y-77.287
X117.733Y-29.587
X117.733Y-32.087
X117.733Y-37.087
X117.733Y-49.587
X117.733Y-54.587
X117.733Y-62.087
X117.733Y-64.587
X117.733Y-67.087
X117.733Y-72.087
X119.283Y-77.287
X120.233Y-29.587
X120.233Y-32.087
X120.233Y-37.087
X120.233Y-44.587
X120.233Y-49.587
X120.233Y-54.587
X120.233Y-62.087
X120.233Y-64.587
X120.233Y-67.087
X120.233Y-72.087
X120.233Y-80.6
X120.383Y-25.3
X122.733Y-29.587
X122.733Y-32.087
X122.733Y-34.587
X122.733Y-37.087
X122.733Y-39.587
X122.733Y-42.087
X122.733Y-44.587
X122.733Y-47.087
X122.733Y-49.587
X122.733Y-52.087
X122.733Y-54.587
X122.733Y-57.087
X122.733Y-62.087
X122.733Y-64.587
X122.733Y-67.087
X122.733Y-69.587
X122.733Y-72.087
X122.733Y-74.587
X122.733Y-77.087
X125.233Y-37.087
X125.233Y-39.587
X125.233Y-42.087
X125.233Y-52.087
X125.233Y-54.587
X125.233Y-62.087
X125.233Y-72.087
X125.233Y-74.587
X125.233Y-77.087
X125.233Y-80.6
X125.383Y-25.3
X127.733Y-37.087
X127.733Y-42.087
X127.733Y-52.087
X127.733Y-54.587
X127.733Y-72.087
X127.733Y-77.087
X130.117Y-46.343
X130.233Y-80.6
X130.383Y-25.3
X132.987Y-27.925
X133.233Y-28.687
X135.233Y-80.6
X135.383Y-25.3
X136.409Y-42.837
X137.258Y-42.837
X140.033Y-39.587
X140.033Y-44.587
X140.033Y-52.087
X140.033Y-57.087
X140.033Y-62.087
X140.033Y-67.087
X140.033Y-72.087
X140.033Y-77.087
X140.083Y-34.587
X140.233Y-80.6
X140.383Y-25.3
X142.15Y-39.587
X142.15Y-44.587
X142.15Y-52.087
X142.15Y-57.087
X142.15Y-62.087
X142.15Y-67.087
X142.15Y-72.087
X142.15Y-77.087
X142.2Y-34.587
X145.051Y-58.963
X145.051Y-61.097
X145.051Y-63.163
X145.072Y-49.213
X145.072Y-51.283
X145.072Y-53.463
X145.072Y-68.563
X145.072Y-70.587
X145.072Y-72.713
X145.233Y-80.6
X145.383Y-25.3
X147.012Y-58.963
X147.012Y-61.097
X147.012Y-63.163
X147.033Y-49.213
X147.033Y-51.283
X147.033Y-53.463
X147.033Y-68.563
X147.033Y-70.587
X147.033Y-72.713
X148.974Y-58.963
X148.974Y-61.097
X148.974Y-63.163
X148.995Y-49.213
X148.995Y-51.283
X148.995Y-53.463
X148.995Y-68.563
X148.995Y-70.587
X148.995Y-72.713
X150.0Y-25.0
X150.233Y-80.6
X150.935Y-58.963
X150.935Y-61.097
X150.935Y-63.163
X150.956Y-49.213
X150.956Y-51.283
X150.956Y-53.463
X150.956Y-68.563
X150.956Y-70.587
X150.956Y-72.713
X152.811Y-58.963
X152.811Y-61.097
X152.811Y-63.163
X152.832Y-49.213
X152.832Y-51.283
X152.832Y-53.463
X152.832Y-68.563
X152.832Y-70.587
X152.832Y-72.713
X153.983Y-42.294
X157.65Y-30.25
X157.65Y-35.287
X157.65Y-40.287
X157.65Y-45.287
X157.65Y-50.287
X157.65Y-55.287
X157.65Y-60.287
X157.65Y-65.287
X157.65Y-70.287
X157.65Y-75.687
T2
X36.85Y-27.0
X36.85Y-79.0
X37.333Y-25.833
X37.333Y-28.167
X37.333Y-77.833
X37.333Y-80.167
X38.5Y-25.35
X38.5Y-28.65
X38.5Y-77.35
X38.5Y-80.65
X39.667Y-25.833
X39.667Y-28.167
X39.667Y-77.833
X39.667Y-80.167
X40.15Y-27.0
X40.15Y-79.0
X154.35Y-27.0
X154.35Y-79.0
X154.833Y-25.833
X154.833Y-28.167
X154.833Y-77.833
X154.833Y-80.167
X156.0Y-25.35
X156.0Y-28.65
X156.0Y-77.35
X156.0Y-80.65
X157.167Y-25.833
X157.167Y-28.167
X157.167Y-77.833
X157.167Y-80.167
X157.65Y-27.0
X157.65Y-79.0
T4
X43.919Y-52.283
X43.919Y-54.283
X43.919Y-56.283
X43.919Y-58.283
X43.919Y-60.283
X45.919Y-52.283
X45.919Y-54.283
X45.919Y-56.283
X45.919Y-58.283
X45.919Y-60.283
T5
X150.033Y-33.737
X150.033Y-35.737
X150.033Y-37.737
X150.033Y-39.737
X150.033Y-41.737
X150.033Y-43.737
T6
X88.371Y-71.391
X88.371Y-73.931
X90.911Y-71.391
X90.911Y-73.931
X93.451Y-71.391
X93.451Y-73.931
T7
X38.5Y-27.0
X38.5Y-79.0
X156.0Y-27.0
X156.0Y-79.0
T3
G00X41.178Y-64.409
M15
G01X40.378Y-64.409
M16
G05
G00X41.178Y-73.049
M15
G01X40.378Y-73.049
M16
G05
G00X45.508Y-64.409
M15
G01X44.408Y-64.409
M16
G05
G00X45.508Y-73.049
M15
G01X44.408Y-73.049
M16
G05
M30
