%TF.GenerationSoftware,KiCad,Pcbnew,10.0.5*%
%TF.CreationDate,2026-08-23T18:13:50+08:00*%
%TF.ProjectId,BLDC_MC_V1.0,424c4443-5f4d-4435-9f56-312e302e6b69,V1.0*%
%TF.SameCoordinates,Original*%
%TF.FileFunction,Paste,Bot*%
%TF.FilePolarity,Positive*%
%FSLAX46Y46*%
G04 Gerber Fmt 4.6, Leading zero omitted, Abs format (unit mm)*
G04 Created by KiCad (PCBNEW 10.0.5) date 2026-08-23 18:13:50*
%MOMM*%
%LPD*%
G01*
G04 APERTURE LIST*
G04 Aperture macros list*
%AMRoundRect*
0 Rectangle with rounded corners*
0 $1 Rounding radius*
0 $2 $3 $4 $5 $6 $7 $8 $9 X,Y pos of 4 corners*
0 Add a 4 corners polygon primitive as box body*
4,1,4,$2,$3,$4,$5,$6,$7,$8,$9,$2,$3,0*
0 Add four circle primitives for the rounded corners*
1,1,$1+$1,$2,$3*
1,1,$1+$1,$4,$5*
1,1,$1+$1,$6,$7*
1,1,$1+$1,$8,$9*
0 Add four rect primitives between the rounded corners*
20,1,$1+$1,$2,$3,$4,$5,0*
20,1,$1+$1,$4,$5,$6,$7,0*
20,1,$1+$1,$6,$7,$8,$9,0*
20,1,$1+$1,$8,$9,$2,$3,0*%
%AMFreePoly0*
4,1,13,0.252200,0.527500,0.672800,0.527500,0.672800,0.272500,0.252200,0.272500,0.252200,-0.275000,0.672800,-0.275000,0.672800,-0.525000,0.252200,-0.525000,0.252200,-0.622300,-0.252200,-0.622300,-0.252200,0.622300,0.252200,0.622300,0.252200,0.527500,0.252200,0.527500,$1*%
G04 Aperture macros list end*
%ADD10C,0.010000*%
%ADD11RoundRect,0.200000X-0.275000X0.200000X-0.275000X-0.200000X0.275000X-0.200000X0.275000X0.200000X0*%
%ADD12RoundRect,0.225000X0.225000X0.250000X-0.225000X0.250000X-0.225000X-0.250000X0.225000X-0.250000X0*%
%ADD13RoundRect,0.200000X0.200000X0.275000X-0.200000X0.275000X-0.200000X-0.275000X0.200000X-0.275000X0*%
%ADD14R,0.803900X0.406400*%
%ADD15RoundRect,0.200000X-0.200000X-0.275000X0.200000X-0.275000X0.200000X0.275000X-0.200000X0.275000X0*%
%ADD16RoundRect,0.147500X0.457500X0.147500X-0.457500X0.147500X-0.457500X-0.147500X0.457500X-0.147500X0*%
%ADD17RoundRect,0.250001X-0.899999X-1.449999X0.899999X-1.449999X0.899999X1.449999X-0.899999X1.449999X0*%
%ADD18RoundRect,0.250000X-0.625000X0.312500X-0.625000X-0.312500X0.625000X-0.312500X0.625000X0.312500X0*%
%ADD19RoundRect,0.250000X-0.250000X-0.475000X0.250000X-0.475000X0.250000X0.475000X-0.250000X0.475000X0*%
%ADD20RoundRect,0.218750X0.256250X-0.218750X0.256250X0.218750X-0.256250X0.218750X-0.256250X-0.218750X0*%
%ADD21RoundRect,0.250000X-0.475000X0.250000X-0.475000X-0.250000X0.475000X-0.250000X0.475000X0.250000X0*%
%ADD22RoundRect,0.250000X0.250000X0.475000X-0.250000X0.475000X-0.250000X-0.475000X0.250000X-0.475000X0*%
%ADD23RoundRect,0.250000X0.325000X0.650000X-0.325000X0.650000X-0.325000X-0.650000X0.325000X-0.650000X0*%
%ADD24RoundRect,0.250000X0.475000X-0.250000X0.475000X0.250000X-0.475000X0.250000X-0.475000X-0.250000X0*%
%ADD25RoundRect,0.250000X-0.650000X0.325000X-0.650000X-0.325000X0.650000X-0.325000X0.650000X0.325000X0*%
%ADD26RoundRect,0.250000X-1.950000X-1.000000X1.950000X-1.000000X1.950000X1.000000X-1.950000X1.000000X0*%
%ADD27RoundRect,0.225000X-0.225000X-0.250000X0.225000X-0.250000X0.225000X0.250000X-0.225000X0.250000X0*%
%ADD28RoundRect,0.250000X1.950000X1.000000X-1.950000X1.000000X-1.950000X-1.000000X1.950000X-1.000000X0*%
%ADD29R,3.200400X2.184400*%
%ADD30RoundRect,0.200000X0.275000X-0.200000X0.275000X0.200000X-0.275000X0.200000X-0.275000X-0.200000X0*%
%ADD31R,0.939800X2.489200*%
%ADD32R,6.781800X6.934200*%
%ADD33RoundRect,0.116250X0.873750X0.348750X-0.873750X0.348750X-0.873750X-0.348750X0.873750X-0.348750X0*%
%ADD34RoundRect,0.247500X0.742500X1.367500X-0.742500X1.367500X-0.742500X-1.367500X0.742500X-1.367500X0*%
%ADD35R,0.660400X0.254000*%
%ADD36FreePoly0,0.000000*%
%ADD37RoundRect,0.031250X0.343750X0.093750X-0.343750X0.093750X-0.343750X-0.093750X0.343750X-0.093750X0*%
%ADD38RoundRect,0.031250X0.093750X0.268750X-0.093750X0.268750X-0.093750X-0.268750X0.093750X-0.268750X0*%
%ADD39RoundRect,0.250000X-0.325000X-0.650000X0.325000X-0.650000X0.325000X0.650000X-0.325000X0.650000X0*%
%ADD40RoundRect,0.075000X-0.910000X-0.225000X0.910000X-0.225000X0.910000X0.225000X-0.910000X0.225000X0*%
G04 APERTURE END LIST*
D10*
%TO.C,U1*%
X68633275Y-65306508D02*
X67833275Y-65306508D01*
X67833275Y-66246508D01*
X68633275Y-66246508D01*
X68633275Y-65306508D01*
G36*
X68633275Y-66246508D02*
G01*
X67833275Y-66246508D01*
X67833275Y-65306508D01*
X68633275Y-65306508D01*
X68633275Y-66246508D01*
G37*
X68633275Y-66446508D02*
X67833275Y-66446508D01*
X67833275Y-67386508D01*
X68633275Y-67386508D01*
X68633275Y-66446508D01*
G36*
X68633275Y-67386508D02*
G01*
X67833275Y-67386508D01*
X67833275Y-66446508D01*
X68633275Y-66446508D01*
X68633275Y-67386508D01*
G37*
X68633275Y-67586508D02*
X67833275Y-67586508D01*
X67833275Y-68526508D01*
X68633275Y-68526508D01*
X68633275Y-67586508D01*
G36*
X68633275Y-68526508D02*
G01*
X67833275Y-68526508D01*
X67833275Y-67586508D01*
X68633275Y-67586508D01*
X68633275Y-68526508D01*
G37*
X68633275Y-68726508D02*
X67833275Y-68726508D01*
X67833275Y-69666508D01*
X68633275Y-69666508D01*
X68633275Y-68726508D01*
G36*
X68633275Y-69666508D02*
G01*
X67833275Y-69666508D01*
X67833275Y-68726508D01*
X68633275Y-68726508D01*
X68633275Y-69666508D01*
G37*
X69633275Y-65306508D02*
X68833275Y-65306508D01*
X68833275Y-66246508D01*
X69633275Y-66246508D01*
X69633275Y-65306508D01*
G36*
X69633275Y-66246508D02*
G01*
X68833275Y-66246508D01*
X68833275Y-65306508D01*
X69633275Y-65306508D01*
X69633275Y-66246508D01*
G37*
X69633275Y-66446508D02*
X68833275Y-66446508D01*
X68833275Y-67386508D01*
X69633275Y-67386508D01*
X69633275Y-66446508D01*
G36*
X69633275Y-67386508D02*
G01*
X68833275Y-67386508D01*
X68833275Y-66446508D01*
X69633275Y-66446508D01*
X69633275Y-67386508D01*
G37*
X69633275Y-67586508D02*
X68833275Y-67586508D01*
X68833275Y-68526508D01*
X69633275Y-68526508D01*
X69633275Y-67586508D01*
G36*
X69633275Y-68526508D02*
G01*
X68833275Y-68526508D01*
X68833275Y-67586508D01*
X69633275Y-67586508D01*
X69633275Y-68526508D01*
G37*
X69633275Y-68726508D02*
X68833275Y-68726508D01*
X68833275Y-69666508D01*
X69633275Y-69666508D01*
X69633275Y-68726508D01*
G36*
X69633275Y-69666508D02*
G01*
X68833275Y-69666508D01*
X68833275Y-68726508D01*
X69633275Y-68726508D01*
X69633275Y-69666508D01*
G37*
%TD*%
D11*
%TO.C,R34*%
X81470942Y-72348508D03*
X81470942Y-73998508D03*
%TD*%
D12*
%TO.C,C60*%
X92702275Y-33803508D03*
X91152275Y-33803508D03*
%TD*%
D13*
%TO.C,R17*%
X69788275Y-31270508D03*
X68138275Y-31270508D03*
%TD*%
%TO.C,R50*%
X92752275Y-30755508D03*
X91102275Y-30755508D03*
%TD*%
D14*
%TO.C,CR9*%
X42303925Y-58314508D03*
X39696625Y-58314508D03*
%TD*%
D11*
%TO.C,R35*%
X86466275Y-72348508D03*
X86466275Y-73998508D03*
%TD*%
D15*
%TO.C,R20*%
X68138275Y-32921508D03*
X69788275Y-32921508D03*
%TD*%
D16*
%TO.C,U13*%
X106136275Y-54824508D03*
X106136275Y-55774508D03*
X106136275Y-56724508D03*
X103626275Y-56724508D03*
X103626275Y-54824508D03*
%TD*%
D17*
%TO.C,L1*%
X73633275Y-61986508D03*
X79333275Y-61986508D03*
%TD*%
D15*
%TO.C,R1*%
X73558275Y-71486508D03*
X75208275Y-71486508D03*
%TD*%
D18*
%TO.C,R61*%
X109333275Y-31224008D03*
X109333275Y-34149008D03*
%TD*%
D19*
%TO.C,C3*%
X81983275Y-55186508D03*
X83883275Y-55186508D03*
%TD*%
D20*
%TO.C,D2*%
X81470942Y-77313008D03*
X81470942Y-75738008D03*
%TD*%
D21*
%TO.C,C70*%
X104158275Y-46823508D03*
X104158275Y-48723508D03*
%TD*%
D22*
%TO.C,C86*%
X89790275Y-58144508D03*
X87890275Y-58144508D03*
%TD*%
D23*
%TO.C,C6*%
X85008275Y-62486508D03*
X82058275Y-62486508D03*
%TD*%
D13*
%TO.C,R46*%
X92514775Y-49170508D03*
X90864775Y-49170508D03*
%TD*%
D16*
%TO.C,U3*%
X88499775Y-49998508D03*
X88499775Y-50948508D03*
X88499775Y-51898508D03*
X85989775Y-51898508D03*
X85989775Y-49998508D03*
%TD*%
D24*
%TO.C,C64*%
X152633275Y-35586508D03*
X152633275Y-33686508D03*
%TD*%
D25*
%TO.C,C67*%
X96333275Y-62511508D03*
X96333275Y-65461508D03*
%TD*%
D16*
%TO.C,U10*%
X88748011Y-41447508D03*
X88748011Y-42397508D03*
X88748011Y-43347508D03*
X86238011Y-43347508D03*
X86238011Y-41447508D03*
%TD*%
D14*
%TO.C,CR8*%
X42303925Y-56282508D03*
X39696625Y-56282508D03*
%TD*%
D18*
%TO.C,R55*%
X109333275Y-54824008D03*
X109333275Y-57749008D03*
%TD*%
D24*
%TO.C,C7*%
X64943275Y-66646508D03*
X64943275Y-64746508D03*
%TD*%
D23*
%TO.C,C26*%
X85008275Y-65186508D03*
X82058275Y-65186508D03*
%TD*%
D26*
%TO.C,C48*%
X117572275Y-57948508D03*
X125972275Y-57948508D03*
%TD*%
D24*
%TO.C,C8*%
X62933275Y-66646508D03*
X62933275Y-64746508D03*
%TD*%
D27*
%TO.C,C33*%
X73608275Y-72986508D03*
X75158275Y-72986508D03*
%TD*%
D15*
%TO.C,R60*%
X100158275Y-45233508D03*
X101808275Y-45233508D03*
%TD*%
D13*
%TO.C,R15*%
X92514775Y-52218508D03*
X90864775Y-52218508D03*
%TD*%
D15*
%TO.C,R56*%
X108043275Y-60219508D03*
X109693275Y-60219508D03*
%TD*%
D16*
%TO.C,U12*%
X94302775Y-58464508D03*
X94302775Y-59414508D03*
X94302775Y-60364508D03*
X91792775Y-60364508D03*
X91792775Y-58464508D03*
%TD*%
D19*
%TO.C,C17*%
X86300539Y-47881508D03*
X88200539Y-47881508D03*
%TD*%
%TO.C,C65*%
X152083275Y-43686508D03*
X153983275Y-43686508D03*
%TD*%
D26*
%TO.C,C49*%
X117572275Y-45898508D03*
X125972275Y-45898508D03*
%TD*%
D28*
%TO.C,C30*%
X59678275Y-69998508D03*
X51278275Y-69998508D03*
%TD*%
D19*
%TO.C,C61*%
X79755275Y-34318508D03*
X81655275Y-34318508D03*
%TD*%
D25*
%TO.C,C55*%
X108633275Y-68511508D03*
X108633275Y-71461508D03*
%TD*%
D15*
%TO.C,R65*%
X100158275Y-56790508D03*
X101808275Y-56790508D03*
%TD*%
D28*
%TO.C,C29*%
X59678275Y-57948508D03*
X51278275Y-57948508D03*
%TD*%
D15*
%TO.C,R6*%
X73558275Y-69986508D03*
X75208275Y-69986508D03*
%TD*%
D22*
%TO.C,C32*%
X75583275Y-66686508D03*
X73683275Y-66686508D03*
%TD*%
D12*
%TO.C,C59*%
X92696511Y-42331508D03*
X91146511Y-42331508D03*
%TD*%
D19*
%TO.C,C85*%
X104058275Y-29612508D03*
X105958275Y-29612508D03*
%TD*%
%TO.C,C84*%
X104058275Y-41042508D03*
X105958275Y-41042508D03*
%TD*%
D15*
%TO.C,R66*%
X100285275Y-33803508D03*
X101935275Y-33803508D03*
%TD*%
D28*
%TO.C,C10*%
X59678275Y-45898508D03*
X51278275Y-45898508D03*
%TD*%
D22*
%TO.C,C88*%
X41823275Y-51964508D03*
X39923275Y-51964508D03*
%TD*%
D15*
%TO.C,R62*%
X108170275Y-36470508D03*
X109820275Y-36470508D03*
%TD*%
D20*
%TO.C,D4*%
X83968608Y-77313008D03*
X83968608Y-75738008D03*
%TD*%
D13*
%TO.C,R49*%
X92746511Y-43855508D03*
X91096511Y-43855508D03*
%TD*%
D24*
%TO.C,C36*%
X77703275Y-51263508D03*
X77703275Y-49363508D03*
%TD*%
D26*
%TO.C,C47*%
X117572275Y-69998508D03*
X125972275Y-69998508D03*
%TD*%
D11*
%TO.C,R57*%
X106134775Y-58378508D03*
X106134775Y-60028508D03*
%TD*%
D19*
%TO.C,C35*%
X71083275Y-42786508D03*
X72983275Y-42786508D03*
%TD*%
D20*
%TO.C,D3*%
X86466275Y-77313008D03*
X86466275Y-75738008D03*
%TD*%
D26*
%TO.C,C50*%
X117572275Y-33848508D03*
X125972275Y-33848508D03*
%TD*%
D13*
%TO.C,R45*%
X92514775Y-47646508D03*
X90864775Y-47646508D03*
%TD*%
D14*
%TO.C,CR7*%
X42303925Y-54123508D03*
X39696625Y-54123508D03*
%TD*%
D12*
%TO.C,C28*%
X74208275Y-74586508D03*
X72658275Y-74586508D03*
%TD*%
D21*
%TO.C,C69*%
X104334275Y-35393508D03*
X104334275Y-37293508D03*
%TD*%
D13*
%TO.C,R51*%
X92752275Y-32279508D03*
X91102275Y-32279508D03*
%TD*%
D11*
%TO.C,R37*%
X78973275Y-72348508D03*
X78973275Y-73998508D03*
%TD*%
D12*
%TO.C,C58*%
X92464775Y-50694508D03*
X90914775Y-50694508D03*
%TD*%
D29*
%TO.C,CR10*%
X43413275Y-37410308D03*
X43413275Y-43658708D03*
%TD*%
D13*
%TO.C,R48*%
X92746511Y-40807508D03*
X91096511Y-40807508D03*
%TD*%
D11*
%TO.C,R53*%
X90872275Y-62526508D03*
X90872275Y-64176508D03*
%TD*%
D13*
%TO.C,R2*%
X74258275Y-76186508D03*
X72608275Y-76186508D03*
%TD*%
D30*
%TO.C,R3*%
X64876275Y-70569508D03*
X64876275Y-68919508D03*
%TD*%
D31*
%TO.C,U7*%
X101043274Y-67868508D03*
D32*
X103333275Y-74282008D03*
D31*
X105623276Y-67868508D03*
%TD*%
D15*
%TO.C,R18*%
X80233775Y-32434508D03*
X81883775Y-32434508D03*
%TD*%
D23*
%TO.C,C27*%
X85008275Y-67886508D03*
X82058275Y-67886508D03*
%TD*%
D16*
%TO.C,U11*%
X88737275Y-32726508D03*
X88737275Y-33676508D03*
X88737275Y-34626508D03*
X86227275Y-34626508D03*
X86227275Y-32726508D03*
%TD*%
D33*
%TO.C,U5*%
X74948275Y-47686508D03*
X74948275Y-49986508D03*
X74948275Y-52286508D03*
D34*
X68918275Y-49986508D03*
%TD*%
D11*
%TO.C,R63*%
X106366275Y-35391508D03*
X106366275Y-37041508D03*
%TD*%
D19*
%TO.C,C63*%
X86536275Y-30736508D03*
X88436275Y-30736508D03*
%TD*%
D28*
%TO.C,C9*%
X59678275Y-33848508D03*
X51278275Y-33848508D03*
%TD*%
D21*
%TO.C,C71*%
X96714275Y-58591508D03*
X96714275Y-60491508D03*
%TD*%
D15*
%TO.C,R59*%
X108043275Y-48662508D03*
X109693275Y-48662508D03*
%TD*%
D30*
%TO.C,R54*%
X92396275Y-64176508D03*
X92396275Y-62526508D03*
%TD*%
D13*
%TO.C,R47*%
X92746511Y-39283508D03*
X91096511Y-39283508D03*
%TD*%
D19*
%TO.C,C83*%
X103804275Y-52726508D03*
X105704275Y-52726508D03*
%TD*%
D20*
%TO.C,D1*%
X78973275Y-77313008D03*
X78973275Y-75738008D03*
%TD*%
D21*
%TO.C,C54*%
X96033275Y-68936508D03*
X96033275Y-70836508D03*
%TD*%
D13*
%TO.C,R52*%
X92752275Y-35327508D03*
X91102275Y-35327508D03*
%TD*%
D11*
%TO.C,R36*%
X83968608Y-72348508D03*
X83968608Y-73998508D03*
%TD*%
D19*
%TO.C,C62*%
X86532275Y-39391508D03*
X88432275Y-39391508D03*
%TD*%
D11*
%TO.C,R64*%
X106190275Y-46694508D03*
X106190275Y-48344508D03*
%TD*%
%TO.C,R5*%
X66908275Y-71840508D03*
X66908275Y-73490508D03*
%TD*%
D27*
%TO.C,C34*%
X73608275Y-68486508D03*
X75158275Y-68486508D03*
%TD*%
D21*
%TO.C,C68*%
X104102775Y-58507508D03*
X104102775Y-60407508D03*
%TD*%
D13*
%TO.C,R4*%
X71058275Y-74586508D03*
X69408275Y-74586508D03*
%TD*%
D18*
%TO.C,R58*%
X109333275Y-43224008D03*
X109333275Y-46149008D03*
%TD*%
D13*
%TO.C,R19*%
X69788275Y-34572508D03*
X68138275Y-34572508D03*
%TD*%
D23*
%TO.C,C5*%
X85008275Y-59836508D03*
X82058275Y-59836508D03*
%TD*%
D16*
%TO.C,U15*%
X106263275Y-31710508D03*
X106263275Y-32660508D03*
X106263275Y-33610508D03*
X103753275Y-33610508D03*
X103753275Y-31710508D03*
%TD*%
D35*
%TO.C,CR1*%
X47661775Y-55586507D03*
X47661775Y-54786509D03*
D36*
X48460475Y-55186508D03*
%TD*%
D21*
%TO.C,C53*%
X98133275Y-68936508D03*
X98133275Y-70836508D03*
%TD*%
D16*
%TO.C,U14*%
X106175275Y-43140508D03*
X106175275Y-44090508D03*
X106175275Y-45040508D03*
X103665275Y-45040508D03*
X103665275Y-43140508D03*
%TD*%
D37*
%TO.C,U1*%
X70558275Y-64986508D03*
X70558275Y-65486508D03*
X70558275Y-65986508D03*
X70558275Y-66486508D03*
X70558275Y-66986508D03*
X70558275Y-67486508D03*
X70558275Y-67986508D03*
X70558275Y-68486508D03*
X70558275Y-68986508D03*
X70558275Y-69486508D03*
X70558275Y-69986508D03*
D38*
X69483275Y-70386508D03*
X68983275Y-70386508D03*
X68483275Y-70386508D03*
X67983275Y-70386508D03*
D37*
X66908275Y-69986508D03*
X66908275Y-69486508D03*
X66908275Y-68986508D03*
X66908275Y-68486508D03*
X66908275Y-67986508D03*
X66908275Y-67486508D03*
X66908275Y-66986508D03*
X66908275Y-66486508D03*
X66908275Y-65986508D03*
X66908275Y-65486508D03*
X66908275Y-64986508D03*
D38*
X67983275Y-64586508D03*
X68483275Y-64586508D03*
X68983275Y-64586508D03*
X69483275Y-64586508D03*
%TD*%
D39*
%TO.C,C37*%
X70558275Y-45086508D03*
X73508275Y-45086508D03*
%TD*%
D25*
%TO.C,C56*%
X111033275Y-68511508D03*
X111033275Y-71461508D03*
%TD*%
D19*
%TO.C,C4*%
X81983275Y-57386508D03*
X83883275Y-57386508D03*
%TD*%
D40*
%TO.C,U8*%
X72463275Y-34191508D03*
X72463275Y-32921508D03*
X72463275Y-31651508D03*
X72463275Y-30381508D03*
X77403275Y-30381508D03*
X77403275Y-31651508D03*
X77403275Y-32921508D03*
X77403275Y-34191508D03*
%TD*%
D21*
%TO.C,C66*%
X94174275Y-62528508D03*
X94174275Y-64428508D03*
%TD*%
M02*
