M48
; DRILL file KiCad 10.0.1 date 2026-06-13T18:35:53
; FORMAT={-:-/ absolute / metric / decimal}
; #@! TF.CreationDate,2026-06-13T18:35:53+03:00
; #@! TF.GenerationSoftware,Kicad,Pcbnew,10.0.1
; #@! TF.FileFunction,Plated,1,4,PTH
FMAT,2
METRIC
; #@! TA.AperFunction,Plated,PTH,ViaDrill
T1C0.300
; #@! TA.AperFunction,Plated,PTH,ComponentDrill
T2C0.600
; #@! TA.AperFunction,Plated,PTH,ComponentDrill
T3C0.890
; #@! TA.AperFunction,Plated,PTH,ComponentDrill
T4C1.000
; #@! TA.AperFunction,Plated,PTH,ComponentDrill
T5C2.010
; #@! TA.AperFunction,Plated,PTH,ComponentDrill
T6C2.200
%
G90
G05
T1
X55.88Y-40.64
X55.88Y-45.72
X55.88Y-50.8
X55.88Y-60.96
X55.88Y-66.04
X55.88Y-71.12
X55.88Y-76.2
X55.88Y-81.28
X55.88Y-91.44
X55.88Y-96.52
X55.88Y-101.6
X55.88Y-106.68
X55.88Y-111.76
X55.88Y-116.84
X55.88Y-121.92
X58.15Y-40.75
X58.725Y-95.7
X59.925Y-76.425
X60.7Y-79.9
X60.7Y-84.1
X60.75Y-78.125
X60.96Y-76.2
X60.96Y-81.28
X60.96Y-91.44
X60.96Y-96.52
X60.96Y-101.6
X60.96Y-106.68
X60.96Y-111.76
X60.96Y-116.84
X61.4Y-71.0
X61.675Y-67.025
X62.1Y-103.0
X63.425Y-50.9
X63.6Y-52.725
X64.225Y-58.4
X64.25Y-59.35
X64.25Y-60.475
X64.25Y-63.575
X64.275Y-61.425
X64.275Y-62.5
X65.675Y-85.85
X65.7Y-94.0
X65.75Y-101.525
X65.895Y-86.95
X66.04Y-71.12
X66.04Y-76.2
X66.04Y-96.52
X66.04Y-121.92
X66.125Y-73.35
X66.2Y-55.7
X66.65Y-85.825
X67.15Y-82.7
X67.45Y-75.075
X68.175Y-82.7
X68.865Y-91.035
X69.5Y-52.9
X70.925Y-40.75
X71.12Y-71.12
X71.12Y-81.28
X71.12Y-91.44
X71.12Y-96.52
X71.12Y-106.68
X71.12Y-111.76
X71.12Y-116.84
X71.362Y-98.338
X74.15Y-57.45
X74.175Y-100.55
X74.725Y-63.85
X76.2Y-40.64
X76.2Y-76.2
X76.2Y-81.28
X76.2Y-91.44
X76.2Y-96.52
X76.2Y-101.6
X76.2Y-106.68
X76.2Y-111.76
X76.2Y-116.84
X76.2Y-121.92
X76.28Y-56.12
X77.9Y-49.075
X77.9Y-51.15
X78.15Y-83.5
X78.408Y-81.308
X80.57Y-49.0
X80.57Y-52.525
X80.7Y-69.925
X81.28Y-71.12
X81.28Y-76.2
X81.28Y-91.44
X81.28Y-101.6
X81.28Y-106.68
X81.28Y-111.76
X81.28Y-116.84
X81.28Y-121.92
X81.575Y-98.025
X81.675Y-95.0
X81.775Y-69.9
X81.875Y-67.575
X82.625Y-91.15
X82.675Y-93.025
X83.8Y-52.575
X84.075Y-48.925
X85.1Y-61.55
X85.25Y-58.25
X85.7Y-59.45
X86.021Y-71.221
X86.225Y-63.225
X86.36Y-96.52
X86.36Y-111.76
X86.36Y-116.84
X86.36Y-121.92
X86.5Y-67.8
X86.575Y-66.8
X86.95Y-62.375
X87.275Y-58.25
X87.884Y-59.182
X88.5Y-45.7
X88.575Y-104.6
X88.6Y-100.35
X88.6Y-101.9
X88.6Y-103.275
X89.175Y-80.75
X89.408Y-58.166
X89.745Y-51.975
X90.25Y-54.9
X90.257Y-58.591
X90.35Y-45.75
X90.4Y-76.225
X90.4Y-77.275
X90.4Y-78.4
X90.425Y-68.175
X90.625Y-80.725
X90.675Y-51.9
X91.05Y-65.15
X91.15Y-54.925
X91.44Y-76.2
X91.44Y-91.44
X91.44Y-96.52
X91.44Y-101.6
X91.44Y-111.76
X91.44Y-116.84
X91.44Y-121.92
X92.1Y-45.6
X92.65Y-67.0
X93.175Y-84.425
X93.2Y-89.7
X94.0Y-51.375
X94.875Y-64.95
X95.629Y-56.584
X96.15Y-96.075
X96.25Y-80.625
X96.25Y-82.475
X96.325Y-84.775
X96.52Y-40.64
X96.52Y-71.12
X96.52Y-91.44
X96.52Y-111.76
X96.52Y-116.84
X96.52Y-121.92
X98.675Y-51.3
X99.375Y-84.875
X99.75Y-86.3
X101.1Y-44.85
X101.15Y-41.85
X101.225Y-39.6
X101.6Y-101.6
X101.6Y-111.76
X101.6Y-116.84
X102.075Y-43.075
X102.119Y-95.856
X102.325Y-55.875
X102.45Y-64.85
X102.625Y-86.125
X102.65Y-77.975
X103.325Y-105.75
X103.6Y-98.7
X103.7Y-86.075
X103.825Y-67.075
X103.9Y-59.25
X104.7Y-87.025
X105.4Y-100.125
X105.791Y-86.025
X105.8Y-94.725
X106.15Y-55.625
X106.68Y-71.12
X106.68Y-96.52
X106.68Y-111.76
X106.68Y-121.92
X107.56Y-81.376
X109.625Y-57.75
X109.675Y-68.25
X109.7Y-64.4
X109.75Y-84.25
X109.85Y-85.325
X111.25Y-71.2
X111.375Y-44.0
X111.76Y-45.72
X111.76Y-91.44
X111.76Y-111.76
X115.625Y-67.5
X116.275Y-97.0
X116.84Y-40.64
X116.84Y-45.72
X116.84Y-50.8
X116.84Y-60.96
X116.84Y-66.04
X116.84Y-71.12
X116.84Y-91.44
X116.84Y-101.6
X116.84Y-106.68
X116.84Y-111.76
X116.84Y-116.84
X116.84Y-121.92
X117.25Y-82.425
X118.325Y-68.5
T3
X66.08Y-116.42
X68.62Y-116.42
X107.92Y-116.42
X110.46Y-116.42
T4
X80.38Y-41.28
X80.38Y-43.82
X82.92Y-41.28
X82.92Y-43.82
X85.46Y-41.28
X85.46Y-43.82
T5
X61.0Y-121.5
X71.16Y-121.5
X102.84Y-121.5
X113.0Y-121.5
T6
X54.368Y-129.54
X54.5Y-37.5
X119.368Y-129.54
X119.5Y-37.5
T2
G00X112.27Y-56.36
M15
G01X113.37Y-56.36
M16
G05
G00X112.27Y-65.0
M15
G01X113.37Y-65.0
M16
G05
G00X116.6Y-56.36
M15
G01X117.4Y-56.36
M16
G05
G00X116.6Y-65.0
M15
G01X117.4Y-65.0
M16
G05
M30
