%TF.GenerationSoftware,KiCad,Pcbnew,10.0.1*%
%TF.CreationDate,2026-06-13T18:35:46+03:00*%
%TF.ProjectId,Mixed_Signal_Board_FEDEVEL_Course,4d697865-645f-4536-9967-6e616c5f426f,A*%
%TF.SameCoordinates,Original*%
%TF.FileFunction,Copper,L1,Top*%
%TF.FilePolarity,Positive*%
%FSLAX46Y46*%
G04 Gerber Fmt 4.6, Leading zero omitted, Abs format (unit mm)*
G04 Created by KiCad (PCBNEW 10.0.1) date 2026-06-13 18:35:46*
%MOMM*%
%LPD*%
G01*
G04 APERTURE LIST*
G04 Aperture macros list*
%AMRoundRect*
0 Rectangle with rounded corners*
0 $1 Rounding radius*
0 $2 $3 $4 $5 $6 $7 $8 $9 X,Y pos of 4 corners*
0 Add a 4 corners polygon primitive as box body*
4,1,4,$2,$3,$4,$5,$6,$7,$8,$9,$2,$3,0*
0 Add four circle primitives for the rounded corners*
1,1,$1+$1,$2,$3*
1,1,$1+$1,$4,$5*
1,1,$1+$1,$6,$7*
1,1,$1+$1,$8,$9*
0 Add four rect primitives between the rounded corners*
20,1,$1+$1,$2,$3,$4,$5,0*
20,1,$1+$1,$4,$5,$6,$7,0*
20,1,$1+$1,$6,$7,$8,$9,0*
20,1,$1+$1,$8,$9,$2,$3,0*%
G04 Aperture macros list end*
%TA.AperFunction,SMDPad,CuDef*%
%ADD10RoundRect,0.225000X-0.225000X-0.250000X0.225000X-0.250000X0.225000X0.250000X-0.225000X0.250000X0*%
%TD*%
%TA.AperFunction,ComponentPad*%
%ADD11C,3.800000*%
%TD*%
%TA.AperFunction,SMDPad,CuDef*%
%ADD12RoundRect,0.225000X0.250000X-0.225000X0.250000X0.225000X-0.250000X0.225000X-0.250000X-0.225000X0*%
%TD*%
%TA.AperFunction,ComponentPad*%
%ADD13R,1.700000X1.700000*%
%TD*%
%TA.AperFunction,ComponentPad*%
%ADD14C,1.700000*%
%TD*%
%TA.AperFunction,SMDPad,CuDef*%
%ADD15RoundRect,0.200000X-0.275000X0.200000X-0.275000X-0.200000X0.275000X-0.200000X0.275000X0.200000X0*%
%TD*%
%TA.AperFunction,SMDPad,CuDef*%
%ADD16RoundRect,0.035000X0.105000X-0.700000X0.105000X0.700000X-0.105000X0.700000X-0.105000X-0.700000X0*%
%TD*%
%TA.AperFunction,SMDPad,CuDef*%
%ADD17RoundRect,0.250000X-0.800000X-0.450000X0.800000X-0.450000X0.800000X0.450000X-0.800000X0.450000X0*%
%TD*%
%TA.AperFunction,SMDPad,CuDef*%
%ADD18RoundRect,0.250000X0.325000X0.650000X-0.325000X0.650000X-0.325000X-0.650000X0.325000X-0.650000X0*%
%TD*%
%TA.AperFunction,SMDPad,CuDef*%
%ADD19RoundRect,0.112500X0.187500X0.112500X-0.187500X0.112500X-0.187500X-0.112500X0.187500X-0.112500X0*%
%TD*%
%TA.AperFunction,SMDPad,CuDef*%
%ADD20RoundRect,0.150000X-0.512500X-0.150000X0.512500X-0.150000X0.512500X0.150000X-0.512500X0.150000X0*%
%TD*%
%TA.AperFunction,SMDPad,CuDef*%
%ADD21RoundRect,0.250000X0.325000X1.100000X-0.325000X1.100000X-0.325000X-1.100000X0.325000X-1.100000X0*%
%TD*%
%TA.AperFunction,SMDPad,CuDef*%
%ADD22RoundRect,0.200000X0.200000X0.275000X-0.200000X0.275000X-0.200000X-0.275000X0.200000X-0.275000X0*%
%TD*%
%TA.AperFunction,SMDPad,CuDef*%
%ADD23RoundRect,0.225000X0.225000X0.250000X-0.225000X0.250000X-0.225000X-0.250000X0.225000X-0.250000X0*%
%TD*%
%TA.AperFunction,SMDPad,CuDef*%
%ADD24RoundRect,0.200000X0.275000X-0.200000X0.275000X0.200000X-0.275000X0.200000X-0.275000X-0.200000X0*%
%TD*%
%TA.AperFunction,SMDPad,CuDef*%
%ADD25R,0.558800X1.625600*%
%TD*%
%TA.AperFunction,SMDPad,CuDef*%
%ADD26RoundRect,0.200000X-0.200000X-0.275000X0.200000X-0.275000X0.200000X0.275000X-0.200000X0.275000X0*%
%TD*%
%TA.AperFunction,SMDPad,CuDef*%
%ADD27RoundRect,0.112500X-0.187500X-0.112500X0.187500X-0.112500X0.187500X0.112500X-0.187500X0.112500X0*%
%TD*%
%TA.AperFunction,SMDPad,CuDef*%
%ADD28RoundRect,0.225000X-0.250000X0.225000X-0.250000X-0.225000X0.250000X-0.225000X0.250000X0.225000X0*%
%TD*%
%TA.AperFunction,SMDPad,CuDef*%
%ADD29RoundRect,0.112500X-0.112500X0.187500X-0.112500X-0.187500X0.112500X-0.187500X0.112500X0.187500X0*%
%TD*%
%TA.AperFunction,ComponentPad*%
%ADD30O,1.600000X2.500000*%
%TD*%
%TA.AperFunction,ComponentPad*%
%ADD31O,3.500000X7.000000*%
%TD*%
%TA.AperFunction,SMDPad,CuDef*%
%ADD32RoundRect,0.075000X-0.662500X-0.075000X0.662500X-0.075000X0.662500X0.075000X-0.662500X0.075000X0*%
%TD*%
%TA.AperFunction,SMDPad,CuDef*%
%ADD33RoundRect,0.075000X-0.075000X-0.662500X0.075000X-0.662500X0.075000X0.662500X-0.075000X0.662500X0*%
%TD*%
%TA.AperFunction,SMDPad,CuDef*%
%ADD34RoundRect,0.250000X-0.250000X-0.475000X0.250000X-0.475000X0.250000X0.475000X-0.250000X0.475000X0*%
%TD*%
%TA.AperFunction,SMDPad,CuDef*%
%ADD35RoundRect,0.218750X0.218750X0.256250X-0.218750X0.256250X-0.218750X-0.256250X0.218750X-0.256250X0*%
%TD*%
%TA.AperFunction,SMDPad,CuDef*%
%ADD36R,1.400000X1.200000*%
%TD*%
%TA.AperFunction,SMDPad,CuDef*%
%ADD37RoundRect,0.250000X-0.325000X-1.100000X0.325000X-1.100000X0.325000X1.100000X-0.325000X1.100000X0*%
%TD*%
%TA.AperFunction,SMDPad,CuDef*%
%ADD38RoundRect,0.250000X-0.312500X-0.625000X0.312500X-0.625000X0.312500X0.625000X-0.312500X0.625000X0*%
%TD*%
%TA.AperFunction,SMDPad,CuDef*%
%ADD39RoundRect,0.237500X0.237500X-0.300000X0.237500X0.300000X-0.237500X0.300000X-0.237500X-0.300000X0*%
%TD*%
%TA.AperFunction,SMDPad,CuDef*%
%ADD40RoundRect,0.250000X0.250000X0.475000X-0.250000X0.475000X-0.250000X-0.475000X0.250000X-0.475000X0*%
%TD*%
%TA.AperFunction,SMDPad,CuDef*%
%ADD41RoundRect,0.250000X-0.325000X-0.650000X0.325000X-0.650000X0.325000X0.650000X-0.325000X0.650000X0*%
%TD*%
%TA.AperFunction,SMDPad,CuDef*%
%ADD42RoundRect,0.250000X-1.100000X0.325000X-1.100000X-0.325000X1.100000X-0.325000X1.100000X0.325000X0*%
%TD*%
%TA.AperFunction,SMDPad,CuDef*%
%ADD43RoundRect,0.150000X0.425000X-0.150000X0.425000X0.150000X-0.425000X0.150000X-0.425000X-0.150000X0*%
%TD*%
%TA.AperFunction,SMDPad,CuDef*%
%ADD44RoundRect,0.075000X0.500000X-0.075000X0.500000X0.075000X-0.500000X0.075000X-0.500000X-0.075000X0*%
%TD*%
%TA.AperFunction,ComponentPad*%
%ADD45O,2.100000X1.000000*%
%TD*%
%TA.AperFunction,ComponentPad*%
%ADD46O,1.800000X1.000000*%
%TD*%
%TA.AperFunction,SMDPad,CuDef*%
%ADD47RoundRect,0.250001X-1.499999X0.949999X-1.499999X-0.949999X1.499999X-0.949999X1.499999X0.949999X0*%
%TD*%
%TA.AperFunction,SMDPad,CuDef*%
%ADD48RoundRect,0.150000X0.512500X0.150000X-0.512500X0.150000X-0.512500X-0.150000X0.512500X-0.150000X0*%
%TD*%
%TA.AperFunction,SMDPad,CuDef*%
%ADD49R,1.500000X1.100000*%
%TD*%
%TA.AperFunction,SMDPad,CuDef*%
%ADD50R,1.320800X0.558800*%
%TD*%
%TA.AperFunction,SMDPad,CuDef*%
%ADD51R,1.320800X0.508000*%
%TD*%
%TA.AperFunction,SMDPad,CuDef*%
%ADD52RoundRect,0.075000X0.075000X-0.650000X0.075000X0.650000X-0.075000X0.650000X-0.075000X-0.650000X0*%
%TD*%
%TA.AperFunction,ViaPad*%
%ADD53C,0.700000*%
%TD*%
%TA.AperFunction,Conductor*%
%ADD54C,0.307848*%
%TD*%
%TA.AperFunction,Conductor*%
%ADD55C,0.508000*%
%TD*%
%TA.AperFunction,Conductor*%
%ADD56C,0.200000*%
%TD*%
G04 APERTURE END LIST*
D10*
%TO.P,C311,1*%
%TO.N,Net-(C311-Pad1)*%
X100362500Y-105765735D03*
%TO.P,C311,2*%
%TO.N,GND*%
X101912500Y-105765735D03*
%TD*%
D11*
%TO.P,H4,1,1_1*%
%TO.N,unconnected-(H4-Pad1)*%
X119368000Y-129540000D03*
%TD*%
D12*
%TO.P,C206,1*%
%TO.N,V_BUS*%
X102400000Y-58575000D03*
%TO.P,C206,2*%
%TO.N,GND*%
X102400000Y-57025000D03*
%TD*%
D13*
%TO.P,J201,1,Pin_1_1*%
%TO.N,+3.3V*%
X80380000Y-43820000D03*
D14*
%TO.P,J201,2,Pin_2_2*%
%TO.N,/Mixed_Signal_Board_MCU/NRST*%
X80380000Y-41280000D03*
%TO.P,J201,3,Pin_3_3*%
%TO.N,GND*%
X82920000Y-43820000D03*
%TO.P,J201,4,Pin_4_4*%
%TO.N,Net-(J201-Pin_4)*%
X82920000Y-41280000D03*
%TO.P,J201,5,Pin_5_5*%
%TO.N,Net-(J201-Pin_5)*%
X85460000Y-43820000D03*
%TO.P,J201,6,Pin_6_6*%
%TO.N,Net-(J201-Pin_6)*%
X85460000Y-41280000D03*
%TD*%
D15*
%TO.P,R306,1*%
%TO.N,Net-(C312-Pad1)*%
X97137500Y-104440735D03*
%TO.P,R306,2*%
%TO.N,Net-(C311-Pad1)*%
X97137500Y-106090735D03*
%TD*%
D16*
%TO.P,U300,1,VREF_1*%
%TO.N,Net-(U1-OUT)*%
X102677931Y-88644738D03*
%TO.P,U300,2,+IN_2*%
%TO.N,/Mixed_Signal_Board_ADC/ADC_IN+*%
X103177931Y-88644738D03*
%TO.P,U300,3,-LN_3*%
%TO.N,/Mixed_Signal_Board_ADC/ADC_IN-*%
X103677931Y-88644738D03*
%TO.P,U300,4,GND-1_4*%
%TO.N,GND*%
X104177931Y-88644738D03*
%TO.P,U300,5,GND_5*%
X104677931Y-88644738D03*
%TO.P,U300,6,CS_6*%
%TO.N,/SPI_CS*%
X104677931Y-84344738D03*
%TO.P,U300,7,DOUT_7*%
%TO.N,/SPI_MISO*%
X104177931Y-84344738D03*
%TO.P,U300,8,SCLK_8*%
%TO.N,Net-(U300-SCLK)*%
X103677931Y-84344738D03*
%TO.P,U300,9,VLO_9*%
%TO.N,+3.3V*%
X103177931Y-84344738D03*
%TO.P,U300,10,VA_10*%
%TO.N,+3.3VA*%
X102677931Y-84344738D03*
%TD*%
D17*
%TO.P,SW1,1,1_1*%
%TO.N,GND*%
X59950000Y-40750000D03*
X69050000Y-40750000D03*
%TO.P,SW1,2,2_2*%
%TO.N,/Mixed_Signal_Board_MCU/NRST*%
X59950000Y-45250000D03*
X69050000Y-45250000D03*
%TD*%
D18*
%TO.P,C400,1*%
%TO.N,+3.3V*%
X64900000Y-79550000D03*
%TO.P,C400,2*%
%TO.N,GND*%
X61950000Y-79550000D03*
%TD*%
D19*
%TO.P,CR202,1*%
%TO.N,Net-(J201-Pin_5)*%
X85470000Y-46845000D03*
%TO.P,CR202,2*%
%TO.N,GND*%
X83370000Y-46845000D03*
%TD*%
D20*
%TO.P,U301,1*%
%TO.N,/Mixed_Signal_Board_ADC/IN_BUF_OUT*%
X110362500Y-98315735D03*
%TO.P,U301,2,V-_2*%
%TO.N,GND*%
X110362500Y-99265735D03*
%TO.P,U301,3,+_3*%
%TO.N,/Mixed_Signal_Board_ADC/IN_BUF*%
X110362500Y-100215735D03*
%TO.P,U301,4,-_4*%
%TO.N,/Mixed_Signal_Board_ADC/IN_BUF_OUT*%
X112637500Y-100215735D03*
%TO.P,U301,5,V+_5*%
%TO.N,+3.3VA*%
X112637500Y-98315735D03*
%TD*%
D11*
%TO.P,H3,1,1_1*%
%TO.N,unconnected-(H3-Pad1)*%
X54368000Y-129540000D03*
%TD*%
D21*
%TO.P,C107,1*%
%TO.N,V_BUS_Filtered*%
X105475000Y-41000000D03*
%TO.P,C107,2*%
%TO.N,GND*%
X102525000Y-41000000D03*
%TD*%
D22*
%TO.P,R203,1*%
%TO.N,/Mixed_Signal_Board_MCU/SWCLK*%
X89745000Y-46945000D03*
%TO.P,R203,2*%
%TO.N,Net-(J201-Pin_5)*%
X88095000Y-46945000D03*
%TD*%
D23*
%TO.P,C404,1*%
%TO.N,/Mixed_Signal_Board_DAC/OUT_AA_BUF_IN*%
X64912500Y-103000000D03*
%TO.P,C404,2*%
%TO.N,GND*%
X63362500Y-103000000D03*
%TD*%
%TO.P,C314,1*%
%TO.N,GND*%
X103668597Y-97500000D03*
%TO.P,C314,2*%
%TO.N,+3.3VA*%
X102118597Y-97500000D03*
%TD*%
%TO.P,C203,1*%
%TO.N,+3.3V*%
X80670000Y-58120000D03*
%TO.P,C203,2*%
%TO.N,GND*%
X79120000Y-58120000D03*
%TD*%
D18*
%TO.P,C305,1*%
%TO.N,Net-(U1-OUT)*%
X87025000Y-92050000D03*
%TO.P,C305,2*%
%TO.N,GND*%
X84075000Y-92050000D03*
%TD*%
D24*
%TO.P,R102,1*%
%TO.N,Net-(U101-FB)*%
X110000000Y-45675000D03*
%TO.P,R102,2*%
%TO.N,GND*%
X110000000Y-44025000D03*
%TD*%
D25*
%TO.P,U100,1,GND_1*%
%TO.N,GND*%
X86850001Y-82857000D03*
%TO.P,U100,2,VIN_2*%
%TO.N,Net-(U100-VIN)*%
X85900000Y-82857000D03*
%TO.P,U100,3,VOUT_3*%
%TO.N,+3.3VA*%
X84949999Y-82857000D03*
%TO.P,U100,4,NC_4*%
%TO.N,unconnected-(U100-NC-Pad4)*%
X84949999Y-85143000D03*
%TO.P,U100,5,NC_5*%
%TO.N,unconnected-(U100-NC-Pad5)*%
X86850001Y-85143000D03*
%TD*%
D26*
%TO.P,R212,1*%
%TO.N,/SPI2_NSS*%
X92195000Y-64920000D03*
%TO.P,R212,2*%
%TO.N,+3.3V*%
X93845000Y-64920000D03*
%TD*%
D27*
%TO.P,D400,1,A1_1*%
%TO.N,/Mixed_Signal_Board_DAC/OUT*%
X65950000Y-111530000D03*
%TO.P,D400,2,A2_2*%
%TO.N,GND*%
X68050000Y-111530000D03*
%TD*%
D28*
%TO.P,C210,1*%
%TO.N,GND*%
X80920000Y-62125000D03*
%TO.P,C210,2*%
%TO.N,Net-(U200-VDDA)*%
X80920000Y-63675000D03*
%TD*%
D29*
%TO.P,CR200,1*%
%TO.N,/Mixed_Signal_Board_MCU/NRST*%
X74850000Y-44425000D03*
%TO.P,CR200,2*%
%TO.N,GND*%
X74850000Y-46525000D03*
%TD*%
D28*
%TO.P,C405,1*%
%TO.N,Net-(C405-Pad1)*%
X64637500Y-99725000D03*
%TO.P,C405,2*%
%TO.N,/Mixed_Signal_Board_DAC/OUT_AA_BUF_OUT*%
X64637500Y-101275000D03*
%TD*%
D30*
%TO.P,J300,1,In_1*%
%TO.N,/Mixed_Signal_Board_ADC/IN*%
X107920000Y-116420000D03*
D31*
%TO.P,J300,2,Ext_2*%
%TO.N,GND*%
X113000000Y-121500000D03*
D30*
X110460000Y-116420000D03*
D31*
X102840000Y-121500000D03*
%TD*%
D10*
%TO.P,C208,1*%
%TO.N,GND*%
X63875000Y-47450000D03*
%TO.P,C208,2*%
%TO.N,/Mixed_Signal_Board_MCU/NRST*%
X65425000Y-47450000D03*
%TD*%
D23*
%TO.P,C213,1*%
%TO.N,GND*%
X71775000Y-59100000D03*
%TO.P,C213,2*%
%TO.N,Net-(C213-Pad2)*%
X70225000Y-59100000D03*
%TD*%
D32*
%TO.P,U200,1,VBAT_1*%
%TO.N,+3.3V*%
X83357500Y-58070000D03*
%TO.P,U200,2,PC13_2*%
%TO.N,unconnected-(U200-PC13-Pad2)*%
X83357500Y-58570000D03*
%TO.P,U200,3,PC14_3*%
%TO.N,unconnected-(U200-PC14-Pad3)*%
X83357500Y-59070000D03*
%TO.P,U200,4,PC15_4*%
%TO.N,unconnected-(U200-PC15-Pad4)*%
X83357500Y-59570000D03*
%TO.P,U200,5,PD0_5*%
%TO.N,Net-(U200-PD0)*%
X83357500Y-60070000D03*
%TO.P,U200,6,PD1_6*%
%TO.N,Net-(U200-PD1)*%
X83357500Y-60570000D03*
%TO.P,U200,7,NRST_7*%
%TO.N,/Mixed_Signal_Board_MCU/NRST*%
X83357500Y-61070000D03*
%TO.P,U200,8,VSSA_8*%
%TO.N,GND*%
X83357500Y-61570000D03*
%TO.P,U200,9,VDDA_9*%
%TO.N,Net-(U200-VDDA)*%
X83357500Y-62070000D03*
%TO.P,U200,10,PA0_10*%
%TO.N,unconnected-(U200-PA0-Pad10)*%
X83357500Y-62570000D03*
%TO.P,U200,11,PA1_11*%
%TO.N,unconnected-(U200-PA1-Pad11)*%
X83357500Y-63070000D03*
%TO.P,U200,12,PA2_12*%
%TO.N,unconnected-(U200-PA2-Pad12)*%
X83357500Y-63570000D03*
D33*
%TO.P,U200,13,PA3_13*%
%TO.N,unconnected-(U200-PA3-Pad13)*%
X84770000Y-64982500D03*
%TO.P,U200,14,PA4_14*%
%TO.N,/SPI_CS*%
X85270000Y-64982500D03*
%TO.P,U200,15,PA5_15*%
%TO.N,/SPI_CLK*%
X85770000Y-64982500D03*
%TO.P,U200,16,PA6_16*%
%TO.N,/SPI_MISO*%
X86270000Y-64982500D03*
%TO.P,U200,17,PA7_17*%
%TO.N,unconnected-(U200-PA7-Pad17)*%
X86770000Y-64982500D03*
%TO.P,U200,18,PB0_18*%
%TO.N,unconnected-(U200-PB0-Pad18)*%
X87270000Y-64982500D03*
%TO.P,U200,19,PB1_19*%
%TO.N,unconnected-(U200-PB1-Pad19)*%
X87770000Y-64982500D03*
%TO.P,U200,20,PB2_20*%
%TO.N,/DAC_NLDAC*%
X88270000Y-64982500D03*
%TO.P,U200,21,PB10_21*%
%TO.N,/DAC_NCLR*%
X88770000Y-64982500D03*
%TO.P,U200,22,PB11_22*%
%TO.N,unconnected-(U200-PB11-Pad22)*%
X89270000Y-64982500D03*
%TO.P,U200,23,VSS_23*%
%TO.N,GND*%
X89770000Y-64982500D03*
%TO.P,U200,24,VDD_24*%
%TO.N,+3.3V*%
X90270000Y-64982500D03*
D32*
%TO.P,U200,25,PB12_25*%
%TO.N,/SPI2_NSS*%
X91682500Y-63570000D03*
%TO.P,U200,26,PB13_26*%
%TO.N,/SPI2_SCK*%
X91682500Y-63070000D03*
%TO.P,U200,27,PB14_27*%
%TO.N,unconnected-(U200-PB14-Pad27)*%
X91682500Y-62570000D03*
%TO.P,U200,28,PB15_28*%
%TO.N,/SPI2_MOSI*%
X91682500Y-62070000D03*
%TO.P,U200,29,PA8_29*%
%TO.N,unconnected-(U200-PA8-Pad29)*%
X91682500Y-61570000D03*
%TO.P,U200,30,PA9_30*%
%TO.N,unconnected-(U200-PA9-Pad30)*%
X91682500Y-61070000D03*
%TO.P,U200,31,PA10_31*%
%TO.N,unconnected-(U200-PA10-Pad31)*%
X91682500Y-60570000D03*
%TO.P,U200,32,PA11_32*%
%TO.N,/Mixed_Signal_Board_MCU/USB_N*%
X91682500Y-60070000D03*
%TO.P,U200,33,PA12_33*%
%TO.N,/Mixed_Signal_Board_MCU/USB_P*%
X91682500Y-59570000D03*
%TO.P,U200,34,PA13_34*%
%TO.N,/Mixed_Signal_Board_MCU/SWDIO*%
X91682500Y-59070000D03*
%TO.P,U200,35,VSS_35*%
%TO.N,GND*%
X91682500Y-58570000D03*
%TO.P,U200,36,VDD_36*%
%TO.N,+3.3V*%
X91682500Y-58070000D03*
D33*
%TO.P,U200,37,PA14_37*%
%TO.N,/Mixed_Signal_Board_MCU/SWCLK*%
X90270000Y-56657500D03*
%TO.P,U200,38,PA15_38*%
%TO.N,unconnected-(U200-PA15-Pad38)*%
X89770000Y-56657500D03*
%TO.P,U200,39,PB3_39*%
%TO.N,/Mixed_Signal_Board_MCU/SWO*%
X89270000Y-56657500D03*
%TO.P,U200,40,PB4_40*%
%TO.N,unconnected-(U200-PB4-Pad40)*%
X88770000Y-56657500D03*
%TO.P,U200,41,PB5_41*%
%TO.N,unconnected-(U200-PB5-Pad41)*%
X88270000Y-56657500D03*
%TO.P,U200,42,PB6_42*%
%TO.N,/Mixed_Signal_Board_MCU/TIM4_CH1*%
X87770000Y-56657500D03*
%TO.P,U200,43,PB7_43*%
%TO.N,/Mixed_Signal_Board_MCU/TIM4_CH2*%
X87270000Y-56657500D03*
%TO.P,U200,44,BOOT0_44*%
%TO.N,Net-(U200-BOOT0)*%
X86770000Y-56657500D03*
%TO.P,U200,45,PB8_45*%
%TO.N,/Mixed_Signal_Board_MCU/TIM4_CH3*%
X86270000Y-56657500D03*
%TO.P,U200,46,PB9_46*%
%TO.N,unconnected-(U200-PB9-Pad46)*%
X85770000Y-56657500D03*
%TO.P,U200,47,VSS_47*%
%TO.N,GND*%
X85270000Y-56657500D03*
%TO.P,U200,48,VDD_48*%
%TO.N,+3.3V*%
X84770000Y-56657500D03*
%TD*%
D34*
%TO.P,C102,1*%
%TO.N,Net-(U100-VIN)*%
X86050000Y-80000000D03*
%TO.P,C102,2*%
%TO.N,GND*%
X87950000Y-80000000D03*
%TD*%
D18*
%TO.P,C300,1*%
%TO.N,+3.3VA*%
X100827931Y-81494738D03*
%TO.P,C300,2*%
%TO.N,GND*%
X97877931Y-81494738D03*
%TD*%
D35*
%TO.P,D100,1,K_1*%
%TO.N,GND*%
X117212500Y-75260000D03*
%TO.P,D100,2,A_2*%
%TO.N,Net-(D100-A)*%
X115637500Y-75260000D03*
%TD*%
D23*
%TO.P,C301,1*%
%TO.N,+3.3VA*%
X100952931Y-83494738D03*
%TO.P,C301,2*%
%TO.N,GND*%
X99402931Y-83494738D03*
%TD*%
D10*
%TO.P,C214,1*%
%TO.N,GND*%
X70825000Y-53000000D03*
%TO.P,C214,2*%
%TO.N,Net-(U200-PD0)*%
X72375000Y-53000000D03*
%TD*%
D20*
%TO.P,U302,1*%
%TO.N,/Mixed_Signal_Board_ADC/IN_AA_BUF_OUT*%
X98000000Y-97315735D03*
%TO.P,U302,2,V-_2*%
%TO.N,GND*%
X98000000Y-98265735D03*
%TO.P,U302,3,+_3*%
%TO.N,/Mixed_Signal_Board_ADC/IN_AA_BUF_IN*%
X98000000Y-99215735D03*
%TO.P,U302,4,-_4*%
%TO.N,/Mixed_Signal_Board_ADC/IN_AA_BUF_OUT*%
X100275000Y-99215735D03*
%TO.P,U302,5,V+_5*%
%TO.N,+3.3VA*%
X100275000Y-97315735D03*
%TD*%
D23*
%TO.P,C403,1*%
%TO.N,GND*%
X64412500Y-94000000D03*
%TO.P,C403,2*%
%TO.N,Net-(C403-Pad2)*%
X62862500Y-94000000D03*
%TD*%
D10*
%TO.P,C308,1*%
%TO.N,/Mixed_Signal_Board_ADC/IN_RF*%
X110225000Y-102265735D03*
%TO.P,C308,2*%
%TO.N,GND*%
X111775000Y-102265735D03*
%TD*%
D24*
%TO.P,R309,1*%
%TO.N,VCOM*%
X105850000Y-93400000D03*
%TO.P,R309,2*%
%TO.N,/Mixed_Signal_Board_ADC/ADC_IN-*%
X105850000Y-91750000D03*
%TD*%
D15*
%TO.P,R400,1*%
%TO.N,/SPI2_SCK*%
X96000000Y-64850000D03*
%TO.P,R400,2*%
%TO.N,/Mixed_Signal_Board_DAC/DAC_SCLK*%
X96000000Y-66500000D03*
%TD*%
D22*
%TO.P,R207,1*%
%TO.N,/Mixed_Signal_Board_MCU/TIM4_CH2*%
X59650000Y-60500000D03*
%TO.P,R207,2*%
%TO.N,Net-(D1-GK)*%
X58000000Y-60500000D03*
%TD*%
D24*
%TO.P,R101,1*%
%TO.N,+3.3V*%
X110000000Y-49700000D03*
%TO.P,R101,2*%
%TO.N,Net-(U101-FB)*%
X110000000Y-48050000D03*
%TD*%
D22*
%TO.P,R200,1*%
%TO.N,Net-(J200-CC2)*%
X105525000Y-60400000D03*
%TO.P,R200,2*%
%TO.N,GND*%
X103875000Y-60400000D03*
%TD*%
%TO.P,R202,1*%
%TO.N,/Mixed_Signal_Board_MCU/SWDIO*%
X90095000Y-41045000D03*
%TO.P,R202,2*%
%TO.N,Net-(J201-Pin_6)*%
X88445000Y-41045000D03*
%TD*%
%TO.P,R201,1*%
%TO.N,Net-(J200-CC1)*%
X105525000Y-65700000D03*
%TO.P,R201,2*%
%TO.N,GND*%
X103875000Y-65700000D03*
%TD*%
D24*
%TO.P,R209,1*%
%TO.N,Net-(U200-BOOT0)*%
X86820000Y-54545000D03*
%TO.P,R209,2*%
%TO.N,GND*%
X86820000Y-52895000D03*
%TD*%
D26*
%TO.P,R210,1*%
%TO.N,Net-(C213-Pad2)*%
X70175000Y-60700000D03*
%TO.P,R210,2*%
%TO.N,Net-(U200-PD1)*%
X71825000Y-60700000D03*
%TD*%
D24*
%TO.P,R404,1*%
%TO.N,/Mixed_Signal_Board_DAC/OUT_AA_BUF_IN*%
X62800000Y-101325000D03*
%TO.P,R404,2*%
%TO.N,Net-(C405-Pad1)*%
X62800000Y-99675000D03*
%TD*%
D35*
%TO.P,D101,1,K_1*%
%TO.N,GND*%
X117318750Y-78200000D03*
%TO.P,D101,2,A_2*%
%TO.N,Net-(D101-A)*%
X115743750Y-78200000D03*
%TD*%
D36*
%TO.P,Y200,1*%
%TO.N,Net-(U200-PD0)*%
X72600000Y-55650000D03*
%TO.P,Y200,2*%
%TO.N,GND*%
X70400000Y-55650000D03*
%TO.P,Y200,3*%
%TO.N,Net-(C213-Pad2)*%
X70400000Y-57350000D03*
%TO.P,Y200,4*%
%TO.N,GND*%
X72600000Y-57350000D03*
%TD*%
D37*
%TO.P,C103,1*%
%TO.N,Net-(U100-VIN)*%
X86025000Y-77000000D03*
%TO.P,C103,2*%
%TO.N,GND*%
X88975000Y-77000000D03*
%TD*%
D10*
%TO.P,C201,1*%
%TO.N,+3.3V*%
X93825000Y-58000000D03*
%TO.P,C201,2*%
%TO.N,GND*%
X95375000Y-58000000D03*
%TD*%
D22*
%TO.P,R303,1*%
%TO.N,GND*%
X111825000Y-105265735D03*
%TO.P,R303,2*%
%TO.N,/Mixed_Signal_Board_ADC/IN_RF*%
X110175000Y-105265735D03*
%TD*%
D38*
%TO.P,R100,1*%
%TO.N,Net-(U100-VIN)*%
X86037500Y-74000000D03*
%TO.P,R100,2*%
%TO.N,V_BUS_Filtered*%
X88962500Y-74000000D03*
%TD*%
D10*
%TO.P,C315,1*%
%TO.N,/Mixed_Signal_Board_ADC/ADC_IN+*%
X102650000Y-91744738D03*
%TO.P,C315,2*%
%TO.N,/Mixed_Signal_Board_ADC/ADC_IN-*%
X104200000Y-91744738D03*
%TD*%
D23*
%TO.P,C401,1*%
%TO.N,+3.3V*%
X65050000Y-81850000D03*
%TO.P,C401,2*%
%TO.N,GND*%
X63500000Y-81850000D03*
%TD*%
D39*
%TO.P,C109,1*%
%TO.N,+3.3V*%
X112000000Y-49737500D03*
%TO.P,C109,2*%
%TO.N,Net-(U101-FB)*%
X112000000Y-48012500D03*
%TD*%
D12*
%TO.P,C408,1*%
%TO.N,GND*%
X67500000Y-73775000D03*
%TO.P,C408,2*%
%TO.N,VCOM*%
X67500000Y-72225000D03*
%TD*%
D40*
%TO.P,C309,1*%
%TO.N,/Mixed_Signal_Board_ADC/IN_RF*%
X108450000Y-102200000D03*
%TO.P,C309,2*%
%TO.N,/Mixed_Signal_Board_ADC/IN_BUF*%
X106550000Y-102200000D03*
%TD*%
D41*
%TO.P,C302,1*%
%TO.N,+3.3V*%
X103282773Y-80085637D03*
%TO.P,C302,2*%
%TO.N,GND*%
X106232773Y-80085637D03*
%TD*%
D15*
%TO.P,R106,1*%
%TO.N,Net-(U102-+)*%
X60000000Y-73500000D03*
%TO.P,R106,2*%
%TO.N,GND*%
X60000000Y-75150000D03*
%TD*%
D27*
%TO.P,D300,1,A1_1*%
%TO.N,/Mixed_Signal_Board_ADC/IN*%
X107950000Y-111500000D03*
%TO.P,D300,2,A2_2*%
%TO.N,GND*%
X110050000Y-111500000D03*
%TD*%
D40*
%TO.P,C104,1*%
%TO.N,+3.3VA*%
X82450000Y-82500000D03*
%TO.P,C104,2*%
%TO.N,GND*%
X80550000Y-82500000D03*
%TD*%
D42*
%TO.P,C108,1*%
%TO.N,+3.3V*%
X106200000Y-51325000D03*
%TO.P,C108,2*%
%TO.N,GND*%
X106200000Y-54275000D03*
%TD*%
D26*
%TO.P,R104,1*%
%TO.N,+3.3V*%
X112175000Y-81100000D03*
%TO.P,R104,2*%
%TO.N,Net-(D102-A)*%
X113825000Y-81100000D03*
%TD*%
%TO.P,R305,1*%
%TO.N,Net-(C311-Pad1)*%
X97312500Y-107765735D03*
%TO.P,R305,2*%
%TO.N,/Mixed_Signal_Board_ADC/IN_BUF_OUT*%
X98962500Y-107765735D03*
%TD*%
D20*
%TO.P,U102,1*%
%TO.N,VCOM*%
X62862500Y-70050000D03*
%TO.P,U102,2,V-_2*%
%TO.N,GND*%
X62862500Y-71000000D03*
%TO.P,U102,3,+_3*%
%TO.N,Net-(U102-+)*%
X62862500Y-71950000D03*
%TO.P,U102,4,-_4*%
%TO.N,VCOM*%
X65137500Y-71950000D03*
%TO.P,U102,5,V+_5*%
%TO.N,+3.3VA*%
X65137500Y-70050000D03*
%TD*%
D18*
%TO.P,C205,1*%
%TO.N,+3.3V*%
X80570000Y-56120000D03*
%TO.P,C205,2*%
%TO.N,GND*%
X77620000Y-56120000D03*
%TD*%
D10*
%TO.P,C407,1*%
%TO.N,GND*%
X63225000Y-67000000D03*
%TO.P,C407,2*%
%TO.N,+3.3VA*%
X64775000Y-67000000D03*
%TD*%
D24*
%TO.P,FB200,1*%
%TO.N,Net-(U200-VDDA)*%
X77720000Y-63725000D03*
%TO.P,FB200,2*%
%TO.N,+3.3V*%
X77720000Y-62075000D03*
%TD*%
D22*
%TO.P,R211,1*%
%TO.N,/SPI_CS*%
X84745000Y-66920000D03*
%TO.P,R211,2*%
%TO.N,+3.3V*%
X83095000Y-66920000D03*
%TD*%
D20*
%TO.P,U101,1,EN_1*%
%TO.N,V_BUS_Filtered*%
X105362500Y-46550000D03*
%TO.P,U101,2,GND_2*%
%TO.N,GND*%
X105362500Y-47500000D03*
%TO.P,U101,3,SW_3*%
%TO.N,Net-(U101-SW)*%
X105362500Y-48450000D03*
%TO.P,U101,4,VIN_4*%
%TO.N,V_BUS_Filtered*%
X107637500Y-48450000D03*
%TO.P,U101,5,FB_5*%
%TO.N,Net-(U101-FB)*%
X107637500Y-46550000D03*
%TD*%
D22*
%TO.P,R204,1*%
%TO.N,/Mixed_Signal_Board_MCU/SWO*%
X93720000Y-41045000D03*
%TO.P,R204,2*%
%TO.N,Net-(J201-Pin_4)*%
X92070000Y-41045000D03*
%TD*%
D41*
%TO.P,C307,1*%
%TO.N,V_BUS*%
X84075000Y-104550000D03*
%TO.P,C307,2*%
%TO.N,GND*%
X87025000Y-104550000D03*
%TD*%
D23*
%TO.P,C406,1*%
%TO.N,GND*%
X72912500Y-100500000D03*
%TO.P,C406,2*%
%TO.N,+3.3VA*%
X71362500Y-100500000D03*
%TD*%
D40*
%TO.P,C207,1*%
%TO.N,/Mixed_Signal_Board_MCU/NRST*%
X65400000Y-49250000D03*
%TO.P,C207,2*%
%TO.N,GND*%
X63500000Y-49250000D03*
%TD*%
D15*
%TO.P,R307,1*%
%TO.N,/Mixed_Signal_Board_ADC/IN_AA_BUF_IN*%
X97137500Y-100940735D03*
%TO.P,R307,2*%
%TO.N,Net-(C312-Pad1)*%
X97137500Y-102590735D03*
%TD*%
D26*
%TO.P,R301,1*%
%TO.N,V_BUS*%
X83905000Y-102550000D03*
%TO.P,R301,2*%
%TO.N,Net-(U1-IN)*%
X85555000Y-102550000D03*
%TD*%
D43*
%TO.P,J200,A1,GND_A1*%
%TO.N,GND*%
X112245000Y-63880000D03*
%TO.P,J200,A4,VBUS_A4*%
%TO.N,V_BUS*%
X112245000Y-63080000D03*
D44*
%TO.P,J200,A5,CC1_A5*%
%TO.N,Net-(J200-CC1)*%
X112245000Y-61930000D03*
%TO.P,J200,A6,D+_A6*%
%TO.N,/Mixed_Signal_Board_MCU/USB_Conn_P*%
X112245000Y-60930000D03*
%TO.P,J200,A7,D-_A7*%
%TO.N,/Mixed_Signal_Board_MCU/USB_Conn_N*%
X112245000Y-60430000D03*
%TO.P,J200,A8,SBU1_A8*%
%TO.N,unconnected-(J200-SBU1-PadA8)*%
X112245000Y-59430000D03*
D43*
%TO.P,J200,A9,VBUS_A9*%
%TO.N,V_BUS*%
X112245000Y-58280000D03*
%TO.P,J200,A12,GND_A12*%
%TO.N,GND*%
X112245000Y-57480000D03*
%TO.P,J200,B1,GND_B1*%
X112245000Y-57480000D03*
%TO.P,J200,B4,VBUS_B4*%
%TO.N,V_BUS*%
X112245000Y-58280000D03*
D44*
%TO.P,J200,B5,CC2_B5*%
%TO.N,Net-(J200-CC2)*%
X112245000Y-58930000D03*
%TO.P,J200,B6,D+_B6*%
%TO.N,/Mixed_Signal_Board_MCU/USB_Conn_P*%
X112245000Y-59930000D03*
%TO.P,J200,B7,D-_B7*%
%TO.N,/Mixed_Signal_Board_MCU/USB_Conn_N*%
X112245000Y-61430000D03*
%TO.P,J200,B8,SBU2_B8*%
%TO.N,unconnected-(J200-SBU2-PadB8)*%
X112245000Y-62430000D03*
D43*
%TO.P,J200,B9,VBUS_B9*%
%TO.N,V_BUS*%
X112245000Y-63080000D03*
%TO.P,J200,B12,GND_B12*%
%TO.N,GND*%
X112245000Y-63880000D03*
D45*
%TO.P,J200,SH,SHIELD_SH*%
X112820000Y-65000000D03*
D46*
X117000000Y-65000000D03*
D45*
X112820000Y-56360000D03*
D46*
X117000000Y-56360000D03*
%TD*%
D20*
%TO.P,U401,1*%
%TO.N,/Mixed_Signal_Board_DAC/OUT_AA_BUF_OUT*%
X67000000Y-100550000D03*
%TO.P,U401,2,V-_2*%
%TO.N,GND*%
X67000000Y-101500000D03*
%TO.P,U401,3,+_3*%
%TO.N,/Mixed_Signal_Board_DAC/OUT_AA_BUF_IN*%
X67000000Y-102450000D03*
%TO.P,U401,4,-_4*%
%TO.N,/Mixed_Signal_Board_DAC/OUT_AA_BUF_OUT*%
X69275000Y-102450000D03*
%TO.P,U401,5,V+_5*%
%TO.N,+3.3VA*%
X69275000Y-100550000D03*
%TD*%
D11*
%TO.P,H2,1,1_1*%
%TO.N,unconnected-(H2-Pad1)*%
X119500000Y-37500000D03*
%TD*%
D28*
%TO.P,C211,1*%
%TO.N,GND*%
X79320000Y-62125000D03*
%TO.P,C211,2*%
%TO.N,Net-(U200-VDDA)*%
X79320000Y-63675000D03*
%TD*%
D12*
%TO.P,C313,1*%
%TO.N,/Mixed_Signal_Board_ADC/IN_AA_BUF_IN*%
X96137500Y-99040735D03*
%TO.P,C313,2*%
%TO.N,GND*%
X96137500Y-97490735D03*
%TD*%
D26*
%TO.P,R107,1*%
%TO.N,V_BUS*%
X112140000Y-75260000D03*
%TO.P,R107,2*%
%TO.N,Net-(D100-A)*%
X113790000Y-75260000D03*
%TD*%
D23*
%TO.P,C204,1*%
%TO.N,+3.3V*%
X91275000Y-67000000D03*
%TO.P,C204,2*%
%TO.N,GND*%
X89725000Y-67000000D03*
%TD*%
D26*
%TO.P,R402,1*%
%TO.N,Net-(C403-Pad2)*%
X62812500Y-91035000D03*
%TO.P,R402,2*%
%TO.N,/Mixed_Signal_Board_DAC/DAC_OUT_A*%
X64462500Y-91035000D03*
%TD*%
D40*
%TO.P,C106,1*%
%TO.N,V_BUS_Filtered*%
X105450000Y-44000000D03*
%TO.P,C106,2*%
%TO.N,GND*%
X103550000Y-44000000D03*
%TD*%
D15*
%TO.P,R105,1*%
%TO.N,+3.3VA*%
X60000000Y-70000000D03*
%TO.P,R105,2*%
%TO.N,Net-(U102-+)*%
X60000000Y-71650000D03*
%TD*%
D22*
%TO.P,R403,1*%
%TO.N,Net-(C405-Pad1)*%
X64462500Y-97000000D03*
%TO.P,R403,2*%
%TO.N,Net-(C403-Pad2)*%
X62812500Y-97000000D03*
%TD*%
D24*
%TO.P,R302,1*%
%TO.N,/Mixed_Signal_Board_ADC/IN*%
X108000000Y-107090735D03*
%TO.P,R302,2*%
%TO.N,/Mixed_Signal_Board_ADC/IN_RF*%
X108000000Y-105440735D03*
%TD*%
D47*
%TO.P,L100,1,1_1*%
%TO.N,Net-(U101-SW)*%
X100525000Y-47275000D03*
%TO.P,L100,2,2_2*%
%TO.N,+3.3V*%
X100525000Y-53275000D03*
%TD*%
D10*
%TO.P,C402,1*%
%TO.N,GND*%
X61862500Y-84035000D03*
%TO.P,C402,2*%
%TO.N,/Mixed_Signal_Board_DAC/DAC_VREF*%
X63412500Y-84035000D03*
%TD*%
D21*
%TO.P,C105,1*%
%TO.N,+3.3VA*%
X82475000Y-79500000D03*
%TO.P,C105,2*%
%TO.N,GND*%
X79525000Y-79500000D03*
%TD*%
D48*
%TO.P,U201,1,I/O1_1*%
%TO.N,/Mixed_Signal_Board_MCU/USB_Conn_N*%
X103637500Y-63950000D03*
%TO.P,U201,2,GND_2*%
%TO.N,GND*%
X103637500Y-63000000D03*
%TO.P,U201,3,I/O2_3*%
%TO.N,/Mixed_Signal_Board_MCU/USB_Conn_P*%
X103637500Y-62050000D03*
%TO.P,U201,4,I/O2_4*%
%TO.N,/Mixed_Signal_Board_MCU/USB_P*%
X101362500Y-62050000D03*
%TO.P,U201,5,VBUS_5*%
%TO.N,V_BUS*%
X101362500Y-63000000D03*
%TO.P,U201,6,I/O1_6*%
%TO.N,/Mixed_Signal_Board_MCU/USB_N*%
X101362500Y-63950000D03*
%TD*%
D49*
%TO.P,D1,1,A_1*%
%TO.N,+3.3V*%
X61125000Y-55950000D03*
%TO.P,D1,2,BK_2*%
%TO.N,Net-(D1-BK)*%
X58125000Y-55950000D03*
%TO.P,D1,3,GK_3*%
%TO.N,Net-(D1-GK)*%
X58125000Y-54450000D03*
%TO.P,D1,4,RK_4*%
%TO.N,Net-(D1-RK)*%
X61125000Y-54450000D03*
%TD*%
D40*
%TO.P,C101,1*%
%TO.N,V_BUS_Filtered*%
X114475000Y-71280000D03*
%TO.P,C101,2*%
%TO.N,GND*%
X112575000Y-71280000D03*
%TD*%
D10*
%TO.P,C202,1*%
%TO.N,+3.3V*%
X83445000Y-54420000D03*
%TO.P,C202,2*%
%TO.N,GND*%
X84995000Y-54420000D03*
%TD*%
D26*
%TO.P,FB100,1*%
%TO.N,V_BUS*%
X112600000Y-69380000D03*
%TO.P,FB100,2*%
%TO.N,V_BUS_Filtered*%
X114250000Y-69380000D03*
%TD*%
D41*
%TO.P,C304,1*%
%TO.N,Net-(U1-IN)*%
X84075000Y-100550000D03*
%TO.P,C304,2*%
%TO.N,GND*%
X87025000Y-100550000D03*
%TD*%
D23*
%TO.P,C306,1*%
%TO.N,Net-(U1-OUT)*%
X85505000Y-94050000D03*
%TO.P,C306,2*%
%TO.N,GND*%
X83955000Y-94050000D03*
%TD*%
D50*
%TO.P,U1,1,IN_1*%
%TO.N,Net-(U1-IN)*%
X84142200Y-97989800D03*
%TO.P,U1,2,OUT_2*%
%TO.N,Net-(U1-OUT)*%
X84142200Y-96110200D03*
D51*
%TO.P,U1,3,GND_3*%
%TO.N,GND*%
X81957800Y-97050000D03*
%TD*%
D24*
%TO.P,R308,1*%
%TO.N,/Mixed_Signal_Board_ADC/IN_AA_BUF_OUT*%
X100975000Y-93325000D03*
%TO.P,R308,2*%
%TO.N,/Mixed_Signal_Board_ADC/ADC_IN+*%
X100975000Y-91675000D03*
%TD*%
D26*
%TO.P,R401,1*%
%TO.N,/Mixed_Signal_Board_DAC/DAC_OUT_B*%
X65987500Y-91035000D03*
%TO.P,R401,2*%
%TO.N,GND*%
X67637500Y-91035000D03*
%TD*%
D29*
%TO.P,CR201,1*%
%TO.N,Net-(J201-Pin_4)*%
X92120000Y-42595000D03*
%TO.P,CR201,2*%
%TO.N,GND*%
X92120000Y-44695000D03*
%TD*%
D10*
%TO.P,C212,1*%
%TO.N,+3.3V*%
X63350000Y-55700000D03*
%TO.P,C212,2*%
%TO.N,GND*%
X64900000Y-55700000D03*
%TD*%
D29*
%TO.P,CR203,1*%
%TO.N,Net-(J201-Pin_6)*%
X88570000Y-42595000D03*
%TO.P,CR203,2*%
%TO.N,GND*%
X88570000Y-44695000D03*
%TD*%
D26*
%TO.P,R300,1*%
%TO.N,Net-(U300-SCLK)*%
X83095000Y-68600000D03*
%TO.P,R300,2*%
%TO.N,/SPI_CLK*%
X84745000Y-68600000D03*
%TD*%
D35*
%TO.P,D102,1,K_1*%
%TO.N,GND*%
X117287500Y-81180000D03*
%TO.P,D102,2,A_2*%
%TO.N,Net-(D102-A)*%
X115712500Y-81180000D03*
%TD*%
D10*
%TO.P,C303,1*%
%TO.N,+3.3V*%
X103162128Y-82169200D03*
%TO.P,C303,2*%
%TO.N,GND*%
X104712128Y-82169200D03*
%TD*%
D26*
%TO.P,R103,1*%
%TO.N,+3.3VA*%
X112206250Y-78200000D03*
%TO.P,R103,2*%
%TO.N,Net-(D101-A)*%
X113856250Y-78200000D03*
%TD*%
D23*
%TO.P,C310,1*%
%TO.N,GND*%
X116275000Y-98265735D03*
%TO.P,C310,2*%
%TO.N,+3.3VA*%
X114725000Y-98265735D03*
%TD*%
D52*
%TO.P,U400,1,VOUT_A_1*%
%TO.N,/Mixed_Signal_Board_DAC/DAC_OUT_A*%
X65137500Y-88650000D03*
%TO.P,U400,2,VOUT_B_2*%
%TO.N,/Mixed_Signal_Board_DAC/DAC_OUT_B*%
X65637500Y-88650000D03*
%TO.P,U400,3,GND_3*%
%TO.N,GND*%
X66137500Y-88650000D03*
%TO.P,U400,4,NLDAC_4*%
%TO.N,/DAC_NLDAC*%
X66637500Y-88650000D03*
%TO.P,U400,5,NCLR_5*%
%TO.N,/DAC_NCLR*%
X67137500Y-88650000D03*
%TO.P,U400,6,NSYNC_6*%
%TO.N,/SPI2_NSS*%
X67137500Y-84350000D03*
%TO.P,U400,7,SCLK_7*%
%TO.N,/Mixed_Signal_Board_DAC/DAC_SCLK*%
X66637500Y-84350000D03*
%TO.P,U400,8,DIN_8*%
%TO.N,/SPI2_MOSI*%
X66137500Y-84350000D03*
%TO.P,U400,9,AVDD_9*%
%TO.N,+3.3V*%
X65637500Y-84350000D03*
%TO.P,U400,10,VREFIN/VREFOUT_10*%
%TO.N,/Mixed_Signal_Board_DAC/DAC_VREF*%
X65137500Y-84350000D03*
%TD*%
D12*
%TO.P,C209,1*%
%TO.N,GND*%
X76120000Y-63675000D03*
%TO.P,C209,2*%
%TO.N,+3.3V*%
X76120000Y-62125000D03*
%TD*%
D34*
%TO.P,C100,1*%
%TO.N,V_BUS*%
X112575000Y-67480000D03*
%TO.P,C100,2*%
%TO.N,GND*%
X114475000Y-67480000D03*
%TD*%
D22*
%TO.P,R208,1*%
%TO.N,/Mixed_Signal_Board_MCU/TIM4_CH3*%
X59650000Y-58500000D03*
%TO.P,R208,2*%
%TO.N,Net-(D1-BK)*%
X58000000Y-58500000D03*
%TD*%
D11*
%TO.P,H1,1,1_1*%
%TO.N,unconnected-(H1-Pad1)*%
X54500000Y-37500000D03*
%TD*%
D15*
%TO.P,R205,1*%
%TO.N,/Mixed_Signal_Board_MCU/NRST*%
X67150000Y-47425000D03*
%TO.P,R205,2*%
%TO.N,+3.3V*%
X67150000Y-49075000D03*
%TD*%
D22*
%TO.P,R304,1*%
%TO.N,/Mixed_Signal_Board_ADC/IN_BUF*%
X108325000Y-100100000D03*
%TO.P,R304,2*%
%TO.N,VCOM*%
X106675000Y-100100000D03*
%TD*%
D30*
%TO.P,J400,1,In_1*%
%TO.N,/Mixed_Signal_Board_DAC/OUT*%
X66080000Y-116420000D03*
D31*
%TO.P,J400,2,Ext_2*%
%TO.N,GND*%
X71160000Y-121500000D03*
D30*
X68620000Y-116420000D03*
D31*
X61000000Y-121500000D03*
%TD*%
D10*
%TO.P,C312,1*%
%TO.N,Net-(C312-Pad1)*%
X98843597Y-102500000D03*
%TO.P,C312,2*%
%TO.N,/Mixed_Signal_Board_ADC/IN_AA_BUF_OUT*%
X100393597Y-102500000D03*
%TD*%
D22*
%TO.P,R206,1*%
%TO.N,/Mixed_Signal_Board_MCU/TIM4_CH1*%
X59650000Y-62500000D03*
%TO.P,R206,2*%
%TO.N,Net-(D1-RK)*%
X58000000Y-62500000D03*
%TD*%
D26*
%TO.P,R405,1*%
%TO.N,/Mixed_Signal_Board_DAC/OUT*%
X66675000Y-106500000D03*
%TO.P,R405,2*%
%TO.N,/Mixed_Signal_Board_DAC/OUT_AA_BUF_OUT*%
X68325000Y-106500000D03*
%TD*%
D53*
%TO.N,GND*%
X90257487Y-58591297D03*
X88600000Y-101900000D03*
X85250000Y-58250000D03*
X96520000Y-71120000D03*
X81675000Y-95000000D03*
X71120000Y-116840000D03*
X76200000Y-40640000D03*
X101600000Y-111760000D03*
X101150000Y-41850000D03*
X60750000Y-78125000D03*
X65750000Y-101525000D03*
X86360000Y-116840000D03*
X82675000Y-93025000D03*
X90350000Y-45750000D03*
X90625000Y-80725000D03*
X87884000Y-59182000D03*
X55880000Y-96520000D03*
X116840000Y-106680000D03*
X58150000Y-40750000D03*
X106680000Y-111760000D03*
X91440000Y-76200000D03*
X61400000Y-71000000D03*
X96520000Y-111760000D03*
X60960000Y-96520000D03*
X74175000Y-100550000D03*
X60960000Y-101600000D03*
X60960000Y-116840000D03*
X86360000Y-111760000D03*
X76200000Y-101600000D03*
X101600000Y-101600000D03*
X96250000Y-80625000D03*
X116840000Y-45720000D03*
X60960000Y-81280000D03*
X55880000Y-81280000D03*
X71120000Y-91440000D03*
X65895419Y-86950000D03*
X91440000Y-121920000D03*
X102450000Y-64850000D03*
X96150000Y-96075000D03*
X76200000Y-76200000D03*
X64275000Y-61425000D03*
X116840000Y-111760000D03*
X91440000Y-96520000D03*
X64250000Y-63575000D03*
X107560165Y-81376375D03*
X60960000Y-111760000D03*
X111760000Y-45720000D03*
X76200000Y-116840000D03*
X106680000Y-121920000D03*
X116840000Y-121920000D03*
X59925000Y-76425000D03*
X88600000Y-100350000D03*
X81280000Y-71120000D03*
X86360000Y-121920000D03*
X76280001Y-56119999D03*
X116275000Y-97000000D03*
X76200000Y-91440000D03*
X96520000Y-40640000D03*
X88600000Y-103275000D03*
X116840000Y-116840000D03*
X55880000Y-50800000D03*
X81280000Y-121920000D03*
X111250000Y-71200000D03*
X55880000Y-71120000D03*
X62100000Y-103000000D03*
X71120000Y-111760000D03*
X106680000Y-96520000D03*
X76200000Y-121920000D03*
X81280000Y-116840000D03*
X86950000Y-62375000D03*
X103900000Y-59250000D03*
X76200000Y-81280000D03*
X81280000Y-91440000D03*
X89175000Y-80750000D03*
X67450000Y-75075000D03*
X61675000Y-67025000D03*
X101600000Y-116840000D03*
X66040000Y-71120000D03*
X103825000Y-67075000D03*
X103325000Y-105750000D03*
X82625000Y-91150000D03*
X60700000Y-79900000D03*
X70925000Y-40750000D03*
X63425000Y-50900000D03*
X55880000Y-45720000D03*
X55880000Y-40640000D03*
X76200000Y-106680000D03*
X111760000Y-111760000D03*
X65675000Y-85850000D03*
X104700000Y-87025000D03*
X60960000Y-106680000D03*
X111375000Y-44000000D03*
X116840000Y-91440000D03*
X66040000Y-96520000D03*
X116840000Y-66040000D03*
X66040000Y-121920000D03*
X95628924Y-56583938D03*
X96325000Y-84775000D03*
X91150000Y-54925000D03*
X64250000Y-59350000D03*
X103600000Y-98700000D03*
X90400000Y-76225000D03*
X55880000Y-66040000D03*
X102625000Y-86125000D03*
X74725000Y-63850000D03*
X88500000Y-45700000D03*
X102075000Y-43075000D03*
X81280000Y-106680000D03*
X90400000Y-77275000D03*
X60960000Y-91440000D03*
X55880000Y-91440000D03*
X91440000Y-91440000D03*
X92100000Y-45600000D03*
X76200000Y-111760000D03*
X71120000Y-71120000D03*
X106680000Y-71120000D03*
X55880000Y-60960000D03*
X86500000Y-67800000D03*
X115625000Y-67500000D03*
X102325000Y-55875000D03*
X69500000Y-52900000D03*
X90675000Y-51900000D03*
X91440000Y-116840000D03*
X90425000Y-68175000D03*
X66040000Y-76200000D03*
X81280000Y-76200000D03*
X55880000Y-121920000D03*
X116840000Y-101600000D03*
X91440000Y-111760000D03*
X88575000Y-104600000D03*
X71120000Y-96520000D03*
X99375000Y-84875000D03*
X71120000Y-106680000D03*
X90400000Y-78400000D03*
X86360000Y-96520000D03*
X78150000Y-83500000D03*
X76200000Y-96520000D03*
X78408105Y-81308105D03*
X80700000Y-69925000D03*
X116840000Y-40640000D03*
X65699999Y-94000001D03*
X55880000Y-116840000D03*
X101225000Y-39600000D03*
X68864999Y-91035001D03*
X116840000Y-60960000D03*
X96250000Y-82475000D03*
X81575000Y-98025000D03*
X91440000Y-101600000D03*
X111760000Y-91440000D03*
X96520000Y-121920000D03*
X60700000Y-84100000D03*
X109850000Y-85325000D03*
X81280000Y-111760000D03*
X96520000Y-91440000D03*
X85100000Y-61550000D03*
X55880000Y-106680000D03*
X55880000Y-111760000D03*
X117250000Y-82425000D03*
X101100000Y-44850000D03*
X106150000Y-55625000D03*
X116840000Y-71120000D03*
X81280000Y-101600000D03*
X71120000Y-81280000D03*
X74150000Y-57450000D03*
X68175000Y-82700000D03*
X96520000Y-116840000D03*
X66200000Y-55700000D03*
X55880000Y-76200000D03*
X55880000Y-101600000D03*
X116840000Y-50800000D03*
X60960000Y-76200000D03*
%TO.N,V_BUS*%
X93200000Y-89700000D03*
X109700000Y-64400000D03*
X93175000Y-84425000D03*
X109624999Y-57749999D03*
%TO.N,+3.3V*%
X80570000Y-49000000D03*
X92650000Y-67000000D03*
X81875000Y-67575000D03*
X63600000Y-52725000D03*
X77900000Y-49075000D03*
X94000000Y-51375000D03*
X102650000Y-77975000D03*
X80570000Y-52525000D03*
X98675000Y-51300000D03*
X84075000Y-48925000D03*
X77900000Y-51150000D03*
X83800000Y-52575000D03*
X94875000Y-64950000D03*
%TO.N,/SPI_CS*%
X109750000Y-84250000D03*
X86225000Y-63225000D03*
%TO.N,/SPI_MISO*%
X105791000Y-86025000D03*
X86575000Y-66800000D03*
%TO.N,Net-(U300-SCLK)*%
X103700000Y-86075000D03*
X81775000Y-69900000D03*
%TO.N,+3.3VA*%
X71362499Y-98337501D03*
X102118597Y-95856403D03*
X99750000Y-86300000D03*
X58725000Y-95700000D03*
%TO.N,V_BUS_Filtered*%
X109675000Y-68250000D03*
X118325000Y-68500000D03*
%TO.N,/Mixed_Signal_Board_MCU/SWCLK*%
X89745000Y-51975000D03*
X90250000Y-54900000D03*
%TO.N,/SPI2_NSS*%
X91050000Y-65150000D03*
X67150000Y-82700000D03*
%TO.N,/Mixed_Signal_Board_MCU/TIM4_CH1*%
X89408000Y-58166000D03*
X64275000Y-62500000D03*
%TO.N,/Mixed_Signal_Board_MCU/TIM4_CH2*%
X64250000Y-60475000D03*
X87275000Y-58250000D03*
%TO.N,/Mixed_Signal_Board_MCU/TIM4_CH3*%
X64225000Y-58400000D03*
X85700000Y-59450000D03*
%TO.N,VCOM*%
X105800000Y-94725000D03*
X66125000Y-73350000D03*
X105400000Y-100125000D03*
%TO.N,/Mixed_Signal_Board_DAC/DAC_SCLK*%
X86020605Y-71220605D03*
X66650000Y-85825000D03*
%TD*%
%TO.N,Net-(C311-Pad1)*%
D54*
X100362500Y-105765735D02*
X100362500Y-105959265D01*
X100362500Y-105959265D02*
X100231030Y-106090735D01*
X100231030Y-106090735D02*
X97137500Y-106090735D01*
X97137500Y-106090735D02*
X97137500Y-107590735D01*
X97137500Y-107590735D02*
X97312500Y-107765735D01*
%TO.N,GND*%
D55*
X62862500Y-71000000D02*
X61400000Y-71000000D01*
D54*
X63362500Y-103000000D02*
X62100000Y-103000000D01*
X70825000Y-53000000D02*
X69600000Y-53000000D01*
X104700001Y-47500000D02*
X103550000Y-46349999D01*
X103900000Y-60375000D02*
X103875000Y-60400000D01*
X65775000Y-101500000D02*
X65750000Y-101525000D01*
X98000000Y-98265735D02*
X96912500Y-98265735D01*
X105362500Y-47500000D02*
X104700001Y-47500000D01*
X68050000Y-115850000D02*
X68620000Y-116420000D01*
X83350000Y-46000000D02*
X82975000Y-45625000D01*
X88293000Y-82857000D02*
X89175000Y-81975000D01*
X65350000Y-55700000D02*
X66200000Y-55700000D01*
D55*
X103600000Y-97568597D02*
X103668597Y-97500000D01*
D54*
X75170000Y-46845000D02*
X74850000Y-46525000D01*
X86850001Y-82857000D02*
X88293000Y-82857000D01*
X79320000Y-62125000D02*
X80920000Y-62125000D01*
D56*
X104177931Y-88644738D02*
X104677931Y-88644738D01*
D54*
X85270000Y-54695000D02*
X84995000Y-54420000D01*
D55*
X79120000Y-57620000D02*
X77620000Y-56120000D01*
D54*
X96912500Y-98265735D02*
X96137500Y-97490735D01*
X111800000Y-105290735D02*
X111825000Y-105265735D01*
X82975000Y-45625000D02*
X82975000Y-43875000D01*
X64900000Y-55700000D02*
X65350000Y-55700000D01*
X101928235Y-105750000D02*
X101912500Y-105765735D01*
D55*
X112245000Y-63880000D02*
X112245000Y-64425000D01*
D54*
X63875000Y-47800000D02*
X63475000Y-48200000D01*
X103208188Y-63000000D02*
X102450000Y-63758188D01*
X112600000Y-71255000D02*
X112575000Y-71280000D01*
X110362500Y-99265735D02*
X111033964Y-99265735D01*
D55*
X88975000Y-78975000D02*
X87950000Y-80000000D01*
X88975000Y-77000000D02*
X88975000Y-78975000D01*
D54*
X68050000Y-111530000D02*
X68050000Y-115850000D01*
X82975000Y-43875000D02*
X82920000Y-43820000D01*
D55*
X77620000Y-56120000D02*
X76280001Y-56119999D01*
D54*
X86820000Y-52895000D02*
X86520000Y-52895000D01*
X111775000Y-102265735D02*
X111775000Y-105215735D01*
X82346716Y-61589696D02*
X82320715Y-61615697D01*
D55*
X63225000Y-67000000D02*
X61700000Y-67000000D01*
X114495000Y-67500000D02*
X114475000Y-67480000D01*
X103600000Y-98700000D02*
X103600000Y-97568597D01*
D54*
X74150000Y-57450000D02*
X72700000Y-57450000D01*
X82320715Y-61615697D02*
X81429303Y-61615697D01*
X67637500Y-91035000D02*
X68864999Y-91035001D01*
X103900000Y-59250000D02*
X103900000Y-60375000D01*
X111775000Y-105215735D02*
X111825000Y-105265735D01*
D56*
X104677931Y-88644738D02*
X104677931Y-87047069D01*
D54*
X64412500Y-94000000D02*
X65699999Y-94000001D01*
X72700000Y-57450000D02*
X72600000Y-57350000D01*
X106150000Y-54325000D02*
X106200000Y-54275000D01*
X111621076Y-99852847D02*
X111621076Y-102111811D01*
X95375000Y-56837862D02*
X95628924Y-56583938D01*
X72962500Y-100550000D02*
X72912500Y-100500000D01*
X110460000Y-116920000D02*
X110460000Y-111910000D01*
X102450000Y-63758188D02*
X102450000Y-64850000D01*
D55*
X112495000Y-71200000D02*
X112575000Y-71280000D01*
D54*
X69600000Y-53000000D02*
X69500000Y-52900000D01*
D55*
X115625000Y-67500000D02*
X114495000Y-67500000D01*
D54*
X89760152Y-64982500D02*
X89760152Y-66964848D01*
D55*
X67450000Y-75075000D02*
X67450000Y-73825000D01*
D54*
X84995000Y-54420000D02*
X85277849Y-54702849D01*
X117250000Y-82425000D02*
X117250000Y-81217500D01*
D55*
X104712128Y-81606282D02*
X106232773Y-80085637D01*
D54*
X111375000Y-44000000D02*
X110025000Y-44000000D01*
X102325000Y-55875000D02*
X102325000Y-56950000D01*
X103825000Y-65750000D02*
X103875000Y-65700000D01*
D56*
X104677931Y-87047069D02*
X104700000Y-87025000D01*
D54*
X117212500Y-75260000D02*
X117212500Y-81105000D01*
X89760152Y-66964848D02*
X89725000Y-67000000D01*
D55*
X67450000Y-73825000D02*
X67500000Y-73775000D01*
D54*
X74900000Y-63675000D02*
X74725000Y-63850000D01*
X102450000Y-66275000D02*
X103250000Y-67075000D01*
D55*
X59925000Y-76425000D02*
X59925000Y-75225000D01*
D54*
X96137500Y-96087500D02*
X96150000Y-96075000D01*
X103250000Y-67075000D02*
X103825000Y-67075000D01*
D55*
X107523511Y-81376375D02*
X107560165Y-81376375D01*
D54*
X67000000Y-101500000D02*
X65775000Y-101500000D01*
X114250000Y-67705000D02*
X114475000Y-67480000D01*
X103637500Y-63000000D02*
X103208188Y-63000000D01*
D55*
X69050000Y-40750000D02*
X59950000Y-40750000D01*
D54*
X111033964Y-99265735D02*
X111621076Y-99852847D01*
X117252500Y-75300000D02*
X117212500Y-75260000D01*
D55*
X79120000Y-58120000D02*
X79120000Y-57620000D01*
D54*
X110460000Y-111910000D02*
X110050000Y-111500000D01*
X85270000Y-58230000D02*
X85250000Y-58250000D01*
D55*
X61700000Y-67000000D02*
X61675000Y-67025000D01*
D54*
X103825000Y-67075000D02*
X103825000Y-65750000D01*
X117250000Y-81217500D02*
X117287500Y-81180000D01*
X76120000Y-63675000D02*
X74900000Y-63675000D01*
X81429303Y-61615697D02*
X80920000Y-62125000D01*
X63500000Y-49250000D02*
X63500000Y-50825000D01*
D55*
X116275000Y-98265735D02*
X116275000Y-97000000D01*
D54*
X83588382Y-61570000D02*
X85080000Y-61570000D01*
X111621076Y-102111811D02*
X111775000Y-102265735D01*
X83357500Y-61589696D02*
X82346716Y-61589696D01*
X112245000Y-56935000D02*
X112820000Y-56360000D01*
X86520000Y-52895000D02*
X84995000Y-54420000D01*
X89725000Y-67475000D02*
X90425000Y-68175000D01*
X85080000Y-61570000D02*
X85100000Y-61550000D01*
X66137500Y-87192081D02*
X65895419Y-86950000D01*
X96137500Y-97490735D02*
X96137500Y-96087500D01*
D55*
X104712128Y-82169200D02*
X104712128Y-81606282D01*
D54*
X89175000Y-81975000D02*
X89175000Y-80750000D01*
X74175000Y-100550000D02*
X72962500Y-100550000D01*
X110725000Y-111500000D02*
X111800000Y-110425000D01*
X90278784Y-58570000D02*
X90257487Y-58591297D01*
D55*
X111250000Y-71200000D02*
X112495000Y-71200000D01*
X106232773Y-80085637D02*
X107523511Y-81376375D01*
D54*
X83370000Y-46845000D02*
X75170000Y-46845000D01*
X63475000Y-48200000D02*
X63475000Y-49225000D01*
X112245000Y-57480000D02*
X112245000Y-56935000D01*
X89725000Y-67000000D02*
X89725000Y-67475000D01*
X111800000Y-110425000D02*
X111800000Y-105290735D01*
X63875000Y-47450000D02*
X63875000Y-47800000D01*
X83568686Y-61589696D02*
X83588382Y-61570000D01*
X66137500Y-88650000D02*
X66137500Y-87192081D01*
X102325000Y-56950000D02*
X102400000Y-57025000D01*
D55*
X59925000Y-75225000D02*
X60000000Y-75150000D01*
D54*
X91682500Y-58570000D02*
X90278784Y-58570000D01*
X70825000Y-55225000D02*
X70400000Y-55650000D01*
D55*
X112245000Y-64425000D02*
X112820000Y-65000000D01*
D54*
X71775000Y-59100000D02*
X71775000Y-58175000D01*
X103550000Y-46349999D02*
X103550000Y-44000000D01*
X63500000Y-50825000D02*
X63425000Y-50900000D01*
X110050000Y-111500000D02*
X110725000Y-111500000D01*
X85270000Y-56657500D02*
X85270000Y-54695000D01*
X106150000Y-55625000D02*
X106150000Y-54325000D01*
X70825000Y-53000000D02*
X70825000Y-55225000D01*
X83370000Y-46845000D02*
X83350000Y-46825000D01*
X71775000Y-58175000D02*
X72600000Y-57350000D01*
X95375000Y-58000000D02*
X95375000Y-56837862D01*
X103325000Y-105750000D02*
X101928235Y-105750000D01*
X63475000Y-49225000D02*
X63500000Y-49250000D01*
X83350000Y-46825000D02*
X83350000Y-46000000D01*
X110025000Y-44000000D02*
X110000000Y-44025000D01*
X85270000Y-56657500D02*
X85270000Y-58230000D01*
X102450000Y-64850000D02*
X102450000Y-66275000D01*
D55*
X58150000Y-40750000D02*
X70925000Y-40750000D01*
D54*
X117212500Y-81105000D02*
X117287500Y-81180000D01*
X83357500Y-61589696D02*
X83568686Y-61589696D01*
%TO.N,V_BUS*%
D55*
X112600000Y-69380000D02*
X102695000Y-69380000D01*
X109300000Y-74050000D02*
X109300000Y-70600000D01*
X102400000Y-58575000D02*
X102479000Y-58654000D01*
X112600000Y-69380000D02*
X112600000Y-67505000D01*
X110520000Y-69380000D02*
X112600000Y-69380000D01*
X112140000Y-75260000D02*
X110510000Y-75260000D01*
X93175000Y-78900000D02*
X93175000Y-84425000D01*
X102024999Y-63000000D02*
X101362500Y-63000000D01*
X112245000Y-58280000D02*
X110155000Y-58280000D01*
X102695000Y-69380000D02*
X93175000Y-78900000D01*
X93200000Y-105525000D02*
X93200000Y-89700000D01*
X84075000Y-104550000D02*
X83925000Y-104400000D01*
X83925000Y-104400000D02*
X83925000Y-102870000D01*
D54*
X84075000Y-102720000D02*
X83905000Y-102550000D01*
D55*
X109300000Y-70600000D02*
X110520000Y-69380000D01*
X84075000Y-104550000D02*
X88025000Y-108500000D01*
X112575000Y-67480000D02*
X110930000Y-67480000D01*
X109700000Y-64400000D02*
X109700000Y-66250000D01*
X112600000Y-67505000D02*
X112575000Y-67480000D01*
X109700000Y-63600000D02*
X109700000Y-64400000D01*
X110155000Y-58280000D02*
X109624999Y-57749999D01*
X83925000Y-102870000D02*
X84075000Y-102720000D01*
X112245000Y-63080000D02*
X110220000Y-63080000D01*
X102479000Y-58654000D02*
X102479000Y-62545999D01*
X110510000Y-75260000D02*
X109300000Y-74050000D01*
X110220000Y-63080000D02*
X109700000Y-63600000D01*
X88025000Y-108500000D02*
X90225000Y-108500000D01*
X103225000Y-57750000D02*
X109624999Y-57749999D01*
X109700000Y-66250000D02*
X110930000Y-67480000D01*
X102400000Y-58575000D02*
X103225000Y-57750000D01*
X102479000Y-62545999D02*
X102024999Y-63000000D01*
X90225000Y-108500000D02*
X93200000Y-105525000D01*
%TO.N,+3.3V*%
D54*
X103148387Y-84344738D02*
X103148387Y-84133552D01*
D55*
X65525000Y-60975000D02*
X68100000Y-63550000D01*
D54*
X83445000Y-52930000D02*
X83800000Y-52575000D01*
D55*
X73622500Y-63577500D02*
X73622500Y-70827500D01*
D54*
X90270000Y-64982500D02*
X90270000Y-65995000D01*
X80670000Y-56220000D02*
X80570000Y-56120000D01*
D55*
X75075000Y-62125000D02*
X76120000Y-62125000D01*
D54*
X94075000Y-58050000D02*
X94095000Y-58070000D01*
X65617804Y-84350000D02*
X65617804Y-83927628D01*
D55*
X80570000Y-52525000D02*
X80570000Y-56120000D01*
D54*
X83357500Y-58070000D02*
X80720000Y-58070000D01*
X83095000Y-66920000D02*
X82530000Y-66920000D01*
X61375000Y-55700000D02*
X61125000Y-55950000D01*
D55*
X73622500Y-70827500D02*
X64900000Y-79550000D01*
D54*
X91903838Y-58050000D02*
X94075000Y-58050000D01*
X102650000Y-78384454D02*
X103282773Y-79017227D01*
X76120000Y-62125000D02*
X77670000Y-62125000D01*
X103148387Y-84133552D02*
X103168083Y-84113856D01*
D55*
X100525000Y-53150000D02*
X98675000Y-51300000D01*
D54*
X103282773Y-80985637D02*
X103282773Y-80085637D01*
D55*
X68100000Y-63550000D02*
X73650000Y-63550000D01*
D54*
X102650000Y-77975000D02*
X102650000Y-78384454D01*
X80720000Y-58070000D02*
X80670000Y-58120000D01*
X111100000Y-81100000D02*
X112175000Y-81100000D01*
X90270000Y-65995000D02*
X91275000Y-67000000D01*
X91893686Y-58060152D02*
X91903838Y-58050000D01*
D55*
X75075000Y-62125000D02*
X73622500Y-63577500D01*
D54*
X93845000Y-64920000D02*
X93845000Y-66555000D01*
X83445000Y-54420000D02*
X83445000Y-55342348D01*
X65162500Y-81835000D02*
X65162500Y-79535000D01*
X107725000Y-77725000D02*
X102900000Y-77725000D01*
D55*
X94000000Y-51425000D02*
X93825000Y-51600000D01*
D54*
X65617804Y-83927628D02*
X65627652Y-83917780D01*
D55*
X73650000Y-63550000D02*
X75075000Y-62125000D01*
D54*
X83445000Y-54420000D02*
X83445000Y-52930000D01*
X91682500Y-58060152D02*
X91893686Y-58060152D01*
X93845000Y-66555000D02*
X93400000Y-67000000D01*
D55*
X63350000Y-55700000D02*
X65525000Y-57875000D01*
D54*
X92650000Y-67000000D02*
X91275000Y-67000000D01*
X107725000Y-77725000D02*
X111100000Y-81100000D01*
X102900000Y-77725000D02*
X102650000Y-77975000D01*
D55*
X77900000Y-49075000D02*
X67150000Y-49075000D01*
D54*
X93845000Y-64920000D02*
X94845000Y-64920000D01*
X80670000Y-58120000D02*
X80670000Y-56220000D01*
X63350000Y-55700000D02*
X61375000Y-55700000D01*
D55*
X93825000Y-51600000D02*
X93825000Y-58000000D01*
D54*
X103168083Y-84113856D02*
X103168083Y-81100327D01*
X83445000Y-55342348D02*
X84760152Y-56657500D01*
X82530000Y-66920000D02*
X81875000Y-67575000D01*
X103168083Y-81100327D02*
X103282773Y-80985637D01*
D55*
X94000000Y-51375000D02*
X94000000Y-51425000D01*
X63600000Y-55450000D02*
X63350000Y-55700000D01*
X100525000Y-53275000D02*
X100525000Y-53150000D01*
D54*
X77670000Y-61845000D02*
X77720000Y-61795000D01*
X94845000Y-64920000D02*
X94875000Y-64950000D01*
X65627652Y-82300152D02*
X65162500Y-81835000D01*
X65627652Y-83917780D02*
X65627652Y-82300152D01*
X102775000Y-78100000D02*
X102650000Y-77975000D01*
X93400000Y-67000000D02*
X92650000Y-67000000D01*
D55*
X63600000Y-52725000D02*
X63600000Y-55450000D01*
X65525000Y-57875000D02*
X65525000Y-60975000D01*
D54*
X103282773Y-79017227D02*
X103282773Y-80085637D01*
%TO.N,/Mixed_Signal_Board_MCU/NRST*%
X74795000Y-44420000D02*
X73984702Y-45230298D01*
X69500000Y-62600000D02*
X68200000Y-61300000D01*
X69050000Y-45250000D02*
X59950000Y-45250000D01*
X68200000Y-52050000D02*
X65400000Y-49250000D01*
X74190690Y-61079848D02*
X72670538Y-62600000D01*
X73984702Y-45230298D02*
X69069702Y-45230298D01*
X69069702Y-45230298D02*
X69050000Y-45250000D01*
X65400000Y-47475000D02*
X65425000Y-47450000D01*
X72670538Y-62600000D02*
X69500000Y-62600000D01*
X65425000Y-47450000D02*
X67125000Y-47450000D01*
X65400000Y-49250000D02*
X65400000Y-47475000D01*
X80380000Y-41280000D02*
X77240000Y-44420000D01*
X77240000Y-44420000D02*
X74795000Y-44420000D01*
X83357500Y-61079848D02*
X74190690Y-61079848D01*
X68200000Y-61300000D02*
X68200000Y-52050000D01*
X67150000Y-47150000D02*
X69050000Y-45250000D01*
X67150000Y-47425000D02*
X67150000Y-47150000D01*
X67125000Y-47450000D02*
X67150000Y-47425000D01*
%TO.N,Net-(J201-Pin_4)*%
X92120000Y-42595000D02*
X91466076Y-43248924D01*
X86650000Y-42550000D02*
X84190000Y-42550000D01*
X87348924Y-43248924D02*
X86650000Y-42550000D01*
X91466076Y-43248924D02*
X87348924Y-43248924D01*
X92120000Y-42595000D02*
X92120000Y-41095000D01*
X84190000Y-42550000D02*
X82920000Y-41280000D01*
X92120000Y-41095000D02*
X92070000Y-41045000D01*
%TO.N,Net-(J201-Pin_5)*%
X85470000Y-46845000D02*
X85470000Y-43830000D01*
X85470000Y-46845000D02*
X87995000Y-46845000D01*
X87995000Y-46845000D02*
X88095000Y-46945000D01*
X85470000Y-43830000D02*
X85460000Y-43820000D01*
%TO.N,Net-(J201-Pin_6)*%
X88575000Y-42590000D02*
X88570000Y-42595000D01*
X88445000Y-41045000D02*
X85695000Y-41045000D01*
X85695000Y-41045000D02*
X85460000Y-41280000D01*
X88575000Y-41175000D02*
X88575000Y-42590000D01*
X88445000Y-41045000D02*
X88575000Y-41175000D01*
%TO.N,Net-(C312-Pad1)*%
X97137500Y-104440735D02*
X97137500Y-102590735D01*
X98843597Y-102500000D02*
X97228235Y-102500000D01*
X97228235Y-102500000D02*
X97137500Y-102590735D01*
%TO.N,Net-(U1-OUT)*%
X84739800Y-96110200D02*
X85505000Y-95345000D01*
X102677931Y-88644738D02*
X90430262Y-88644738D01*
X90430262Y-88644738D02*
X87025000Y-92050000D01*
X84142200Y-96110200D02*
X84739800Y-96110200D01*
X87025000Y-92530000D02*
X85505000Y-94050000D01*
X87025000Y-92050000D02*
X87025000Y-92530000D01*
X85505000Y-95345000D02*
X85505000Y-94050000D01*
%TO.N,/Mixed_Signal_Board_ADC/ADC_IN+*%
D56*
X102650000Y-91719738D02*
X102650000Y-91744738D01*
X101044738Y-91744738D02*
X100975000Y-91675000D01*
X103177931Y-89747239D02*
X103202931Y-89772239D01*
D54*
X100752931Y-91744738D02*
X100677931Y-91669738D01*
D56*
X103177931Y-88644738D02*
X103177931Y-89747239D01*
X103200000Y-91169738D02*
X102650000Y-91719738D01*
X102650000Y-91744738D02*
X101044738Y-91744738D01*
X103200000Y-90502931D02*
X103200000Y-91169738D01*
X103202931Y-89772239D02*
X103202931Y-90500000D01*
X103202931Y-90500000D02*
X103200000Y-90502931D01*
%TO.N,/Mixed_Signal_Board_ADC/ADC_IN-*%
X103652931Y-89772239D02*
X103652931Y-90672206D01*
X103650000Y-91169738D02*
X104200000Y-91719738D01*
X103677931Y-89747239D02*
X103652931Y-89772239D01*
X103650000Y-90675137D02*
X103650000Y-91169738D01*
D54*
X104205262Y-91750000D02*
X104200000Y-91744738D01*
D56*
X104200000Y-91719738D02*
X104200000Y-91744738D01*
X103677931Y-88644738D02*
X103677931Y-89747239D01*
D54*
X105602931Y-91744738D02*
X105677931Y-91669738D01*
D56*
X103652931Y-90672206D02*
X103650000Y-90675137D01*
D54*
X105850000Y-91750000D02*
X104205262Y-91750000D01*
%TO.N,/SPI_CS*%
X84745000Y-66445000D02*
X84745000Y-66920000D01*
X85270000Y-64180000D02*
X86225000Y-63225000D01*
X109655262Y-84344738D02*
X104677931Y-84344738D01*
X85230304Y-64982500D02*
X85230304Y-65959696D01*
X85230304Y-65959696D02*
X84745000Y-66445000D01*
X109750000Y-84250000D02*
X109655262Y-84344738D01*
X85270000Y-64982500D02*
X85270000Y-64180000D01*
%TO.N,/SPI_MISO*%
X104700000Y-86025000D02*
X105791000Y-86025000D01*
X86289696Y-65404872D02*
X86270000Y-65424568D01*
X104168083Y-84555924D02*
X104177931Y-84565772D01*
X104177931Y-84565772D02*
X104177931Y-85502931D01*
X104168083Y-84344738D02*
X104168083Y-84555924D01*
X86270000Y-65424568D02*
X86270000Y-66495000D01*
X86270000Y-66495000D02*
X86575000Y-66800000D01*
X104177931Y-85502931D02*
X104700000Y-86025000D01*
X86289696Y-64982500D02*
X86289696Y-65404872D01*
%TO.N,Net-(U300-SCLK)*%
X81795000Y-69900000D02*
X83095000Y-68600000D01*
X103665152Y-86040152D02*
X103700000Y-86075000D01*
X103658235Y-84767110D02*
X103665152Y-84774027D01*
X103665152Y-84774027D02*
X103665152Y-86040152D01*
X103658235Y-84344738D02*
X103658235Y-84767110D01*
X81775000Y-69900000D02*
X81795000Y-69900000D01*
%TO.N,+3.3VA*%
D55*
X59925000Y-65900000D02*
X60725000Y-65100000D01*
D54*
X112206250Y-78200000D02*
X110506250Y-76500000D01*
D55*
X71362500Y-100500000D02*
X71287500Y-100575000D01*
D54*
X110506250Y-76500000D02*
X102600000Y-76500000D01*
D55*
X60725000Y-65100000D02*
X64350000Y-65100000D01*
X100952931Y-85097069D02*
X99750000Y-86300000D01*
X57450000Y-94425000D02*
X57450000Y-91440000D01*
D54*
X101788539Y-83494738D02*
X100952931Y-83494738D01*
D55*
X57450000Y-71875000D02*
X59325000Y-70000000D01*
D54*
X111225000Y-95525000D02*
X102450000Y-95525000D01*
X101934332Y-97315735D02*
X102118597Y-97500000D01*
X100827931Y-78272069D02*
X100827931Y-81494738D01*
D55*
X82425000Y-87275000D02*
X71362499Y-98337501D01*
X82450000Y-82500000D02*
X82425000Y-82525000D01*
D54*
X102450000Y-95525000D02*
X102118597Y-95856403D01*
X100952931Y-81619738D02*
X100827931Y-81494738D01*
D55*
X65125000Y-67350000D02*
X65575000Y-67800000D01*
D54*
X102118597Y-97500000D02*
X102118597Y-95856403D01*
X112637500Y-98315735D02*
X114675000Y-98315735D01*
D55*
X100952931Y-83494738D02*
X100952931Y-85097069D01*
X65575000Y-67800000D02*
X65575000Y-69587500D01*
D54*
X69325000Y-100500000D02*
X69275000Y-100550000D01*
D55*
X71287500Y-100575000D02*
X69400000Y-100575000D01*
X57450000Y-91440000D02*
X57450000Y-71875000D01*
X64350000Y-65100000D02*
X64775000Y-65525000D01*
X82425000Y-87075000D02*
X82425000Y-84900000D01*
D54*
X102600000Y-76500000D02*
X100827931Y-78272069D01*
X65125000Y-70037500D02*
X65137500Y-70050000D01*
X112637500Y-96937500D02*
X111225000Y-95525000D01*
X100952931Y-83494738D02*
X100952931Y-81619738D01*
D55*
X82425000Y-84900000D02*
X82425000Y-87275000D01*
X82425000Y-82525000D02*
X82425000Y-84900000D01*
X98550000Y-87500000D02*
X82850000Y-87500000D01*
D54*
X64775000Y-67000000D02*
X65125000Y-67350000D01*
X100275000Y-97315735D02*
X101934332Y-97315735D01*
D55*
X59325000Y-70000000D02*
X60000000Y-70000000D01*
X69400000Y-100575000D02*
X69325000Y-100500000D01*
X82850000Y-87500000D02*
X82425000Y-87075000D01*
X99750000Y-86300000D02*
X98550000Y-87500000D01*
X71362500Y-100500000D02*
X71362499Y-98337501D01*
X60000000Y-70000000D02*
X59925000Y-69925000D01*
D54*
X114675000Y-98315735D02*
X114725000Y-98265735D01*
D55*
X59925000Y-69925000D02*
X59925000Y-65900000D01*
D54*
X65137500Y-67362500D02*
X64775000Y-67000000D01*
D55*
X65575000Y-69587500D02*
X65125000Y-70037500D01*
D54*
X102638539Y-84344738D02*
X101788539Y-83494738D01*
D55*
X64775000Y-65525000D02*
X64775000Y-67000000D01*
D54*
X112637500Y-98315735D02*
X112637500Y-96937500D01*
D55*
X58725000Y-95700000D02*
X57450000Y-94425000D01*
%TO.N,/Mixed_Signal_Board_ADC/IN_BUF_OUT*%
D54*
X103034265Y-107765735D02*
X104600000Y-106200000D01*
X112637500Y-100215735D02*
X112637500Y-99915736D01*
X111037499Y-98315735D02*
X110362500Y-98315735D01*
X104600000Y-106200000D02*
X104600000Y-99000000D01*
X98962500Y-107765735D02*
X103034265Y-107765735D01*
X105284265Y-98315735D02*
X110362500Y-98315735D01*
X112637500Y-99915736D02*
X111037499Y-98315735D01*
X104600000Y-99000000D02*
X105284265Y-98315735D01*
%TO.N,/Mixed_Signal_Board_ADC/IN_BUF*%
X108325000Y-100100000D02*
X108325000Y-100425000D01*
X108440735Y-100215735D02*
X108325000Y-100100000D01*
X110362500Y-100215735D02*
X108440735Y-100215735D01*
X108325000Y-100425000D02*
X106550000Y-102200000D01*
%TO.N,V_BUS_Filtered*%
D55*
X117255000Y-68500000D02*
X118325000Y-68500000D01*
X109675000Y-68250000D02*
X102050000Y-68250000D01*
X115700000Y-41000000D02*
X118325000Y-43625000D01*
D54*
X107637500Y-48237500D02*
X105950000Y-46550000D01*
D55*
X102050000Y-68250000D02*
X96300000Y-74000000D01*
X105362500Y-46550000D02*
X105362500Y-44087500D01*
D54*
X107637500Y-48450000D02*
X107637500Y-48237500D01*
D55*
X114475000Y-71280000D02*
X117255000Y-68500000D01*
D54*
X105950000Y-46550000D02*
X105362500Y-46550000D01*
D55*
X114475000Y-69605000D02*
X114250000Y-69380000D01*
X105475000Y-41000000D02*
X115700000Y-41000000D01*
D54*
X105362500Y-44087500D02*
X105450000Y-44000000D01*
D55*
X118325000Y-43625000D02*
X118325000Y-68500000D01*
X114475000Y-71280000D02*
X114475000Y-69605000D01*
X96300000Y-74000000D02*
X88962500Y-74000000D01*
%TO.N,/Mixed_Signal_Board_MCU/SWCLK*%
D54*
X90270000Y-54920000D02*
X90250000Y-54900000D01*
X90270000Y-56657500D02*
X90270000Y-54920000D01*
X89745000Y-46945000D02*
X89745000Y-51975000D01*
%TO.N,/Mixed_Signal_Board_DAC/OUT_AA_BUF_IN*%
X64912500Y-102912500D02*
X63325000Y-101325000D01*
X63325000Y-101325000D02*
X62800000Y-101325000D01*
X64912500Y-103000000D02*
X64912500Y-102912500D01*
X66450000Y-103000000D02*
X67000000Y-102450000D01*
X64912500Y-103000000D02*
X66450000Y-103000000D01*
%TO.N,Net-(U101-FB)*%
X112000000Y-48012500D02*
X110037500Y-48012500D01*
X107637500Y-46550000D02*
X109125000Y-46550000D01*
X110000000Y-48050000D02*
X110000000Y-45675000D01*
X109125000Y-46550000D02*
X110000000Y-45675000D01*
X110037500Y-48012500D02*
X110000000Y-48050000D01*
%TO.N,Net-(U100-VIN)*%
X85900000Y-82857000D02*
X85900000Y-80150000D01*
X85900000Y-80150000D02*
X86050000Y-80000000D01*
%TO.N,/SPI2_NSS*%
X91682500Y-63579848D02*
X92195000Y-64092348D01*
X91075000Y-65175000D02*
X91050000Y-65150000D01*
X91075000Y-65125000D02*
X91075000Y-65175000D01*
X92195000Y-64092348D02*
X92195000Y-64920000D01*
X67150000Y-84178966D02*
X67159848Y-84188814D01*
X67150000Y-82700000D02*
X67150000Y-84178966D01*
X91280000Y-64920000D02*
X91075000Y-65125000D01*
X67159848Y-84188814D02*
X67159848Y-84350000D01*
X92195000Y-64920000D02*
X91280000Y-64920000D01*
%TO.N,/Mixed_Signal_Board_DAC/OUT*%
X66675000Y-110805000D02*
X65950000Y-111530000D01*
X65950000Y-116290000D02*
X66080000Y-116420000D01*
X66675000Y-106500000D02*
X66675000Y-110805000D01*
X65950000Y-111530000D02*
X65950000Y-116290000D01*
%TO.N,Net-(U200-VDDA)*%
X83357500Y-62099544D02*
X82542524Y-62099544D01*
X83357500Y-62099544D02*
X82495456Y-62099544D01*
X80920000Y-63675000D02*
X77770000Y-63675000D01*
X82542524Y-62099544D02*
X82522372Y-62119696D01*
X82495456Y-62099544D02*
X80920000Y-63675000D01*
%TO.N,Net-(C405-Pad1)*%
X62850000Y-99725000D02*
X62800000Y-99675000D01*
X64637500Y-97175000D02*
X64462500Y-97000000D01*
X64637500Y-99725000D02*
X64637500Y-97175000D01*
X64637500Y-99725000D02*
X62850000Y-99725000D01*
%TO.N,/Mixed_Signal_Board_DAC/OUT_AA_BUF_OUT*%
X67000000Y-100550000D02*
X67550000Y-100550000D01*
X67550000Y-100550000D02*
X69275000Y-102275000D01*
X68325000Y-103400000D02*
X69275000Y-102450000D01*
X65362500Y-100550000D02*
X64637500Y-101275000D01*
X67000000Y-100550000D02*
X65362500Y-100550000D01*
X69275000Y-102275000D02*
X69275000Y-102450000D01*
X68325000Y-106500000D02*
X68325000Y-103400000D01*
%TO.N,/Mixed_Signal_Board_ADC/IN*%
X108000000Y-116840000D02*
X107920000Y-116920000D01*
X108000000Y-107090735D02*
X108000000Y-116840000D01*
%TO.N,Net-(C213-Pad2)*%
X70175000Y-60700000D02*
X70175000Y-59150000D01*
X70175000Y-59150000D02*
X70225000Y-59100000D01*
X70225000Y-59100000D02*
X70225000Y-57525000D01*
X70225000Y-57525000D02*
X70400000Y-57350000D01*
%TO.N,Net-(U200-PD0)*%
X82040456Y-60040456D02*
X81300000Y-59300000D01*
X83357500Y-60040456D02*
X82040456Y-60040456D01*
X72375000Y-53000000D02*
X72375000Y-55425000D01*
X77100000Y-59300000D02*
X73450000Y-55650000D01*
X72375000Y-55425000D02*
X72600000Y-55650000D01*
X81300000Y-59300000D02*
X77100000Y-59300000D01*
X73450000Y-55650000D02*
X72600000Y-55650000D01*
%TO.N,Net-(U200-PD1)*%
X81420000Y-60570000D02*
X81000000Y-60150000D01*
X73300000Y-60150000D02*
X72750000Y-60700000D01*
X81000000Y-60150000D02*
X73300000Y-60150000D01*
X72750000Y-60700000D02*
X71825000Y-60700000D01*
X83357500Y-60570000D02*
X81420000Y-60570000D01*
%TO.N,/SPI_CLK*%
X85779848Y-64982500D02*
X85779848Y-65193686D01*
X85740152Y-65233382D02*
X85740152Y-68004848D01*
X85740152Y-68004848D02*
X85145000Y-68600000D01*
X85779848Y-65193686D02*
X85740152Y-65233382D01*
X85145000Y-68600000D02*
X84745000Y-68600000D01*
%TO.N,/DAC_NLDAC*%
X88260152Y-67064848D02*
X85125000Y-70200000D01*
X83516210Y-70200000D02*
X66649343Y-87066867D01*
X88260152Y-64982500D02*
X88260152Y-67064848D01*
X66649343Y-87066867D02*
X66649343Y-88671691D01*
X85125000Y-70200000D02*
X83516210Y-70200000D01*
%TO.N,/DAC_NCLR*%
X67169696Y-88650000D02*
X67525000Y-88650000D01*
X88770000Y-67405000D02*
X88770000Y-64982500D01*
X67525000Y-88650000D02*
X88770000Y-67405000D01*
D56*
X88755924Y-65057500D02*
X88755924Y-64996576D01*
X88755924Y-64996576D02*
X88770000Y-64982500D01*
%TO.N,/SPI2_SCK*%
D54*
X96000000Y-63850000D02*
X95220000Y-63070000D01*
X95220000Y-63070000D02*
X91682500Y-63070000D01*
X96000000Y-64850000D02*
X96000000Y-63850000D01*
%TO.N,/SPI2_MOSI*%
X66137500Y-82068852D02*
X66137500Y-84128966D01*
X91682500Y-62070000D02*
X88945000Y-62070000D01*
X86581352Y-61625000D02*
X66137500Y-82068852D01*
X66127652Y-84138814D02*
X66127652Y-84350000D01*
X88945000Y-62070000D02*
X88500000Y-61625000D01*
X88500000Y-61625000D02*
X86581352Y-61625000D01*
X66137500Y-84128966D02*
X66127652Y-84138814D01*
%TO.N,/Mixed_Signal_Board_MCU/USB_N*%
D56*
X92788751Y-60070000D02*
X91682500Y-60070000D01*
X92813751Y-60045000D02*
X92788751Y-60070000D01*
X101362500Y-63950000D02*
X100368749Y-63950000D01*
X100368749Y-63950000D02*
X99643749Y-63225000D01*
X96126802Y-60045000D02*
X92813751Y-60045000D01*
X99643749Y-63225000D02*
X99306802Y-63225000D01*
X99306802Y-63225000D02*
X96126802Y-60045000D01*
%TO.N,/Mixed_Signal_Board_MCU/USB_P*%
X92813751Y-59595000D02*
X92788751Y-59570000D01*
X99493198Y-62775000D02*
X96313198Y-59595000D01*
X101362500Y-62050000D02*
X100368749Y-62050000D01*
X99643749Y-62775000D02*
X99493198Y-62775000D01*
X100368749Y-62050000D02*
X99643749Y-62775000D01*
X92788751Y-59570000D02*
X91682500Y-59570000D01*
X96313198Y-59595000D02*
X92813751Y-59595000D01*
%TO.N,/Mixed_Signal_Board_MCU/SWDIO*%
D54*
X91926034Y-59070000D02*
X91886186Y-59109848D01*
X90095000Y-41045000D02*
X91990000Y-39150000D01*
X96900000Y-58425000D02*
X96255000Y-59070000D01*
X91990000Y-39150000D02*
X93725000Y-39150000D01*
X96255000Y-59070000D02*
X91926034Y-59070000D01*
X91886186Y-59109848D02*
X91682500Y-59109848D01*
X93725000Y-39150000D02*
X96900000Y-42325000D01*
X96900000Y-42325000D02*
X96900000Y-58425000D01*
%TO.N,/Mixed_Signal_Board_MCU/SWO*%
X93720000Y-41045000D02*
X93720000Y-50180000D01*
X89270000Y-54630000D02*
X89270000Y-56657500D01*
X93720000Y-50180000D02*
X89270000Y-54630000D01*
%TO.N,/Mixed_Signal_Board_MCU/TIM4_CH1*%
X87804544Y-57470896D02*
X88475000Y-58141352D01*
X88475000Y-58141352D02*
X89383352Y-58141352D01*
X87804544Y-56657500D02*
X87804544Y-57470896D01*
X89383352Y-58141352D02*
X89408000Y-58166000D01*
X59650000Y-62500000D02*
X64275000Y-62500000D01*
%TO.N,/Mixed_Signal_Board_MCU/TIM4_CH2*%
X87294696Y-56868686D02*
X87270000Y-56893382D01*
X59650000Y-60500000D02*
X64225000Y-60500000D01*
X64225000Y-60500000D02*
X64250000Y-60475000D01*
X87294696Y-56657500D02*
X87294696Y-56868686D01*
X87270000Y-58245000D02*
X87275000Y-58250000D01*
X87270000Y-56893382D02*
X87270000Y-58245000D01*
X87275000Y-58375000D02*
X87260152Y-58360152D01*
%TO.N,Net-(U200-BOOT0)*%
X86820000Y-54945000D02*
X86820000Y-54545000D01*
X86784848Y-56657500D02*
X86784848Y-54980152D01*
X86784848Y-56416770D02*
X86784848Y-56657500D01*
X86784848Y-54980152D02*
X86820000Y-54945000D01*
X86820000Y-54545000D02*
X86820000Y-54945000D01*
X86820000Y-54945000D02*
X86779848Y-54985152D01*
%TO.N,/Mixed_Signal_Board_MCU/TIM4_CH3*%
X59650000Y-58500000D02*
X64125000Y-58500000D01*
X86270000Y-56657500D02*
X86270000Y-58880000D01*
X64125000Y-58500000D02*
X64225000Y-58400000D01*
X86270000Y-58880000D02*
X85700000Y-59450000D01*
%TO.N,Net-(D100-A)*%
X113790000Y-75260000D02*
X115637500Y-75260000D01*
%TO.N,/Mixed_Signal_Board_ADC/IN_AA_BUF_OUT*%
X100975000Y-94125000D02*
X100677931Y-94422069D01*
X98000000Y-97315735D02*
X98000000Y-97100000D01*
X100393597Y-102500000D02*
X100393597Y-99334332D01*
X98695367Y-97315735D02*
X98000000Y-97315735D01*
X98000000Y-97100000D02*
X100677931Y-94422069D01*
X100393597Y-99334332D02*
X100275000Y-99215735D01*
X100275000Y-99215735D02*
X100275000Y-98895368D01*
X100275000Y-98895368D02*
X98695367Y-97315735D01*
X100975000Y-93325000D02*
X100975000Y-94125000D01*
%TO.N,/Mixed_Signal_Board_ADC/IN_AA_BUF_IN*%
X97137500Y-100040735D02*
X96137500Y-99040735D01*
X98000000Y-99215735D02*
X96312500Y-99215735D01*
X96312500Y-99215735D02*
X96137500Y-99040735D01*
X97137500Y-100940735D02*
X97137500Y-100040735D01*
%TO.N,Net-(C403-Pad2)*%
X62862500Y-91085000D02*
X62812500Y-91035000D01*
X62862500Y-94000000D02*
X62862500Y-96950000D01*
X62862500Y-96950000D02*
X62812500Y-97000000D01*
X62862500Y-94000000D02*
X62862500Y-91085000D01*
%TO.N,/Mixed_Signal_Board_ADC/IN_RF*%
X108450000Y-102200000D02*
X110159265Y-102200000D01*
X110175000Y-105265735D02*
X110175000Y-102315735D01*
X110159265Y-102200000D02*
X110225000Y-102265735D01*
X108000000Y-105440735D02*
X110000000Y-105440735D01*
X110175000Y-102315735D02*
X110225000Y-102265735D01*
X110000000Y-105440735D02*
X110175000Y-105265735D01*
%TO.N,VCOM*%
X65137500Y-71950000D02*
X67225000Y-71950000D01*
X67225000Y-71950000D02*
X67500000Y-72225000D01*
X66375000Y-73350000D02*
X67500000Y-72225000D01*
X105425000Y-100100000D02*
X105400000Y-100125000D01*
X66125000Y-73350000D02*
X66375000Y-73350000D01*
X106675000Y-100100000D02*
X105425000Y-100100000D01*
X62862500Y-70050000D02*
X63750000Y-70050000D01*
X65137500Y-71437500D02*
X65137500Y-71950000D01*
X105800000Y-93450000D02*
X105850000Y-93400000D01*
X63750000Y-70050000D02*
X65137500Y-71437500D01*
X105800000Y-94725000D02*
X105800000Y-93450000D01*
%TO.N,/Mixed_Signal_Board_DAC/DAC_SCLK*%
X66637500Y-85812500D02*
X66650000Y-85825000D01*
X95525000Y-66500000D02*
X90804395Y-71220605D01*
X66637500Y-84350000D02*
X66637500Y-85812500D01*
X90804395Y-71220605D02*
X86020605Y-71220605D01*
X96000000Y-66500000D02*
X95525000Y-66500000D01*
%TO.N,Net-(D1-GK)*%
X57750000Y-54450000D02*
X58125000Y-54450000D01*
X57100000Y-60500000D02*
X56100000Y-59500000D01*
X58000000Y-60500000D02*
X57100000Y-60500000D01*
X56100000Y-56100000D02*
X57750000Y-54450000D01*
X56100000Y-59500000D02*
X56100000Y-56100000D01*
%TO.N,Net-(J200-CC2)*%
X106995000Y-58930000D02*
X105525000Y-60400000D01*
X112245000Y-58930000D02*
X106995000Y-58930000D01*
%TO.N,Net-(J200-CC1)*%
X106400000Y-65700000D02*
X110170000Y-61930000D01*
X105525000Y-65700000D02*
X106400000Y-65700000D01*
X110170000Y-61930000D02*
X112245000Y-61930000D01*
%TO.N,Net-(D101-A)*%
X115743750Y-78200000D02*
X113856250Y-78200000D01*
%TO.N,Net-(U102-+)*%
X60000000Y-73500000D02*
X60000000Y-71650000D01*
X62862500Y-71950000D02*
X60300000Y-71950000D01*
X60300000Y-71950000D02*
X60000000Y-71650000D01*
%TO.N,Net-(D102-A)*%
X115712500Y-81180000D02*
X113905000Y-81180000D01*
X113905000Y-81180000D02*
X113825000Y-81100000D01*
%TO.N,Net-(U101-SW)*%
D55*
X105362500Y-48450000D02*
X102450000Y-48450000D01*
X102450000Y-48450000D02*
X100500000Y-46500000D01*
%TO.N,Net-(U1-IN)*%
D54*
X84075000Y-101070000D02*
X85555000Y-102550000D01*
X84142200Y-97989800D02*
X84142200Y-100482800D01*
X84142200Y-100482800D02*
X84075000Y-100550000D01*
X84075000Y-100550000D02*
X84075000Y-101070000D01*
%TO.N,/Mixed_Signal_Board_MCU/USB_Conn_P*%
D56*
X113072400Y-60677599D02*
X112819999Y-60930000D01*
X109526802Y-59955000D02*
X111357499Y-59955000D01*
X105356251Y-62775000D02*
X106706802Y-62775000D01*
X112785092Y-59930000D02*
X113072400Y-60217308D01*
X106706802Y-62775000D02*
X109526802Y-59955000D01*
X113072400Y-60217308D02*
X113072400Y-60677599D01*
X103637500Y-62050000D02*
X104631251Y-62050000D01*
X111357499Y-59955000D02*
X111382499Y-59930000D01*
X112819999Y-60930000D02*
X112245000Y-60930000D01*
X111382499Y-59930000D02*
X112245000Y-59930000D01*
X104631251Y-62050000D02*
X105356251Y-62775000D01*
X112245000Y-59930000D02*
X112785092Y-59930000D01*
%TO.N,/Mixed_Signal_Board_MCU/USB_Conn_N*%
X105356251Y-63225000D02*
X106893198Y-63225000D01*
X111417600Y-61177599D02*
X111670001Y-61430000D01*
X109713198Y-60405000D02*
X111357499Y-60405000D01*
X111357499Y-60405000D02*
X111382499Y-60430000D01*
X111704908Y-60430000D02*
X111417600Y-60717308D01*
X104631251Y-63950000D02*
X105356251Y-63225000D01*
X103637500Y-63950000D02*
X104631251Y-63950000D01*
X112245000Y-60430000D02*
X111704908Y-60430000D01*
X106893198Y-63225000D02*
X109713198Y-60405000D01*
X111670001Y-61430000D02*
X112245000Y-61430000D01*
X111417600Y-60717308D02*
X111417600Y-61177599D01*
X111382499Y-60430000D02*
X112245000Y-60430000D01*
%TO.N,/Mixed_Signal_Board_DAC/DAC_OUT_A*%
D54*
X65137500Y-89885000D02*
X65137500Y-89092068D01*
X64462500Y-90560000D02*
X65137500Y-89885000D01*
X65137500Y-89092068D02*
X65117804Y-89072372D01*
X64462500Y-91035000D02*
X64462500Y-90560000D01*
X65117804Y-89072372D02*
X65117804Y-88650000D01*
%TO.N,/Mixed_Signal_Board_DAC/DAC_VREF*%
X64792956Y-84035000D02*
X63412500Y-84035000D01*
X65107956Y-84350000D02*
X64792956Y-84035000D01*
%TO.N,Net-(D1-BK)*%
X58000000Y-56075000D02*
X58125000Y-55950000D01*
X58000000Y-58500000D02*
X58000000Y-56075000D01*
%TO.N,Net-(D1-RK)*%
X59500000Y-56600000D02*
X59500000Y-55200000D01*
X59500000Y-55200000D02*
X60250000Y-54450000D01*
X58800000Y-61700000D02*
X58800000Y-57300000D01*
X60250000Y-54450000D02*
X61125000Y-54450000D01*
X58800000Y-57300000D02*
X59500000Y-56600000D01*
X58000000Y-62500000D02*
X58800000Y-61700000D01*
%TO.N,/Mixed_Signal_Board_DAC/DAC_OUT_B*%
X65627652Y-88650000D02*
X65627652Y-88861186D01*
X65987500Y-89769294D02*
X65987500Y-91035000D01*
X65627652Y-88861186D02*
X65647348Y-88880882D01*
X65647348Y-88880882D02*
X65647348Y-89429142D01*
X65647348Y-89429142D02*
X65987500Y-89769294D01*
%TD*%
%TA.AperFunction,Conductor*%
%TO.N,+3.3VA*%
G36*
X83693106Y-77780023D02*
G01*
X83708104Y-77784427D01*
X83723094Y-77794057D01*
X83740175Y-77799067D01*
X83766855Y-77822172D01*
X83768042Y-77823541D01*
X83795518Y-77878402D01*
X83797163Y-77885960D01*
X83800000Y-77912331D01*
X83800000Y-81600000D01*
X85062371Y-81600000D01*
X85097299Y-81605021D01*
X85103170Y-81606744D01*
X85109478Y-81608596D01*
X85168257Y-81646367D01*
X85197286Y-81709921D01*
X85189107Y-81775034D01*
X85184267Y-81786717D01*
X85178543Y-81798682D01*
X85176803Y-81801867D01*
X85126507Y-81936716D01*
X85120101Y-81996316D01*
X85120100Y-81996339D01*
X85120100Y-83558169D01*
X85115077Y-83593104D01*
X85110673Y-83608103D01*
X85072899Y-83666881D01*
X85072889Y-83666890D01*
X85071520Y-83668076D01*
X85016698Y-83695518D01*
X85009140Y-83697163D01*
X84982769Y-83700000D01*
X81641830Y-83700000D01*
X81641826Y-83699999D01*
X81641825Y-83700000D01*
X81606890Y-83694976D01*
X81594560Y-83691355D01*
X81535784Y-83653578D01*
X81506761Y-83590021D01*
X81505500Y-83572379D01*
X81505500Y-83251917D01*
X81511794Y-83212913D01*
X81518231Y-83193484D01*
X81539999Y-83127797D01*
X81550500Y-83025009D01*
X81550499Y-81974992D01*
X81540587Y-81877964D01*
X81539999Y-81872203D01*
X81539998Y-81872200D01*
X81516694Y-81801871D01*
X81511794Y-81787084D01*
X81505500Y-81748081D01*
X81505500Y-77900881D01*
X81525185Y-77833842D01*
X81548206Y-77807246D01*
X81548486Y-77807004D01*
X81603420Y-77779477D01*
X81610979Y-77777833D01*
X81637332Y-77775000D01*
X83658170Y-77775000D01*
X83693106Y-77780023D01*
G37*
%TD.AperFunction*%
%TD*%
%TA.AperFunction,Conductor*%
%TO.N,GND*%
G36*
X63368039Y-77769685D02*
G01*
X63413794Y-77822489D01*
X63425000Y-77874000D01*
X63425000Y-80925000D01*
X64151000Y-80925000D01*
X64159685Y-80927550D01*
X64168647Y-80926262D01*
X64192687Y-80937240D01*
X64218039Y-80944685D01*
X64223966Y-80951525D01*
X64232203Y-80955287D01*
X64246492Y-80977521D01*
X64263794Y-80997489D01*
X64266081Y-81008003D01*
X64269977Y-81014065D01*
X64275000Y-81049000D01*
X64275000Y-81074807D01*
X64255650Y-81140702D01*
X64255823Y-81140809D01*
X64255434Y-81141438D01*
X64255315Y-81141846D01*
X64254345Y-81143204D01*
X64163001Y-81291294D01*
X64162996Y-81291305D01*
X64109651Y-81452290D01*
X64099500Y-81551647D01*
X64099500Y-82148337D01*
X64099501Y-82148355D01*
X64109650Y-82247707D01*
X64109651Y-82247710D01*
X64162996Y-82408694D01*
X64163001Y-82408705D01*
X64255823Y-82559191D01*
X64253294Y-82560750D01*
X64274405Y-82613061D01*
X64275000Y-82625192D01*
X64275000Y-82901000D01*
X64255315Y-82968039D01*
X64202511Y-83013794D01*
X64151000Y-83025000D01*
X62637500Y-83025000D01*
X62637500Y-83259807D01*
X62618150Y-83325702D01*
X62618323Y-83325809D01*
X62617934Y-83326438D01*
X62617815Y-83326846D01*
X62616845Y-83328204D01*
X62525501Y-83476294D01*
X62525496Y-83476305D01*
X62472151Y-83637290D01*
X62462000Y-83736647D01*
X62462000Y-84333337D01*
X62462001Y-84333355D01*
X62472150Y-84432707D01*
X62472151Y-84432710D01*
X62525496Y-84593694D01*
X62525501Y-84593705D01*
X62618323Y-84744191D01*
X62615794Y-84745750D01*
X62636905Y-84798061D01*
X62637500Y-84810192D01*
X62637500Y-85800825D01*
X62617815Y-85867864D01*
X62565011Y-85913619D01*
X62513510Y-85924825D01*
X60474010Y-85924989D01*
X60406969Y-85905310D01*
X60361210Y-85852510D01*
X60350000Y-85800989D01*
X60350000Y-77874000D01*
X60369685Y-77806961D01*
X60422489Y-77761206D01*
X60474000Y-77750000D01*
X63301000Y-77750000D01*
X63368039Y-77769685D01*
G37*
%TD.AperFunction*%
%TD*%
%TA.AperFunction,Conductor*%
%TO.N,Net-(U100-VIN)*%
G36*
X87393106Y-72205023D02*
G01*
X87408104Y-72209427D01*
X87423094Y-72219057D01*
X87440175Y-72224067D01*
X87466855Y-72247172D01*
X87468042Y-72248541D01*
X87495518Y-72303402D01*
X87497163Y-72310960D01*
X87500000Y-72337331D01*
X87500000Y-78408364D01*
X87480315Y-78475403D01*
X87427511Y-78521158D01*
X87403095Y-78528862D01*
X87403193Y-78529273D01*
X87350681Y-78541788D01*
X87252500Y-78576195D01*
X87250371Y-78577598D01*
X87247460Y-78579518D01*
X87180659Y-78599991D01*
X87179197Y-78600000D01*
X87000000Y-78600000D01*
X87000000Y-78756444D01*
X86989393Y-78806624D01*
X86928961Y-78943180D01*
X86910065Y-79010449D01*
X86891265Y-79153102D01*
X86912694Y-80974541D01*
X86893800Y-81041808D01*
X86841538Y-81088181D01*
X86788703Y-81100000D01*
X85143715Y-81100000D01*
X85134871Y-81099684D01*
X85134300Y-81099643D01*
X85134299Y-81099643D01*
X85118923Y-81098543D01*
X85062376Y-81094500D01*
X85062371Y-81094500D01*
X84527287Y-81094500D01*
X84497532Y-81085763D01*
X84467259Y-81079002D01*
X84464292Y-81076002D01*
X84460248Y-81074815D01*
X84439943Y-81051382D01*
X84418128Y-81029324D01*
X84416145Y-81023918D01*
X84414493Y-81022011D01*
X84405977Y-80996188D01*
X84405911Y-80995880D01*
X84404243Y-80987997D01*
X84401562Y-80960929D01*
X84420556Y-79270488D01*
X84494680Y-72673408D01*
X84500094Y-72638541D01*
X84507862Y-72613144D01*
X84538755Y-72561737D01*
X84851569Y-72248923D01*
X84879824Y-72227773D01*
X84902914Y-72215166D01*
X84962337Y-72200000D01*
X87358170Y-72200000D01*
X87393106Y-72205023D01*
G37*
%TD.AperFunction*%
%TD*%
%TA.AperFunction,Conductor*%
%TO.N,GND*%
G36*
X80943039Y-77794685D02*
G01*
X80988794Y-77847489D01*
X81000000Y-77899000D01*
X81000000Y-83726000D01*
X80980315Y-83793039D01*
X80927511Y-83838794D01*
X80876000Y-83850000D01*
X77499000Y-83850000D01*
X77431961Y-83830315D01*
X77386206Y-83777511D01*
X77375000Y-83726000D01*
X77375000Y-79949000D01*
X77394685Y-79881961D01*
X77447489Y-79836206D01*
X77499000Y-79825000D01*
X78650000Y-79825000D01*
X78650000Y-78501857D01*
X78669685Y-78434818D01*
X78686319Y-78414176D01*
X79289176Y-77811319D01*
X79350499Y-77777834D01*
X79376857Y-77775000D01*
X80876000Y-77775000D01*
X80943039Y-77794685D01*
G37*
%TD.AperFunction*%
%TD*%
%TA.AperFunction,Conductor*%
%TO.N,GND*%
G36*
X91417508Y-75319685D02*
G01*
X91463263Y-75372489D01*
X91474467Y-75424529D01*
X91458560Y-79147153D01*
X91439097Y-83701530D01*
X91419126Y-83768485D01*
X91366127Y-83814013D01*
X91315098Y-83825000D01*
X87574314Y-83825000D01*
X87507275Y-83805315D01*
X87461520Y-83752511D01*
X87450323Y-83702459D01*
X87450312Y-83701530D01*
X87396731Y-79147151D01*
X87415625Y-79079886D01*
X87467887Y-79033513D01*
X87517276Y-79021742D01*
X88300000Y-79000000D01*
X88300000Y-75471372D01*
X88319685Y-75404333D01*
X88372489Y-75358578D01*
X88441647Y-75348634D01*
X88462998Y-75353664D01*
X88497203Y-75364999D01*
X88599991Y-75375500D01*
X89325008Y-75375499D01*
X89325016Y-75375498D01*
X89325019Y-75375498D01*
X89381302Y-75369748D01*
X89427797Y-75364999D01*
X89594334Y-75309814D01*
X89594335Y-75309812D01*
X89601189Y-75307542D01*
X89601712Y-75309122D01*
X89642870Y-75300000D01*
X91350469Y-75300000D01*
X91417508Y-75319685D01*
G37*
%TD.AperFunction*%
%TD*%
%TA.AperFunction,Conductor*%
%TO.N,V_BUS_Filtered*%
G36*
X107293106Y-39030023D02*
G01*
X107308104Y-39034427D01*
X107323094Y-39044057D01*
X107340175Y-39049067D01*
X107366855Y-39072172D01*
X107368042Y-39073541D01*
X107395518Y-39128402D01*
X107397163Y-39135960D01*
X107400000Y-39162331D01*
X107400000Y-45083170D01*
X107394975Y-45118114D01*
X107390570Y-45133112D01*
X107380939Y-45148101D01*
X107375932Y-45165175D01*
X107352827Y-45191855D01*
X107351458Y-45193042D01*
X107296597Y-45220518D01*
X107289039Y-45222163D01*
X107262668Y-45225000D01*
X104641830Y-45225000D01*
X104606889Y-45219975D01*
X104591890Y-45215570D01*
X104576902Y-45205940D01*
X104559824Y-45200932D01*
X104533144Y-45177827D01*
X104531957Y-45176458D01*
X104504477Y-45121583D01*
X104502832Y-45114021D01*
X104500000Y-45087668D01*
X104500000Y-44778456D01*
X104501583Y-44758707D01*
X104504709Y-44739330D01*
X104509417Y-44720083D01*
X104539999Y-44627797D01*
X104550500Y-44525009D01*
X104550499Y-43474992D01*
X104539999Y-43372203D01*
X104509415Y-43279908D01*
X104504711Y-43260677D01*
X104501582Y-43241291D01*
X104500000Y-43221545D01*
X104500000Y-42959835D01*
X104500002Y-42959093D01*
X104522665Y-39171637D01*
X104522665Y-39171634D01*
X104521638Y-39161491D01*
X104534469Y-39092810D01*
X104582395Y-39041968D01*
X104645007Y-39025000D01*
X107258170Y-39025000D01*
X107293106Y-39030023D01*
G37*
%TD.AperFunction*%
%TD*%
%TA.AperFunction,Conductor*%
%TO.N,+3.3V*%
G36*
X113642859Y-49219685D02*
G01*
X113688614Y-49272489D01*
X113699820Y-49324180D01*
X113695274Y-52456041D01*
X113675492Y-52523052D01*
X113622622Y-52568730D01*
X113571515Y-52579861D01*
X103200000Y-52600000D01*
X103200000Y-54676000D01*
X103180315Y-54743039D01*
X103127511Y-54788794D01*
X103076000Y-54800000D01*
X98124000Y-54800000D01*
X98056961Y-54780315D01*
X98011206Y-54727511D01*
X98000000Y-54676000D01*
X98000000Y-50524000D01*
X98019685Y-50456961D01*
X98072489Y-50411206D01*
X98124000Y-50400000D01*
X108900000Y-50400000D01*
X108900000Y-49324000D01*
X108919685Y-49256961D01*
X108972489Y-49211206D01*
X109024000Y-49200000D01*
X113575820Y-49200000D01*
X113642859Y-49219685D01*
G37*
%TD.AperFunction*%
%TD*%
%TA.AperFunction,Conductor*%
%TO.N,GND*%
G36*
X103894007Y-39043875D02*
G01*
X103960911Y-39064007D01*
X104006312Y-39117116D01*
X104017174Y-39168614D01*
X103981647Y-45105910D01*
X103961561Y-45172830D01*
X103908485Y-45218269D01*
X103856920Y-45229166D01*
X100844316Y-45211448D01*
X100777393Y-45191369D01*
X100731950Y-45138297D01*
X100721047Y-45086721D01*
X100755981Y-39146999D01*
X100776060Y-39080076D01*
X100829132Y-39034633D01*
X100880805Y-39023731D01*
X103894007Y-39043875D01*
G37*
%TD.AperFunction*%
%TD*%
%TA.AperFunction,Conductor*%
%TO.N,GND*%
G36*
X98769171Y-80069685D02*
G01*
X98814926Y-80122489D01*
X98826127Y-80172862D01*
X98848806Y-82644892D01*
X98850000Y-82775000D01*
X99943002Y-82796019D01*
X100009647Y-82816988D01*
X100054378Y-82870662D01*
X100062990Y-82939999D01*
X100058320Y-82958998D01*
X100012582Y-83097026D01*
X100002431Y-83196385D01*
X100002431Y-83793075D01*
X100002432Y-83793093D01*
X100012581Y-83892445D01*
X100012582Y-83892448D01*
X100065927Y-84053432D01*
X100065929Y-84053437D01*
X100117781Y-84137501D01*
X100136236Y-84203814D01*
X100130367Y-84802454D01*
X100110026Y-84869297D01*
X100094054Y-84888919D01*
X99669293Y-85313681D01*
X99607970Y-85347166D01*
X99581612Y-85350000D01*
X95574000Y-85350000D01*
X95506961Y-85330315D01*
X95461206Y-85277511D01*
X95450000Y-85226000D01*
X95450000Y-80174000D01*
X95469685Y-80106961D01*
X95522489Y-80061206D01*
X95574000Y-80050000D01*
X98702132Y-80050000D01*
X98769171Y-80069685D01*
G37*
%TD.AperFunction*%
%TD*%
%TA.AperFunction,Conductor*%
%TO.N,GND*%
G36*
X89543039Y-99119685D02*
G01*
X89588794Y-99172489D01*
X89600000Y-99224000D01*
X89600000Y-105651000D01*
X89580315Y-105718039D01*
X89527511Y-105763794D01*
X89476000Y-105775000D01*
X86574000Y-105775000D01*
X86506961Y-105755315D01*
X86461206Y-105702511D01*
X86450000Y-105651000D01*
X86450000Y-102947758D01*
X86450509Y-102936536D01*
X86455500Y-102881613D01*
X86455500Y-102218386D01*
X86450509Y-102163462D01*
X86450000Y-102152240D01*
X86450000Y-99224000D01*
X86469685Y-99156961D01*
X86522489Y-99111206D01*
X86574000Y-99100000D01*
X89476000Y-99100000D01*
X89543039Y-99119685D01*
G37*
%TD.AperFunction*%
%TD*%
%TA.AperFunction,Conductor*%
%TO.N,GND*%
G36*
X117568216Y-95369685D02*
G01*
X117613971Y-95422489D01*
X117625176Y-95473821D01*
X117644649Y-109124000D01*
X117649823Y-112750823D01*
X117630234Y-112817891D01*
X117577495Y-112863721D01*
X117525823Y-112875000D01*
X109549000Y-112875000D01*
X109481961Y-112855315D01*
X109436206Y-112802511D01*
X109425000Y-112751000D01*
X109425000Y-109124000D01*
X109444685Y-109056961D01*
X109497489Y-109011206D01*
X109549000Y-109000000D01*
X111000000Y-109000000D01*
X111000000Y-105895474D01*
X111016156Y-105837520D01*
X111015400Y-105837180D01*
X111017637Y-105832208D01*
X111017884Y-105831322D01*
X111018478Y-105830341D01*
X111069086Y-105667931D01*
X111075500Y-105597351D01*
X111075500Y-104934119D01*
X111069086Y-104863539D01*
X111018478Y-104701129D01*
X111017880Y-104700139D01*
X111017631Y-104699248D01*
X111015399Y-104694287D01*
X111016154Y-104693947D01*
X111000000Y-104635994D01*
X111000000Y-103040927D01*
X111019349Y-102975032D01*
X111019177Y-102974926D01*
X111019564Y-102974297D01*
X111019685Y-102973888D01*
X111020655Y-102972528D01*
X111022966Y-102968780D01*
X111022968Y-102968779D01*
X111112003Y-102824432D01*
X111165349Y-102663443D01*
X111175500Y-102564080D01*
X111175499Y-101967391D01*
X111165349Y-101868027D01*
X111112003Y-101707038D01*
X111111999Y-101707032D01*
X111111998Y-101707029D01*
X111019177Y-101556544D01*
X111021696Y-101554990D01*
X111000588Y-101502607D01*
X111000000Y-101490542D01*
X111000000Y-101198312D01*
X111019685Y-101131273D01*
X111072489Y-101085518D01*
X111123306Y-101074314D01*
X115500000Y-101050000D01*
X115500000Y-99040927D01*
X115519349Y-98975032D01*
X115519177Y-98974926D01*
X115519564Y-98974297D01*
X115519685Y-98973888D01*
X115520655Y-98972528D01*
X115522966Y-98968780D01*
X115522968Y-98968779D01*
X115612003Y-98824432D01*
X115665349Y-98663443D01*
X115675500Y-98564080D01*
X115675499Y-97967391D01*
X115665349Y-97868027D01*
X115612003Y-97707038D01*
X115611999Y-97707032D01*
X115611998Y-97707029D01*
X115519177Y-97556544D01*
X115521696Y-97554990D01*
X115500588Y-97502607D01*
X115500000Y-97490542D01*
X115500000Y-95474000D01*
X115519685Y-95406961D01*
X115572489Y-95361206D01*
X115624000Y-95350000D01*
X117501177Y-95350000D01*
X117568216Y-95369685D01*
G37*
%TD.AperFunction*%
%TD*%
%TA.AperFunction,Conductor*%
%TO.N,GND*%
G36*
X93008615Y-44019685D02*
G01*
X93054370Y-44072489D01*
X93065576Y-44124000D01*
X93065576Y-45826000D01*
X93045891Y-45893039D01*
X92993087Y-45938794D01*
X92941576Y-45950000D01*
X87474000Y-45950000D01*
X87406961Y-45930315D01*
X87361206Y-45877511D01*
X87350000Y-45826000D01*
X87350000Y-44124000D01*
X87369685Y-44056961D01*
X87422489Y-44011206D01*
X87474000Y-44000000D01*
X92941576Y-44000000D01*
X93008615Y-44019685D01*
G37*
%TD.AperFunction*%
%TD*%
%TA.AperFunction,Conductor*%
%TO.N,GND*%
G36*
X84605928Y-90174303D02*
G01*
X84672854Y-90194363D01*
X84718312Y-90247423D01*
X84729228Y-90299072D01*
X84710526Y-93306891D01*
X84692067Y-93371217D01*
X84617998Y-93491300D01*
X84617996Y-93491305D01*
X84564651Y-93652290D01*
X84554500Y-93751647D01*
X84554500Y-94348337D01*
X84554501Y-94348355D01*
X84564650Y-94447707D01*
X84564651Y-94447710D01*
X84617996Y-94608694D01*
X84618001Y-94608705D01*
X84682908Y-94713934D01*
X84687611Y-94730715D01*
X84696562Y-94744835D01*
X84701368Y-94779801D01*
X84700766Y-94876770D01*
X84680665Y-94943686D01*
X84627578Y-94989112D01*
X84576768Y-95000000D01*
X82749999Y-95000000D01*
X82732343Y-97630749D01*
X82725833Y-98601000D01*
X82725827Y-98601832D01*
X82705693Y-98668738D01*
X82652583Y-98714138D01*
X82601830Y-98725000D01*
X80399000Y-98725000D01*
X80331961Y-98705315D01*
X80286206Y-98652511D01*
X80275000Y-98601000D01*
X80275000Y-90543386D01*
X80294685Y-90476347D01*
X80311314Y-90455710D01*
X80578512Y-90188512D01*
X80639831Y-90155030D01*
X80666874Y-90152199D01*
X84605928Y-90174303D01*
G37*
%TD.AperFunction*%
%TD*%
%TA.AperFunction,Conductor*%
%TO.N,+3.3V*%
G36*
X84769344Y-48419685D02*
G01*
X84815099Y-48472489D01*
X84826298Y-48522688D01*
X84873669Y-52999282D01*
X84854695Y-53066526D01*
X84802378Y-53112837D01*
X84749275Y-53124593D01*
X77273599Y-53100399D01*
X77206623Y-53080498D01*
X77161040Y-53027546D01*
X77150000Y-52976400D01*
X77150000Y-48524000D01*
X77169685Y-48456961D01*
X77222489Y-48411206D01*
X77274000Y-48400000D01*
X84702305Y-48400000D01*
X84769344Y-48419685D01*
G37*
%TD.AperFunction*%
%TD*%
M02*
