M48
; DRILL file {KiCad 9.0.5} date 2026-01-01T21:41:42+0200
; FORMAT={-:-/ absolute / inch / decimal}
; #@! TF.CreationDate,2026-01-01T21:41:42+02:00
; #@! TF.GenerationSoftware,Kicad,Pcbnew,9.0.5
; #@! TF.FileFunction,MixedPlating,1,4
FMAT,2
INCH
; #@! TA.AperFunction,Plated,PTH,ViaDrill
T1C0.0118
; #@! TA.AperFunction,Plated,PTH,ComponentDrill
T2C0.0394
; #@! TA.AperFunction,NonPlated,NPTH,ComponentDrill
T3C0.0827
%
G90
G05
T1
X5.0866Y-2.8937
X5.0866Y-3.0433
X5.0866Y-3.1496
X5.0866Y-3.3071
X5.122Y-3.7165
X5.2441Y-2.9921
X5.2441Y-3.248
X5.2638Y-3.6811
X5.2677Y-3.0512
X5.2677Y-3.3071
X5.3819Y-3.563
X5.4016Y-2.9449
X5.4016Y-3.2047
X5.5354Y-3.1535
X5.6969Y-3.4449
X5.6969Y-3.563
X5.7205Y-3.6024
X5.9528Y-3.1693
X6.0236Y-3.324
X6.0275Y-3.2637
X6.0315Y-3.2283
X6.0433Y-3.4134
X6.063Y-3.2756
X6.0669Y-3.0512
X6.0719Y-3.3543
X6.0748Y-2.9173
X6.0748Y-3.2441
X6.0975Y-3.3002
X6.0984Y-3.685
X6.122Y-3.2402
X6.1856Y-3.4521
X6.189Y-2.9921
X6.2323Y-3.1142
X6.235Y-3.4185
X6.3031Y-3.5079
X6.3543Y-3.3228
X6.3583Y-3.0921
X6.3898Y-2.9173
X6.4449Y-3.3189
T2
X5.1756Y-3.8189
X5.2756Y-3.8189
X5.3756Y-3.8189
X5.4756Y-3.8189
X5.5482Y-2.9134
X5.5756Y-3.8189
X5.6482Y-2.9134
X5.6756Y-3.8189
X5.7756Y-3.8189
X5.8756Y-3.8189
X5.9756Y-3.8189
X6.1661Y-3.8189
X6.2661Y-3.8189
X6.3661Y-3.8189
X6.4661Y-3.8189
X6.5039Y-2.9921
X6.5039Y-3.0921
X6.5039Y-3.1921
X6.6024Y-3.3465
X6.6024Y-3.4465
X6.6024Y-3.5465
X6.6024Y-3.6465
X6.6039Y-2.9921
X6.6039Y-3.0921
X6.6039Y-3.1921
T3
X4.9882Y-2.815
X4.9882Y-3.9173
X6.7008Y-2.815
X6.7008Y-3.9173
M30
